#N canvas 209 229 1858 1037 12;
#X declare -path ./lib;
#X obj 88 363 netoutput;
#A saved 127 0 0 1 13000 user0;
#N canvas 571 303 450 300 declare 0;
#X obj 46 16 declare -path ./lib;
#X restore 34 21 pd declare;
#X text 242 141 <-- Click para abrir glosario de instrucciones soportadas
en el patch servidor, f 62;
#X obj 225 319 r messages-0;
#X obj 507 276 remote_micropiece 0;
#N canvas -8 -8 1858 1037 glosario1 0;
#X text 434 406 Pausar reproducción;
#X msg 74 46 sampleselector-0.openfolder 0 samples3;
#X msg 308 514 sampleplayer-0.volume.ramp 1 1500;
#X msg 351 600 sampleplayer-0.rate.ramp -1 4000;
#X msg 375 634 sampleplayer-0.rate.ramp -4 2000;
#X msg 388 670 sampleplayer-0.rate.ramp 1 3000;
#X text 360 51 Abre la carpeta samples3 en la carpeta de índice 0
del canal;
#X msg 237 407 sampleplayer-0.pause bang;
#X msg 257 439 sampleplayer-0.stop bang;
#X text 441 441 Detener reproducción (Retorna a la posición 0);
#X msg 101 263 sampleplayer-0.play 0;
#X msg 74 227 sampleplayer-0.play 1;
#X text 287 262 Inicia reproducción con loop desactivado;
#X text 260 222 Inicia reproducción con loop activado \, dos mensajes
seguidos reinicia a la posición inicial, f 78;
#X text 351 79 Selecciona y carga el sample de la carpeta 0 y archivo
de índice 1, f 67;
#X msg 420 819 sampleplayer-0.reset bang;
#X msg 112 80 sampleselector-0.selectfile 0 2;
#X msg 1014 151 mainoutput.recording.stop bang;
#X text 1252 153 detiene grabacion de salida principal;
#X msg 1102 429 audioprocessing-0.pitchshifter.reset bang \;;
#X msg 1173 743 audioprocessing-0.delay.reset bang \;;
#X msg 1158 928 audioprocessing-0.reverb.reset bang \;;
#X msg 1135 574 audioprocessing-0.ringmodulator.reset bang \;;
#X text 1080 332 PITCHSHIFTER, f 13;
#X text 1112 482 RING MODULATOR;
#X text 1155 799 REVERB;
#X text 1139 609 DELAY;
#X msg 1159 892 audioprocessing-0.reverb.freeze 0 \;;
#X msg 1156 864 audioprocessing-0.reverb.freeze 1 \;;
#X msg 1158 825 audioprocessing-0.reverb.values.ramp 0.7 0.5 0.1 4000
\;;
#X msg 1119 505 audioprocessing-0.ringmodulator.freq.ramp 200 2000
;
#X text 1493 485 Rampa lineal de frequencia de modulación a 200Hz
en 2 seg., f 40;
#X text 1556 815 Rampa lineal de reverb (wet: 0.7 \, roomsize: 0.5
\, damping: 0.1) en 4 seg., f 45;
#X text 1421 863 Activar Freeze en Reverb, f 27;
#X text 1428 891 Desactivar Freeze en Reverb, f 30;
#X text 1515 630 Rampa lineal de delay (delaytime: 200ms \, feedback
time: 7000ms) en 1 seg., f 41;
#X msg 1169 987 audioprocessing-0.reset bang \;;
#X msg 59 900 spatializer-0.panning.ramp -1 3000;
#X msg 93 937 spatializer-0.panning.ramp 1 5000;
#X msg 122 975 spatializer-0.panning.ramp 0 1000;
#X text 369 976 Paneo lineal a la central en 1 segundo;
#X text 342 936 Paneo lineal a la derecha en 5 segundos;
#X text 313 903 Paneo lineal a la izquierda en 3 segundos;
#X msg 211 1066 spatializer-0.reset bang;
#X msg 280 482 sampleplayer-0.volume.ramp 0.5 4000;
#X msg 142 296 sampleplayer-0.play 1 0.2;
#X msg 166 325 sampleplayer-0.play 0 0.6;
#X text 485 358 Inicia reproducción sin loop desde la POSICION 0.2
(relativa) con RATE 1.4 y VOLUMEN 0.8, f 76;
#X msg 197 366 sampleplayer-0.playoneshot 0.2 1.4 0.8;
#X text 355 294 Inicia reproducción desde la POSICION 0.2 (relativa)
con loop activado, f 76;
#X text 367 320 Inicia reproducción desde la POSICION 0.6 (relativa)
con loop activado, f 76;
#X msg 317 553 sampleplayer-0.volume.rampfromto 0.1 0.9 1000 \;;
#X msg 164 1012 spatializer-0.panning.rampfromto -1 1 4000;
#X msg 394 708 sampleplayer-0.rate.rampfromto 0.2 1 3000;
#X text 473 1011 Paneo lineal de izquierda a derecha en 4 segundos
;
#X text 40 866 EJEMPLOS DE ESPACIALIZADOR STEREO EN CANAL 0;
#X text 545 482 Rampa lineal de volumen a 0.5 en 4 segundos (4000 milisegundos)
, f 64;
#X text 566 511 Rampa lineal de volumen a 0.5 en 1.5 segundos, f 61
;
#X text 663 556 Rampa lineal de volumen de 0.1 a 0.9 en 1 segundo,
f 61;
#X text 617 603 Rampa lineal de RATE a -1 (reverse) en 4 segundos;
#X text 632 633 Rampa lineal de RATE a 2 (2x) en 2 segundos;
#X text 649 669 Rampa lineal de RATE a 1 (normal) en 3 segundos;
#X text 703 704 Rampa lineal de RATE de 0.2 a 1 en 3 segundos;
#X msg 420 746 sampleplayer-0.values.ramp 0.5 1 5000;
#X text 702 737 Rampa lineal de RATE y VOLUMEN a 0.5 y 1 respectivamente
en 5 segundos, f 41;
#X msg 1317 1031 audioprocessing-0.delay.values.ramp 2000 8000 5000
\;;
#X text 1170 959 MODULO:;
#X text 396 787 MODULO:;
#X text 974 1225 Resetea todos los módulos del patch servidor!;
#X text 970 1193 Resetea los módulo con instancia 0 del patch servidor
;
#X text 185 1041 MODULO:;
#X text 1360 56 Inicia grabacion de salida principal sin sobreescritura
en archivosalida_0.wav \, archivosalida_1.wav \, etc.;
#X text 1360 105 Inicia grabacion de salida principal con sobreescritura
en archivosalida.wav en;
#X msg 1009 68 mainoutput.recording.start 0 archivosalida;
#X msg 1012 108 mainoutput.recording.start 1 archivosalida;
#X msg 1091 396 audioprocessing-0.pitchshifter.transp.rampfromto -1
12 2000;
#X text 1522 389 Rampa lineal de transposición de -1 a 12 semitonos
de transposiciön en 3 seg.;
#X text 1449 353 Rampa lineal de transposición a 12 semitonos de transposiciön
en 2 seg., f 48;
#X msg 1076 360 audioprocessing-0.pitchshifter.transp.ramp 12 2000
;
#X text 1457 743 Resetea los valores del delay;
#X text 1423 430 Reseta los valores del pitchshifter;
#X text 1486 573 Resetea los valores del ringmodulator;
#X text 1397 985 Resetea los valores del modulo de procesamiento de
audio;
#X text 1431 929 Resetea los valores del reverb;
#X text 614 819 Resetea los valores de volumen \, rate y posicion de
reproduccion;
#X text 400 1067 Resetea los valores del espacializador;
#X msg 1128 538 audioprocessing-0.ringmodulator.freq.rampfromto 50
1000 2000;
#X text 1562 530 Rampa lineal de frequencia de modulación de 50Hz
a 1000Hz en 2 seg., f 40;
#X msg 738 1196 main.instance-0.reset bang;
#X msg 819 1227 main.reset bang;
#X text 680 1159 MENSAJES DE CONTROL EN SERVIDOR;
#X text 1053 293 MENSAJES DE PROCESAMIENTO DE AUDIO EN CANAL/INSTANCIA
0;
#X text 1004 32 MENSAJES DE GRABACION DE ARCHIVO DE SALIDA;
#X text 62 18 MENSAJES DE SELECCION Y CARGA DE SAMPLES EN CANAL/INSTANCIA
0, f 62;
#X text 39 196 MENSAJES REPRODUCCION DE SAMPLE EN CANAL/INSTANCIA 0
;
#X msg 1155 673 audioprocessing-0.delay.time.ramp 200 2000;
#X msg 1143 636 audioprocessing-0.delay.values.ramp 200 7000 1000;
#X msg 1166 705 audioprocessing-0.delay.time.rampfromto 200 500 100
;
#X obj 115 664 s messages-0;
#X obj 79 137 s messages-0;
#X obj 952 205 s messages-0;
#X obj 1078 1068 s messages-0;
#X obj 75 1086 s messages-0;
#X obj 707 1268 s messages-0;
#X connect 1 0 99 0;
#X connect 2 0 98 0;
#X connect 3 0 98 0;
#X connect 4 0 98 0;
#X connect 5 0 98 0;
#X connect 7 0 98 0;
#X connect 8 0 98 0;
#X connect 10 0 98 0;
#X connect 11 0 98 0;
#X connect 15 0 98 0;
#X connect 16 0 99 0;
#X connect 17 0 100 0;
#X connect 19 0 101 0;
#X connect 20 0 101 0;
#X connect 21 0 101 0;
#X connect 22 0 101 0;
#X connect 27 0 101 0;
#X connect 28 0 101 0;
#X connect 29 0 101 0;
#X connect 30 0 101 0;
#X connect 36 0 101 0;
#X connect 37 0 102 0;
#X connect 38 0 102 0;
#X connect 39 0 102 0;
#X connect 43 0 102 0;
#X connect 44 0 98 0;
#X connect 45 0 98 0;
#X connect 46 0 98 0;
#X connect 48 0 98 0;
#X connect 51 0 98 0;
#X connect 52 0 102 0;
#X connect 53 0 98 0;
#X connect 63 0 98 0;
#X connect 65 0 101 0;
#X connect 73 0 100 0;
#X connect 74 0 100 0;
#X connect 75 0 101 0;
#X connect 78 0 101 0;
#X connect 86 0 101 0;
#X connect 88 0 103 0;
#X connect 89 0 103 0;
#X connect 95 0 101 0;
#X connect 96 0 101 0;
#X connect 97 0 101 0;
#X restore 531 44 pd glosario1;
#X text 658 276 <-- Ejemplo de automatización;
#N canvas -8 -8 1858 1037 control 0;
#X text 422 235 Pausar reproducción;
#X msg 296 343 sampleplayer-0.volume.ramp 1 1500;
#X msg 348 442 sampleplayer-0.rate.ramp -1 4000;
#X msg 372 476 sampleplayer-0.rate.ramp -4 2000;
#X msg 385 512 sampleplayer-0.rate.ramp 1 3000;
#X msg 225 236 sampleplayer-0.pause bang;
#X msg 245 268 sampleplayer-0.stop bang;
#X text 429 270 Detener reproducción (Retorna a la posición 0);
#X msg 89 92 sampleplayer-0.play 0;
#X msg 62 56 sampleplayer-0.play 1;
#X text 275 91 Inicia reproducción con loop desactivado;
#X text 252 52 Inicia reproducción con loop activado \, dos mensajes
seguidos reinicia a la posición inicial, f 78;
#X msg 323 664 sampleplayer-0.reset bang;
#X msg 1090 258 audioprocessing-0.pitchshifter.reset bang \;;
#X msg 1161 572 audioprocessing-0.delay.reset bang \;;
#X msg 1146 757 audioprocessing-0.reverb.reset bang \;;
#X msg 1123 403 audioprocessing-0.ringmodulator.reset bang \;;
#X text 1068 161 PITCHSHIFTER, f 13;
#X text 1100 311 RING MODULATOR;
#X text 1143 628 REVERB;
#X text 1127 438 DELAY;
#X msg 1147 721 audioprocessing-0.reverb.freeze 0 \;;
#X msg 1144 693 audioprocessing-0.reverb.freeze 1 \;;
#X msg 1146 654 audioprocessing-0.reverb.values.ramp 0.7 0.5 0.1 4000
\;;
#X msg 1107 334 audioprocessing-0.ringmodulator.freq.ramp 200 2000
;
#X text 1481 314 Rampa lineal de frequencia de modulación a 200Hz
en 2 seg., f 40;
#X text 1544 644 Rampa lineal de reverb (wet: 0.7 \, roomsize: 0.5
\, damping: 0.1) en 4 seg., f 45;
#X text 1409 692 Activar Freeze en Reverb, f 27;
#X text 1416 720 Desactivar Freeze en Reverb, f 30;
#X text 1503 459 Rampa lineal de delay (delaytime: 200ms \, feedback
time: 7000ms) en 1 seg., f 41;
#X msg 1157 816 audioprocessing-0.reset bang \;;
#X msg 65 835 spatializer-0.panning.ramp -1 3000;
#X msg 99 872 spatializer-0.panning.ramp 1 5000;
#X msg 128 910 spatializer-0.panning.ramp 0 1000;
#X text 375 911 Paneo lineal a la central en 1 segundo;
#X text 348 871 Paneo lineal a la derecha en 5 segundos;
#X text 319 838 Paneo lineal a la izquierda en 3 segundos;
#X msg 217 1001 spatializer-0.reset bang;
#X msg 268 311 sampleplayer-0.volume.ramp 0.5 4000;
#X text 473 187 Inicia reproducción sin loop desde la POSICION 0.2
(relativa) con RATE 1.4 y VOLUMEN 0.8, f 76;
#X msg 185 195 sampleplayer-0.playoneshot 0.2 1.4 0.8;
#X text 355 149 Inicia reproducción desde la POSICION 0.6 (relativa)
con loop activado, f 76;
#X msg 305 382 sampleplayer-0.volume.rampfromto 0.1 0.9 1000 \;;
#X msg 170 947 spatializer-0.panning.rampfromto -1 1 4000;
#X msg 391 550 sampleplayer-0.rate.rampfromto 0.2 1 3000;
#X text 479 946 Paneo lineal de izquierda a derecha en 4 segundos;
#X text 46 801 EJEMPLOS DE ESPACIALIZADOR STEREO EN CANAL 0;
#X text 533 311 Rampa lineal de volumen a 0.5 en 4 segundos (4000 milisegundos)
, f 64;
#X text 554 340 Rampa lineal de volumen a 0.5 en 1.5 segundos, f 61
;
#X text 651 385 Rampa lineal de volumen de 0.1 a 0.9 en 1 segundo,
f 61;
#X text 614 445 Rampa lineal de RATE a -1 (reverse) en 4 segundos;
#X text 629 475 Rampa lineal de RATE a 2 (2x) en 2 segundos;
#X text 646 511 Rampa lineal de RATE a 1 (normal) en 3 segundos;
#X text 700 546 Rampa lineal de RATE de 0.2 a 1 en 3 segundos;
#X msg 417 588 sampleplayer-0.values.ramp 0.5 1 5000;
#X text 699 579 Rampa lineal de RATE y VOLUMEN a 0.5 y 1 respectivamente
en 5 segundos, f 41;
#X msg 1305 859 audioprocessing-0.delay.values.ramp 2000 8000 5000
\;;
#X text 1158 788 MODULO:;
#X text 321 633 MODULO:;
#X text 191 976 MODULO:;
#X msg 1079 225 audioprocessing-0.pitchshifter.transp.rampfromto -1
12 2000;
#X text 1510 218 Rampa lineal de transposición de -1 a 12 semitonos
de transposiciön en 3 seg.;
#X text 1437 182 Rampa lineal de transposición a 12 semitonos de transposiciön
en 2 seg., f 48;
#X msg 1064 189 audioprocessing-0.pitchshifter.transp.ramp 12 2000
;
#X text 1445 572 Resetea los valores del delay;
#X text 1411 259 Reseta los valores del pitchshifter;
#X text 1474 402 Resetea los valores del ringmodulator;
#X text 1385 814 Resetea los valores del modulo de procesamiento de
audio;
#X text 1419 758 Resetea los valores del reverb;
#X text 406 1002 Resetea los valores del espacializador;
#X msg 1116 367 audioprocessing-0.ringmodulator.freq.rampfromto 50
1000 2000;
#X text 1550 359 Rampa lineal de frequencia de modulación de 50Hz
a 1000Hz en 2 seg., f 40;
#X text 1041 122 MENSAJES DE PROCESAMIENTO DE AUDIO EN CANAL/INSTANCIA
0;
#X text 27 25 MENSAJES REPRODUCCION DE SAMPLE EN CANAL/INSTANCIA 0
;
#X msg 1143 502 audioprocessing-0.delay.time.ramp 200 2000;
#X msg 1131 465 audioprocessing-0.delay.values.ramp 200 7000 1000;
#X msg 1154 534 audioprocessing-0.delay.time.rampfromto 200 500 100
;
#X obj 103 493 s messages-0;
#X obj 1066 897 s messages-0;
#X obj 81 1021 s messages-0;
#X msg 130 125 sampleplayer-0.play 0.2 0;
#X msg 154 154 sampleplayer-0.play 0.6 1;
#X text 343 123 Inicia reproducción desde la POSICION 0.2 (relativa)
con loop desactivado, f 76;
#X text 517 664 Resetea los valores de todo el modulo: volumen \, rate
y posicion de reproduccio y array;
#X msg 1217 911 audioprocessing-0.wet.ramp 0.5 2000 \;;
#X msg 1223 944 audioprocessing-0.wet.rampfrom 0 1 2000 \;;
#X connect 1 0 77 0;
#X connect 2 0 77 0;
#X connect 3 0 77 0;
#X connect 4 0 77 0;
#X connect 5 0 77 0;
#X connect 6 0 77 0;
#X connect 8 0 77 0;
#X connect 9 0 77 0;
#X connect 12 0 77 0;
#X connect 13 0 78 0;
#X connect 14 0 78 0;
#X connect 15 0 78 0;
#X connect 16 0 78 0;
#X connect 21 0 78 0;
#X connect 22 0 78 0;
#X connect 23 0 78 0;
#X connect 24 0 78 0;
#X connect 30 0 78 0;
#X connect 31 0 79 0;
#X connect 32 0 79 0;
#X connect 33 0 79 0;
#X connect 37 0 79 0;
#X connect 38 0 77 0;
#X connect 40 0 77 0;
#X connect 42 0 77 0;
#X connect 43 0 79 0;
#X connect 44 0 77 0;
#X connect 54 0 77 0;
#X connect 56 0 78 0;
#X connect 60 0 78 0;
#X connect 63 0 78 0;
#X connect 70 0 78 0;
#X connect 74 0 78 0;
#X connect 75 0 78 0;
#X connect 76 0 78 0;
#X connect 80 0 77 0;
#X connect 81 0 77 0;
#X connect 84 0 78 0;
#X connect 85 0 78 0;
#X restore 104 105 pd control audio;
#N canvas -8 -8 1858 1037 control 0;
#X msg 131 154 mainoutput.recording.stop bang;
#X text 369 156 detiene grabacion de salida principal;
#X text 331 366 Resetea todos los módulos del patch servidor!;
#X text 327 334 Resetea los módulo con instancia 0 del patch servidor
;
#X text 477 59 Inicia grabacion de salida principal sin sobreescritura
en archivosalida_0.wav \, archivosalida_1.wav \, etc.;
#X text 477 108 Inicia grabacion de salida principal con sobreescritura
en archivosalida.wav en;
#X msg 126 71 mainoutput.recording.start 0 archivosalida;
#X msg 129 111 mainoutput.recording.start 1 archivosalida;
#X msg 121 339 main.instance-0.reset bang;
#X msg 202 370 main.reset bang;
#X text 63 302 MENSAJES DE CONTROL EN SERVIDOR;
#X text 121 35 MENSAJES DE GRABACION DE ARCHIVO DE SALIDA;
#X obj 69 208 s messages-0;
#X obj 90 411 s messages-0;
#X connect 0 0 12 0;
#X connect 6 0 12 0;
#X connect 7 0 12 0;
#X connect 8 0 13 0;
#X connect 9 0 13 0;
#X restore 98 144 pd control server;
#N canvas -8 -8 1858 1037 control 0;
#X msg 74 46 sampleselector-0.openfolder 0 samples3;
#X text 360 51 Abre la carpeta samples3 en la carpeta de índice 0
del canal;
#X text 351 79 Selecciona y carga el sample de la carpeta 0 y archivo
de índice 1, f 67;
#X msg 112 80 sampleselector-0.selectfile 0 2;
#X text 62 18 MENSAJES DE SELECCION Y CARGA DE SAMPLES EN CANAL/INSTANCIA
0, f 62;
#X obj 79 137 s messages-0;
#X connect 0 0 5 0;
#X connect 3 0 5 0;
#X restore 95 75 pd control archivos;
#X obj 88 303 r gui-messages-0;
#X connect 3 0 0 0;
#X connect 10 0 0 0;
