#N canvas -8 -8 1858 1037 12;
#X declare -path ./lib;
#X obj 17 379 sampleplayer-1 0;
#X obj 16 11 sampleselector 0;
#A saved  symbol symbol symbol symbol symbol symbol symbol;
#X obj 513 11 sampleselector 2;
#A saved  symbol symbol symbol symbol symbol symbol symbol;
#X obj 762 11 sampleselector 3;
#A saved  symbol symbol symbol symbol symbol symbol symbol;
#X obj 1011 11 sampleselector 4;
#A saved  symbol symbol symbol symbol symbol symbol symbol;
#X obj 16 710 audioprocessing-2 0;
#X obj 264 379 sampleplayer-1 1;
#X obj 513 380 sampleplayer-1 2;
#X obj 762 379 sampleplayer-1 3;
#X obj 1011 379 sampleplayer-1 4;
#X obj 264 710 audioprocessing-2 1;
#X obj 513 710 audioprocessing-2 2;
#X obj 762 710 audioprocessing-2 3;
#X obj 1011 710 audioprocessing-2 4;
#X obj 1286 284 mainoutput-2;
#N canvas -8 -8 1858 1037 audio 0;
#X obj 31 22 r~ s-sampleplayer-out0-0;
#X obj 266 23 r~ s-spatializer-out0-0;
#X obj 32 56 throw~ s-spatializer-in0-0;
#X obj 263 67 throw~ s-audioprocessing-in0-0;
#X obj 509 70 throw~ s-audioprocessing-in1-0;
#X obj 874 103 catch~ s-audioprocessing-out0;
#X obj 1089 102 catch~ s-audioprocessing-out1;
#X obj 874 129 throw~ s-mainoutput-in0;
#X obj 1089 128 throw~ s-mainoutput-in1;
#X obj 35 132 r~ s-sampleplayer-out0-1;
#X obj 36 166 throw~ s-spatializer-in0-1;
#X obj 42 246 r~ s-sampleplayer-out0-2;
#X obj 43 280 throw~ s-spatializer-in0-2;
#X obj 42 364 r~ s-sampleplayer-out0-3;
#X obj 43 398 throw~ s-spatializer-in0-3;
#X obj 47 474 r~ s-sampleplayer-out0-4;
#X obj 48 508 throw~ s-spatializer-in0-4;
#X obj 47 85 throw~ s-spatializer-in1-0;
#X obj 495 21 r~ s-spatializer-out1-0;
#X obj 277 137 r~ s-spatializer-out0-1;
#X obj 507 135 r~ s-spatializer-out1-1;
#X obj 274 181 throw~ s-audioprocessing-in0-1;
#X obj 520 184 throw~ s-audioprocessing-in1-1;
#X obj 510 252 r~ s-spatializer-out1-2;
#X obj 281 254 r~ s-spatializer-out0-2;
#X obj 278 298 throw~ s-audioprocessing-in0-2;
#X obj 524 301 throw~ s-audioprocessing-in1-2;
#X obj 518 376 r~ s-spatializer-out1-3;
#X obj 290 378 r~ s-spatializer-out0-3;
#X obj 287 422 throw~ s-audioprocessing-in0-3;
#X obj 533 425 throw~ s-audioprocessing-in1-3;
#X obj 530 473 r~ s-spatializer-out1-4;
#X obj 544 521 throw~ s-audioprocessing-in1-4;
#X obj 302 475 r~ s-spatializer-out0-4;
#X obj 298 518 throw~ s-audioprocessing-in0-4;
#X obj 51 195 throw~ s-spatializer-in1-1;
#X obj 57 309 throw~ s-spatializer-in1-2;
#X obj 58 427 throw~ s-spatializer-in1-3;
#X obj 63 537 throw~ s-spatializer-in1-4;
#X connect 0 0 17 0;
#X connect 0 0 2 0;
#X connect 1 0 3 0;
#X connect 5 0 7 0;
#X connect 6 0 8 0;
#X connect 9 0 10 0;
#X connect 9 0 35 0;
#X connect 11 0 12 0;
#X connect 11 0 36 0;
#X connect 13 0 14 0;
#X connect 13 0 37 0;
#X connect 15 0 16 0;
#X connect 15 0 38 0;
#X connect 18 0 4 0;
#X connect 19 0 21 0;
#X connect 20 0 22 0;
#X connect 23 0 26 0;
#X connect 24 0 25 0;
#X connect 27 0 30 0;
#X connect 28 0 29 0;
#X connect 31 0 32 0;
#X connect 33 0 34 0;
#X restore 1283 215 pd audio;
#X obj 264 632 spatializer-2 1;
#X obj 513 632 spatializer-2 2;
#X obj 762 632 spatializer-2 3;
#X obj 1011 632 spatializer-2 4;
#X obj 16 632 spatializer-2 0;
#N canvas 571 303 450 300 declare 0;
#X obj 46 16 declare -path ./lib;
#X restore 1283 159 pd declare;
#N canvas -8 -8 1858 1037 remoteinput 1;
#X obj 104 528 s;
#X obj 104 437 list split 1;
#X obj 104 465 t b s;
#X obj 104 493 list store;
#X obj 72 317 t a a;
#X obj 474 529 s;
#X obj 474 441 list split 1;
#X obj 474 469 t b s;
#X obj 474 497 list store;
#X obj 442 321 t a a;
#X obj 212 820 s;
#X obj 211 732 list split 1;
#X obj 211 760 t b s;
#X obj 211 788 list store;
#X obj 179 630 t a a;
#X obj 278 536 s;
#X obj 278 446 list split 1;
#X obj 278 474 t b s;
#X obj 278 502 list store;
#X obj 246 326 t a a;
#X obj 411 821 s;
#X obj 411 733 list split 1;
#X obj 411 761 t b s;
#X obj 411 789 list store;
#X obj 378 632 t a a;
#X obj 72 78 netinput;
#A saved 13000;
#X obj 72 371 list trim;
#X obj 72 412 print server;
#X obj 179 684 list trim;
#X obj 179 707 print server;
#X obj 246 380 list trim;
#X obj 246 421 print server;
#X obj 378 686 list trim;
#X obj 378 709 print server;
#X obj 442 375 list trim;
#X obj 442 416 print server;
#X obj 616 826 s;
#X obj 616 738 list split 1;
#X obj 616 766 t b s;
#X obj 616 794 list store;
#X obj 584 636 t a a;
#X obj 584 690 list trim;
#X obj 584 713 print server;
#X obj 666 529 s;
#X obj 666 441 list split 1;
#X obj 666 469 t b s;
#X obj 666 497 list store;
#X obj 634 321 t a a;
#X obj 634 375 list trim;
#X obj 634 416 print server;
#X obj 818 816 s;
#X obj 818 728 list split 1;
#X obj 818 756 t b s;
#X obj 818 784 list store;
#X obj 786 626 t a a;
#X obj 786 680 list trim;
#X obj 786 703 print server;
#X obj 873 529 s;
#X obj 873 441 list split 1;
#X obj 873 469 t b s;
#X obj 873 497 list store;
#X obj 841 321 t a a;
#X obj 841 375 list trim;
#X obj 841 416 print server;
#X obj 997 819 s;
#X obj 997 731 list split 1;
#X obj 997 759 t b s;
#X obj 997 787 list store;
#X obj 965 629 t a a;
#X obj 965 683 list trim;
#X obj 965 706 print server;
#X obj 72 348 list prepend user0 ->;
#X obj 179 660 list prepend user1 ->;
#X obj 247 357 list prepend user2 ->;
#X obj 378 663 list prepend user3 ->;
#X obj 442 352 list prepend user4 ->;
#X obj 584 667 list prepend user5 ->;
#X obj 634 351 list prepend user6 ->;
#X obj 787 656 list prepend user7 ->;
#X obj 841 351 list prepend user8 ->;
#X obj 965 660 list prepend user9 ->;
#X obj 72 219 route user0 user1 user2 user3 user4 user5 user6 user7
user8 user9, f 135;
#X obj 378 587 debounce 85;
#X obj 584 591 debounce 85;
#X obj 786 583 debounce 85;
#X obj 965 584 debounce 85;
#X obj 841 276 debounce 85;
#X obj 634 276 debounce 85;
#X obj 443 276 debounce 85;
#X obj 246 281 debounce 85;
#X obj 72 272 debounce 85;
#X obj 179 585 debounce 85;
#X connect 1 0 2 0;
#X connect 1 1 3 1;
#X connect 2 0 3 0;
#X connect 2 1 0 1;
#X connect 3 0 0 0;
#X connect 4 0 71 0;
#X connect 4 1 1 0;
#X connect 6 0 7 0;
#X connect 6 1 8 1;
#X connect 7 0 8 0;
#X connect 7 1 5 1;
#X connect 8 0 5 0;
#X connect 9 0 75 0;
#X connect 9 1 6 0;
#X connect 11 0 12 0;
#X connect 11 1 13 1;
#X connect 12 0 13 0;
#X connect 12 1 10 1;
#X connect 13 0 10 0;
#X connect 14 0 72 0;
#X connect 14 1 11 0;
#X connect 16 0 17 0;
#X connect 16 1 18 1;
#X connect 17 0 18 0;
#X connect 17 1 15 1;
#X connect 18 0 15 0;
#X connect 19 0 73 0;
#X connect 19 1 16 0;
#X connect 21 0 22 0;
#X connect 21 1 23 1;
#X connect 22 0 23 0;
#X connect 22 1 20 1;
#X connect 23 0 20 0;
#X connect 24 0 74 0;
#X connect 24 1 21 0;
#X connect 25 0 81 0;
#X connect 26 0 27 0;
#X connect 28 0 29 0;
#X connect 30 0 31 0;
#X connect 32 0 33 0;
#X connect 34 0 35 0;
#X connect 37 0 38 0;
#X connect 37 1 39 1;
#X connect 38 0 39 0;
#X connect 38 1 36 1;
#X connect 39 0 36 0;
#X connect 40 0 76 0;
#X connect 40 1 37 0;
#X connect 41 0 42 0;
#X connect 44 0 45 0;
#X connect 44 1 46 1;
#X connect 45 0 46 0;
#X connect 45 1 43 1;
#X connect 46 0 43 0;
#X connect 47 0 77 0;
#X connect 47 1 44 0;
#X connect 48 0 49 0;
#X connect 51 0 52 0;
#X connect 51 1 53 1;
#X connect 52 0 53 0;
#X connect 52 1 50 1;
#X connect 53 0 50 0;
#X connect 54 0 78 0;
#X connect 54 1 51 0;
#X connect 55 0 56 0;
#X connect 58 0 59 0;
#X connect 58 1 60 1;
#X connect 59 0 60 0;
#X connect 59 1 57 1;
#X connect 60 0 57 0;
#X connect 61 0 79 0;
#X connect 61 1 58 0;
#X connect 62 0 63 0;
#X connect 65 0 66 0;
#X connect 65 1 67 1;
#X connect 66 0 67 0;
#X connect 66 1 64 1;
#X connect 67 0 64 0;
#X connect 68 0 80 0;
#X connect 68 1 65 0;
#X connect 69 0 70 0;
#X connect 71 0 26 0;
#X connect 72 0 28 0;
#X connect 73 0 30 0;
#X connect 74 0 32 0;
#X connect 75 0 34 0;
#X connect 76 0 41 0;
#X connect 77 0 48 0;
#X connect 78 0 55 0;
#X connect 79 0 62 0;
#X connect 80 0 69 0;
#X connect 81 0 90 0;
#X connect 81 1 91 0;
#X connect 81 2 89 0;
#X connect 81 3 82 0;
#X connect 81 4 88 0;
#X connect 81 5 83 0;
#X connect 81 6 87 0;
#X connect 81 7 84 0;
#X connect 81 8 86 0;
#X connect 81 9 85 0;
#X connect 82 0 24 0;
#X connect 83 0 40 0;
#X connect 84 0 54 0;
#X connect 85 0 68 0;
#X connect 86 0 61 0;
#X connect 87 0 47 0;
#X connect 88 0 9 0;
#X connect 89 0 19 0;
#X connect 90 0 4 0;
#X connect 91 0 14 0;
#X coords 0 -1 1 1 200 130 1 50 50;
#X restore 1276 12 pd remoteinput;
#N canvas 466 127 1858 1037 methods 0;
#X obj 47 46 loadbang;
#X obj 453 124 0;
#X obj 486 159 1;
#X obj 519 197 2;
#X obj 550 232 3;
#X obj 585 267 4;
#X obj 453 89 t b;
#X obj 486 134 t b;
#X obj 519 171 t b;
#X obj 550 204 t b;
#X obj 585 240 t b;
#X msg 72 497 \; mainoutput.recording.stop bang \; mainoutput.reset
bang \;;
#X obj 72 209 t b b;
#X obj 453 63 r main.instance-0.reset;
#X msg 47 81 \; main.reset bang \;;
#X obj 72 158 r main.reset;
#X obj 519 145 r main.instance-2.reset;
#X obj 550 178 r main.instance-3.reset;
#X obj 585 214 r main.instance-4.reset;
#X msg 104 370 \; main.instance-0.reset bang \; main.instance-1.reset
bang \; main.instance-2.reset bang \; main.instance-3.reset bang \;
main.instance-4.reset bang \;;
#X obj 486 108 r main.instance-1.reset;
#X msg 453 326 \; sampleselector-\$1.reset bang \; sampleplayer-\$1.reset
bang \; audioprocessing-\$1.reset bang \; spatializer-\$1.reset bang
\;;
#X connect 0 0 14 0;
#X connect 1 0 21 0;
#X connect 2 0 21 0;
#X connect 3 0 21 0;
#X connect 4 0 21 0;
#X connect 5 0 21 0;
#X connect 6 0 1 0;
#X connect 7 0 2 0;
#X connect 8 0 3 0;
#X connect 9 0 4 0;
#X connect 10 0 5 0;
#X connect 12 0 11 0;
#X connect 12 1 19 0;
#X connect 13 0 6 0;
#X connect 15 0 12 0;
#X connect 16 0 8 0;
#X connect 17 0 9 0;
#X connect 18 0 10 0;
#X connect 20 0 7 0;
#X restore 1283 187 pd methods;
#X obj 264 11 sampleselector 1;
#A saved  symbol symbol symbol symbol symbol symbol symbol;
#X msg 1319 690 \; main.reset bang;
#X obj 1484 717 tgl 15 0 empty empty empty 17 7 0 10 -262144 -1 -1
0 1;
#X obj 1481 890 s sampleplayer-0.play;
#X obj 1481 805 / 100;
#X floatatom 1481 831 5 0 0 0 - - -;
#X msg 1447 537 \; audioprocessing-0.wet.rampfromto 1 0 1500;
#X msg 1440 614 \; audioprocessing-0.wet.ramp 1 6800;
#X msg 1389 970 \; sampleplayer-1.clear bang;
#X obj 1481 779 random 50;
#X obj 1481 753 metro 100;
#X obj 1538 59 bng 15 250 50 0 empty empty empty 17 7 0 10 -262144
-1 -1;
#X obj 1538 79 t b b;
#X obj 1502 270 bng 15 250 50 0 empty empty empty 17 7 0 10 -262144
-1 -1;
#X obj 1502 290 t b b;
#X msg 1508 445 \; sampleplayer-0.play 0 1;
#X msg 1542 370 \; sampleselector-0.selectfile 6 1;
#X msg 1544 234 \; sampleplayer-0.play 0 0;
#X msg 1578 159 \; sampleselector-0.selectfile 5 0;
#X obj 1496 135 del 95;
#X obj 1503 316 del 95;
#X connect 26 0 34 0;
#X connect 28 0 29 0;
#X connect 29 0 27 0;
#X connect 33 0 28 0;
#X connect 34 0 33 0;
#X connect 35 0 36 0;
#X connect 36 0 43 0;
#X connect 36 1 42 0;
#X connect 37 0 38 0;
#X connect 38 0 44 0;
#X connect 38 1 40 0;
#X connect 43 0 41 0;
#X connect 44 0 39 0;
