#N struct 1085-g2 float x float y array tab 1085-g2b;
#N struct 1085-g2b float y;
#N canvas -8 -8 1858 1037 12;
#X declare -path ./lib;
#X obj 29 383 sampleplayer-1 0;
#X obj 29 10 sampleselector 0;
#A saved  symbol symbol symbol symbol symbol symbol symbol;
#X obj 267 10 sampleselector 1;
#A saved  symbol symbol symbol symbol symbol symbol symbol;
#X obj 505 10 sampleselector 2;
#A saved  symbol symbol symbol symbol symbol symbol symbol;
#X obj 743 10 sampleselector 3;
#A saved  symbol symbol symbol symbol symbol symbol symbol;
#X obj 981 10 sampleselector 4;
#A saved  symbol symbol symbol symbol symbol symbol symbol;
#X obj 29 718 audioprocessing-2 0;
#X obj 267 383 sampleplayer-1 1;
#X obj 505 383 sampleplayer-1 2;
#X obj 743 383 sampleplayer-1 3;
#X obj 981 383 sampleplayer-1 4;
#X obj 267 718 audioprocessing-2 1;
#X obj 505 718 audioprocessing-2 2;
#X obj 743 718 audioprocessing-2 3;
#X obj 981 718 audioprocessing-2 4;
#X obj 1339 336 mainoutput-2;
#N canvas -8 -8 1858 1037 audio 0;
#X obj 31 22 r~ s-sampleplayer-out0-0;
#X obj 266 23 r~ s-spatializer-out0-0;
#X obj 32 56 throw~ s-spatializer-in0-0;
#X obj 263 67 throw~ s-audioprocessing-in0-0;
#X obj 509 70 throw~ s-audioprocessing-in1-0;
#X obj 874 103 catch~ s-audioprocessing-out0;
#X obj 1089 102 catch~ s-audioprocessing-out1;
#X obj 874 129 throw~ s-mainoutput-in0;
#X obj 1089 128 throw~ s-mainoutput-in1;
#X obj 35 132 r~ s-sampleplayer-out0-1;
#X obj 36 166 throw~ s-spatializer-in0-1;
#X obj 42 246 r~ s-sampleplayer-out0-2;
#X obj 43 280 throw~ s-spatializer-in0-2;
#X obj 42 364 r~ s-sampleplayer-out0-3;
#X obj 43 398 throw~ s-spatializer-in0-3;
#X obj 47 474 r~ s-sampleplayer-out0-4;
#X obj 48 508 throw~ s-spatializer-in0-4;
#X obj 47 85 throw~ s-spatializer-in1-0;
#X obj 495 21 r~ s-spatializer-out1-0;
#X obj 277 137 r~ s-spatializer-out0-1;
#X obj 507 135 r~ s-spatializer-out1-1;
#X obj 274 181 throw~ s-audioprocessing-in0-1;
#X obj 520 184 throw~ s-audioprocessing-in1-1;
#X obj 510 252 r~ s-spatializer-out1-2;
#X obj 281 254 r~ s-spatializer-out0-2;
#X obj 278 298 throw~ s-audioprocessing-in0-2;
#X obj 524 301 throw~ s-audioprocessing-in1-2;
#X obj 518 376 r~ s-spatializer-out1-3;
#X obj 290 378 r~ s-spatializer-out0-3;
#X obj 287 422 throw~ s-audioprocessing-in0-3;
#X obj 533 425 throw~ s-audioprocessing-in1-3;
#X obj 530 473 r~ s-spatializer-out1-4;
#X obj 544 521 throw~ s-audioprocessing-in1-4;
#X obj 302 475 r~ s-spatializer-out0-4;
#X obj 298 518 throw~ s-audioprocessing-in0-4;
#X obj 51 195 throw~ s-spatializer-in1-1;
#X obj 57 309 throw~ s-spatializer-in1-2;
#X obj 58 427 throw~ s-spatializer-in1-3;
#X obj 63 537 throw~ s-spatializer-in1-4;
#X connect 0 0 17 0;
#X connect 0 0 2 0;
#X connect 1 0 3 0;
#X connect 5 0 7 0;
#X connect 6 0 8 0;
#X connect 9 0 10 0;
#X connect 9 0 35 0;
#X connect 11 0 12 0;
#X connect 11 0 36 0;
#X connect 13 0 14 0;
#X connect 13 0 37 0;
#X connect 15 0 16 0;
#X connect 15 0 38 0;
#X connect 18 0 4 0;
#X connect 19 0 21 0;
#X connect 20 0 22 0;
#X connect 23 0 26 0;
#X connect 24 0 25 0;
#X connect 27 0 30 0;
#X connect 28 0 29 0;
#X connect 31 0 32 0;
#X connect 33 0 34 0;
#X restore 1320 241 pd audio;
#N canvas -8 -8 1858 1037 remote 0;
#X obj 96 567 s;
#X obj 96 476 list split 1;
#X obj 96 504 t b s;
#X obj 96 532 list store;
#X obj 64 374 t a a;
#X obj 746 564 s;
#X obj 746 476 list split 1;
#X obj 746 504 t b s;
#X obj 746 532 list store;
#X obj 714 374 t a a;
#X obj 256 564 s;
#X obj 255 476 list split 1;
#X obj 255 504 t b s;
#X obj 255 532 list store;
#X obj 223 374 t a a;
#X obj 416 564 s;
#X obj 415 476 list split 1;
#X obj 415 504 t b s;
#X obj 415 532 list store;
#X obj 383 374 t a a;
#X obj 576 563 s;
#X obj 576 475 list split 1;
#X obj 576 503 t b s;
#X obj 576 531 list store;
#X obj 543 374 t a a;
#X obj 64 78 netinput;
#A saved 13000;
#X obj 64 428 list trim;
#X obj 64 451 print server;
#X obj 64 405 list prepend jorge ->;
#X obj 223 405 list prepend nacho ->;
#X obj 223 428 list trim;
#X obj 223 451 print server;
#X obj 383 428 list trim;
#X obj 383 451 print server;
#X obj 543 428 list trim;
#X obj 543 451 print server;
#X obj 714 428 list trim;
#X obj 714 451 print server;
#X obj 383 405 list prepend bryan ->;
#X obj 543 405 list prepend michael ->;
#X obj 714 405 list prepend saul ->;
#X obj 64 276 route jorge nacho bryan michael saul issias carlos renzo
alvaro diego, f 236;
#X obj 915 560 s;
#X obj 915 472 list split 1;
#X obj 915 500 t b s;
#X obj 915 528 list store;
#X obj 883 370 t a a;
#X obj 883 424 list trim;
#X obj 883 447 print server;
#X obj 883 401 list prepend issias ->;
#X obj 1087 562 s;
#X obj 1087 474 list split 1;
#X obj 1087 502 t b s;
#X obj 1087 530 list store;
#X obj 1055 372 t a a;
#X obj 1055 426 list trim;
#X obj 1055 449 print server;
#X obj 1055 403 list prepend carlos ->;
#X obj 1259 553 s;
#X obj 1259 465 list split 1;
#X obj 1259 493 t b s;
#X obj 1259 521 list store;
#X obj 1227 363 t a a;
#X obj 1227 417 list trim;
#X obj 1227 440 print server;
#X obj 1227 394 list prepend renzo ->;
#X obj 1427 551 s;
#X obj 1427 463 list split 1;
#X obj 1427 491 t b s;
#X obj 1427 519 list store;
#X obj 1395 361 t a a;
#X obj 1395 415 list trim;
#X obj 1395 438 print server;
#X obj 1395 392 list prepend alvaro ->;
#X obj 1596 548 s;
#X obj 1596 460 list split 1;
#X obj 1596 488 t b s;
#X obj 1596 516 list store;
#X obj 1564 358 t a a;
#X obj 1564 412 list trim;
#X obj 1564 435 print server;
#X obj 1564 389 list prepend diego ->;
#X obj 223 329 debounce 180;
#X obj 383 329 debounce 180;
#X obj 543 329 debounce 180;
#X obj 714 329 debounce 180;
#X obj 883 325 debounce 180;
#X obj 1055 327 debounce 180;
#X obj 1227 320 debounce 180;
#X obj 1395 316 debounce 180;
#X obj 1564 313 debounce 180;
#X obj 64 329 debounce 180;
#X connect 1 0 2 0;
#X connect 1 1 3 1;
#X connect 2 0 3 0;
#X connect 2 1 0 1;
#X connect 3 0 0 0;
#X connect 4 0 28 0;
#X connect 4 1 1 0;
#X connect 6 0 7 0;
#X connect 6 1 8 1;
#X connect 7 0 8 0;
#X connect 7 1 5 1;
#X connect 8 0 5 0;
#X connect 9 0 40 0;
#X connect 9 1 6 0;
#X connect 11 0 12 0;
#X connect 11 1 13 1;
#X connect 12 0 13 0;
#X connect 12 1 10 1;
#X connect 13 0 10 0;
#X connect 14 0 29 0;
#X connect 14 1 11 0;
#X connect 16 0 17 0;
#X connect 16 1 18 1;
#X connect 17 0 18 0;
#X connect 17 1 15 1;
#X connect 18 0 15 0;
#X connect 19 0 38 0;
#X connect 19 1 16 0;
#X connect 21 0 22 0;
#X connect 21 1 23 1;
#X connect 22 0 23 0;
#X connect 22 1 20 1;
#X connect 23 0 20 0;
#X connect 24 0 39 0;
#X connect 24 1 21 0;
#X connect 25 0 41 0;
#X connect 26 0 27 0;
#X connect 28 0 26 0;
#X connect 29 0 30 0;
#X connect 30 0 31 0;
#X connect 32 0 33 0;
#X connect 34 0 35 0;
#X connect 36 0 37 0;
#X connect 38 0 32 0;
#X connect 39 0 34 0;
#X connect 40 0 36 0;
#X connect 41 0 91 0;
#X connect 41 1 82 0;
#X connect 41 2 83 0;
#X connect 41 3 84 0;
#X connect 41 4 85 0;
#X connect 41 5 86 0;
#X connect 41 6 87 0;
#X connect 41 7 88 0;
#X connect 41 8 89 0;
#X connect 41 9 90 0;
#X connect 43 0 44 0;
#X connect 43 1 45 1;
#X connect 44 0 45 0;
#X connect 44 1 42 1;
#X connect 45 0 42 0;
#X connect 46 0 49 0;
#X connect 46 1 43 0;
#X connect 47 0 48 0;
#X connect 49 0 47 0;
#X connect 51 0 52 0;
#X connect 51 1 53 1;
#X connect 52 0 53 0;
#X connect 52 1 50 1;
#X connect 53 0 50 0;
#X connect 54 0 57 0;
#X connect 54 1 51 0;
#X connect 55 0 56 0;
#X connect 57 0 55 0;
#X connect 59 0 60 0;
#X connect 59 1 61 1;
#X connect 60 0 61 0;
#X connect 60 1 58 1;
#X connect 61 0 58 0;
#X connect 62 0 65 0;
#X connect 62 1 59 0;
#X connect 63 0 64 0;
#X connect 65 0 63 0;
#X connect 67 0 68 0;
#X connect 67 1 69 1;
#X connect 68 0 69 0;
#X connect 68 1 66 1;
#X connect 69 0 66 0;
#X connect 70 0 73 0;
#X connect 70 1 67 0;
#X connect 71 0 72 0;
#X connect 73 0 71 0;
#X connect 75 0 76 0;
#X connect 75 1 77 1;
#X connect 76 0 77 0;
#X connect 76 1 74 1;
#X connect 77 0 74 0;
#X connect 78 0 81 0;
#X connect 78 1 75 0;
#X connect 79 0 80 0;
#X connect 81 0 79 0;
#X connect 82 0 14 0;
#X connect 83 0 19 0;
#X connect 84 0 24 0;
#X connect 85 0 9 0;
#X connect 86 0 46 0;
#X connect 87 0 54 0;
#X connect 88 0 62 0;
#X connect 89 0 70 0;
#X connect 90 0 78 0;
#X connect 91 0 4 0;
#X coords 0 -1 1 1 200 130 1 50 50;
#X restore 1281 19 pd remote;
#X obj 267 631 spatializer-2 1;
#X obj 505 631 spatializer-2 2;
#X obj 743 631 spatializer-2 3;
#X obj 981 631 spatializer-2 4;
#X obj 29 630 spatializer-2 0;
#N canvas 571 303 450 300 declare 0;
#X obj 46 16 declare -path ./lib;
#X obj 53 56 loadbang;
#X msg 53 91 \; pd dsp 1 \;;
#X connect 1 0 2 0;
#X restore 1322 267 pd declare;
