#N canvas -8 -8 1858 1037 12;
#X declare -path ./lib;
#X obj 8 7 sampleselector 0;
#A saved  symbol symbol symbol symbol symbol symbol symbol;
#X obj 504 7 sampleselector 2;
#A saved  symbol symbol symbol symbol symbol symbol symbol;
#X obj 753 7 sampleselector 3;
#A saved  symbol symbol symbol symbol symbol symbol symbol;
#X obj 1002 7 sampleselector 4;
#A saved  symbol symbol symbol symbol symbol symbol symbol;
#X obj 8 729 audioprocessing-2 0;
#X obj 255 729 audioprocessing-2 1;
#X obj 504 729 audioprocessing-2 2;
#X obj 753 729 audioprocessing-2 3;
#X obj 1002 729 audioprocessing-2 4;
#X obj 1274 365 mainoutput-2;
#N canvas -8 -8 1858 1037 remoteinput 0;
#X obj 98 531 s;
#X obj 98 440 list split 1;
#X obj 98 468 t b s;
#X obj 98 496 list store;
#X obj 66 320 t a a;
#X obj 468 532 s;
#X obj 468 444 list split 1;
#X obj 468 472 t b s;
#X obj 468 500 list store;
#X obj 436 324 t a a;
#X obj 206 823 s;
#X obj 205 735 list split 1;
#X obj 205 763 t b s;
#X obj 205 791 list store;
#X obj 173 633 t a a;
#X obj 272 539 s;
#X obj 272 449 list split 1;
#X obj 272 477 t b s;
#X obj 272 505 list store;
#X obj 240 329 t a a;
#X obj 405 824 s;
#X obj 405 736 list split 1;
#X obj 405 764 t b s;
#X obj 405 792 list store;
#X obj 372 635 t a a;
#X obj 65 82 netinput;
#A saved 13000;
#X obj 66 374 list trim;
#X obj 66 415 print server;
#X obj 173 687 list trim;
#X obj 173 710 print server;
#X obj 240 383 list trim;
#X obj 240 424 print server;
#X obj 372 689 list trim;
#X obj 372 712 print server;
#X obj 436 378 list trim;
#X obj 436 419 print server;
#X obj 610 829 s;
#X obj 610 741 list split 1;
#X obj 610 769 t b s;
#X obj 610 797 list store;
#X obj 578 639 t a a;
#X obj 578 693 list trim;
#X obj 578 716 print server;
#X obj 660 532 s;
#X obj 660 444 list split 1;
#X obj 660 472 t b s;
#X obj 660 500 list store;
#X obj 628 324 t a a;
#X obj 628 378 list trim;
#X obj 628 419 print server;
#X obj 812 819 s;
#X obj 812 731 list split 1;
#X obj 812 759 t b s;
#X obj 812 787 list store;
#X obj 780 629 t a a;
#X obj 780 683 list trim;
#X obj 780 706 print server;
#X obj 867 532 s;
#X obj 867 444 list split 1;
#X obj 867 472 t b s;
#X obj 867 500 list store;
#X obj 835 324 t a a;
#X obj 835 378 list trim;
#X obj 835 419 print server;
#X obj 991 822 s;
#X obj 991 734 list split 1;
#X obj 991 762 t b s;
#X obj 991 790 list store;
#X obj 959 632 t a a;
#X obj 959 686 list trim;
#X obj 959 709 print server;
#X obj 66 351 list prepend user0 ->;
#X obj 173 663 list prepend user1 ->;
#X obj 241 360 list prepend user2 ->;
#X obj 372 666 list prepend user3 ->;
#X obj 436 355 list prepend user4 ->;
#X obj 578 670 list prepend user5 ->;
#X obj 628 354 list prepend user6 ->;
#X obj 781 659 list prepend user7 ->;
#X obj 835 354 list prepend user8 ->;
#X obj 959 663 list prepend user9 ->;
#X obj 372 590 debounce 85;
#X obj 578 594 debounce 85;
#X obj 780 586 debounce 85;
#X obj 959 587 debounce 85;
#X obj 835 279 debounce 85;
#X obj 628 279 debounce 85;
#X obj 437 279 debounce 85;
#X obj 240 284 debounce 85;
#X obj 66 275 debounce 85;
#X obj 173 588 debounce 85;
#X obj 65 175 tgl 25 0 empty empty Load_client 30 13 0 12 -262144 -1
-1 0 1;
#X obj 413 25 sel 1 0;
#X msg 436 89 pd~ stop;
#X obj 422 161 pd~ -ninsig 0 -noutsig 0;
#X obj 66 221 route user0 user1 user2 user3 user4 user5 user6 user7
user8 user9 jlquispec, f 135;
#X obj 1046 449 list split 1;
#X obj 1046 477 t b s;
#X obj 1046 505 list store;
#X obj 1014 329 t a a;
#X obj 1014 383 list trim;
#X obj 1014 424 print server;
#X obj 1014 359 list prepend jlquispec ->;
#X obj 1046 533 s;
#X floatatom 422 185 5 0 0 0 - - -;
#X text 29 19 Jorge Quispe (2020) https://github.com/jlquispec;
#X msg 413 60 pd~ start main_elunm-networking-client.pd;
#X connect 1 0 2 0;
#X connect 1 1 3 1;
#X connect 2 0 3 0;
#X connect 2 1 0 1;
#X connect 3 0 0 0;
#X connect 4 0 71 0;
#X connect 4 1 1 0;
#X connect 6 0 7 0;
#X connect 6 1 8 1;
#X connect 7 0 8 0;
#X connect 7 1 5 1;
#X connect 8 0 5 0;
#X connect 9 0 75 0;
#X connect 9 1 6 0;
#X connect 11 0 12 0;
#X connect 11 1 13 1;
#X connect 12 0 13 0;
#X connect 12 1 10 1;
#X connect 13 0 10 0;
#X connect 14 0 72 0;
#X connect 14 1 11 0;
#X connect 16 0 17 0;
#X connect 16 1 18 1;
#X connect 17 0 18 0;
#X connect 17 1 15 1;
#X connect 18 0 15 0;
#X connect 19 0 73 0;
#X connect 19 1 16 0;
#X connect 21 0 22 0;
#X connect 21 1 23 1;
#X connect 22 0 23 0;
#X connect 22 1 20 1;
#X connect 23 0 20 0;
#X connect 24 0 74 0;
#X connect 24 1 21 0;
#X connect 25 0 95 0;
#X connect 26 0 27 0;
#X connect 28 0 29 0;
#X connect 30 0 31 0;
#X connect 32 0 33 0;
#X connect 34 0 35 0;
#X connect 37 0 38 0;
#X connect 37 1 39 1;
#X connect 38 0 39 0;
#X connect 38 1 36 1;
#X connect 39 0 36 0;
#X connect 40 0 76 0;
#X connect 40 1 37 0;
#X connect 41 0 42 0;
#X connect 44 0 45 0;
#X connect 44 1 46 1;
#X connect 45 0 46 0;
#X connect 45 1 43 1;
#X connect 46 0 43 0;
#X connect 47 0 77 0;
#X connect 47 1 44 0;
#X connect 48 0 49 0;
#X connect 51 0 52 0;
#X connect 51 1 53 1;
#X connect 52 0 53 0;
#X connect 52 1 50 1;
#X connect 53 0 50 0;
#X connect 54 0 78 0;
#X connect 54 1 51 0;
#X connect 55 0 56 0;
#X connect 58 0 59 0;
#X connect 58 1 60 1;
#X connect 59 0 60 0;
#X connect 59 1 57 1;
#X connect 60 0 57 0;
#X connect 61 0 79 0;
#X connect 61 1 58 0;
#X connect 62 0 63 0;
#X connect 65 0 66 0;
#X connect 65 1 67 1;
#X connect 66 0 67 0;
#X connect 66 1 64 1;
#X connect 67 0 64 0;
#X connect 68 0 80 0;
#X connect 68 1 65 0;
#X connect 69 0 70 0;
#X connect 71 0 26 0;
#X connect 72 0 28 0;
#X connect 73 0 30 0;
#X connect 74 0 32 0;
#X connect 75 0 34 0;
#X connect 76 0 41 0;
#X connect 77 0 48 0;
#X connect 78 0 55 0;
#X connect 79 0 62 0;
#X connect 80 0 69 0;
#X connect 81 0 24 0;
#X connect 82 0 40 0;
#X connect 83 0 54 0;
#X connect 84 0 68 0;
#X connect 85 0 61 0;
#X connect 86 0 47 0;
#X connect 87 0 9 0;
#X connect 88 0 19 0;
#X connect 89 0 4 0;
#X connect 90 0 14 0;
#X connect 91 0 92 0;
#X connect 92 0 106 0;
#X connect 92 1 93 0;
#X connect 93 0 94 0;
#X connect 94 0 104 0;
#X connect 95 0 89 0;
#X connect 95 1 90 0;
#X connect 95 2 88 0;
#X connect 95 3 81 0;
#X connect 95 4 87 0;
#X connect 95 5 82 0;
#X connect 95 6 86 0;
#X connect 95 7 83 0;
#X connect 95 8 85 0;
#X connect 95 9 84 0;
#X connect 95 10 99 0;
#X connect 96 0 97 0;
#X connect 96 1 98 1;
#X connect 97 0 98 0;
#X connect 97 1 103 1;
#X connect 98 0 103 0;
#X connect 99 0 102 0;
#X connect 99 1 96 0;
#X connect 100 0 101 0;
#X connect 102 0 100 0;
#X connect 106 0 94 0;
#X coords 0 -1 1 1 170 160 1 50 50;
#X restore 1274 647 pd remoteinput;
#X obj 255 7 sampleselector 1;
#A saved  symbol symbol symbol symbol symbol symbol symbol;
#N canvas -8 -8 1858 1037 main 0;
#X obj 112 125 bng 15 250 50 0 main.reset main.reset main-reset 18
7 0 10 -261234 -1 -1;
#X obj 112 144 bng 15 250 50 0 main.instance-0.reset main.instance-0.reset
instancia0-reset 18 7 0 10 -261682 -1 -1;
#X obj 112 162 bng 15 250 50 0 main.instance-1.reset main.instance-1.reset
instancia1-reset 18 7 0 10 -261682 -1 -1;
#X obj 112 180 bng 15 250 50 0 main.instance-2.reset main.instance-2.reset
instancia2-reset 18 7 0 10 -261682 -1 -1;
#X obj 112 198 bng 15 250 50 0 main.instance-3.reset main.instance-3.reset
instancia3-reset 18 7 0 10 -261682 -1 -1;
#X obj 112 216 bng 15 250 50 0 main.instance-4.reset main.instance-4.reset
instancia4-reset 18 7 0 10 -261682 -1 -1;
#N canvas -8 -8 1858 1037 audio 0;
#X obj 309 117 throw~ s-audioprocessing-in0-0;
#X obj 555 120 throw~ s-audioprocessing-in1-0;
#X obj 920 179 throw~ s-mainoutput-in0;
#X obj 1166 181 throw~ s-mainoutput-in1;
#X obj 320 231 throw~ s-audioprocessing-in0-1;
#X obj 566 234 throw~ s-audioprocessing-in1-1;
#X obj 324 348 throw~ s-audioprocessing-in0-2;
#X obj 570 351 throw~ s-audioprocessing-in1-2;
#X obj 333 472 throw~ s-audioprocessing-in0-3;
#X obj 579 475 throw~ s-audioprocessing-in1-3;
#X obj 590 571 throw~ s-audioprocessing-in1-4;
#X obj 344 568 throw~ s-audioprocessing-in0-4;
#X obj 921 147 catch~ s-audioprocessing-out0;
#X obj 1166 155 catch~ s-audioprocessing-out1, f 31;
#X obj 36 25 r~ s-sampleplayer-out0-0;
#X obj 31 76 throw~ s-spatializer-in0-0;
#X obj 61 51 r~ s-sampleplayer-out1-0;
#X obj 56 105 throw~ s-spatializer-in1-0;
#X obj 312 73 r~ s-spatializer-out0-0;
#X obj 541 71 r~ s-spatializer-out1-0;
#X obj 29 326 throw~ s-spatializer-in0-0;
#X obj 38 525 r~ s-sampleplayer-out0-4;
#X obj 64 550 r~ s-sampleplayer-out1-4;
#X obj 33 576 throw~ s-spatializer-in0-4;
#X obj 58 605 throw~ s-spatializer-in1-4;
#X obj 47 486 throw~ s-spatializer-in1-3;
#X obj 22 457 throw~ s-spatializer-in0-3;
#X obj 52 432 r~ s-sampleplayer-out1-3;
#X obj 27 406 r~ s-sampleplayer-out0-3;
#X obj 54 355 throw~ s-spatializer-in1-2;
#X obj 58 301 r~ s-sampleplayer-out1-2;
#X obj 34 275 r~ s-sampleplayer-out0-2;
#X obj 52 222 throw~ s-spatializer-in1-1;
#X obj 26 193 throw~ s-spatializer-in0-1;
#X obj 57 168 r~ s-sampleplayer-out1-1;
#X obj 32 142 r~ s-sampleplayer-out0-1;
#X obj 323 187 r~ s-spatializer-out0-1;
#X obj 553 185 r~ s-spatializer-out1-1;
#X obj 556 302 r~ s-spatializer-out1-2;
#X obj 327 304 r~ s-spatializer-out0-2;
#X obj 336 428 r~ s-spatializer-out0-3;
#X obj 564 426 r~ s-spatializer-out1-3;
#X obj 576 523 r~ s-spatializer-out1-4;
#X obj 348 525 r~ s-spatializer-out0-4;
#X connect 12 0 2 0;
#X connect 13 0 3 0;
#X connect 14 0 15 0;
#X connect 16 0 17 0;
#X connect 18 0 0 0;
#X connect 19 0 1 0;
#X connect 21 0 23 0;
#X connect 22 0 24 0;
#X connect 27 0 25 0;
#X connect 28 0 26 0;
#X connect 30 0 29 0;
#X connect 31 0 20 0;
#X connect 34 0 32 0;
#X connect 35 0 33 0;
#X connect 36 0 4 0;
#X connect 37 0 5 0;
#X connect 38 0 7 0;
#X connect 39 0 6 0;
#X connect 40 0 8 0;
#X connect 41 0 9 0;
#X connect 42 0 10 0;
#X connect 43 0 11 0;
#X restore 107 359 pd audio;
#N canvas 571 303 450 300 declare 0;
#X obj 46 16 declare -path ./lib;
#X restore 107 313 pd declare;
#N canvas -8 -8 1858 1037 methods 0;
#X obj 311 110 loadbang;
#X obj 717 188 0;
#X obj 750 223 1;
#X obj 783 261 2;
#X obj 814 296 3;
#X obj 849 331 4;
#X obj 717 153 t b;
#X obj 750 198 t b;
#X obj 783 235 t b;
#X obj 814 268 t b;
#X obj 849 304 t b;
#X msg 336 561 \; mainoutput.recording.stop bang \; mainoutput.reset
bang \;;
#X obj 336 273 t b b;
#X obj 717 127 r main.instance-0.reset;
#X obj 336 222 r main.reset;
#X obj 783 209 r main.instance-2.reset;
#X obj 814 242 r main.instance-3.reset;
#X obj 849 278 r main.instance-4.reset;
#X msg 368 434 \; main.instance-0.reset bang \; main.instance-1.reset
bang \; main.instance-2.reset bang \; main.instance-3.reset bang \;
main.instance-4.reset bang \;;
#X obj 750 172 r main.instance-1.reset;
#X msg 311 145 \; main.reset bang \;;
#X msg 717 391 \; sampleselector-\$1.reset bang \; sampleplayer-\$1.reset
bang \; sampleplayer-\$1.clear bang \; audioprocessing-\$1.reset bang
\; spatializer-\$1.reset bang \;;
#X connect 0 0 20 0;
#X connect 1 0 21 0;
#X connect 2 0 21 0;
#X connect 3 0 21 0;
#X connect 4 0 21 0;
#X connect 5 0 21 0;
#X connect 6 0 1 0;
#X connect 7 0 2 0;
#X connect 8 0 3 0;
#X connect 9 0 4 0;
#X connect 10 0 5 0;
#X connect 12 0 11 0;
#X connect 12 1 18 0;
#X connect 13 0 6 0;
#X connect 14 0 12 0;
#X connect 15 0 8 0;
#X connect 16 0 9 0;
#X connect 17 0 10 0;
#X connect 19 0 7 0;
#X restore 107 336 pd methods;
#X text 29 19 Jorge Quispe (2020) https://github.com/jlquispec;
#X coords 0 -1 1 1 140 140 1 100 100;
#X restore 1288 192 pd main;
#X obj 1258 15 else/pic 0 img/elunm-logo.gif empty empty 0;
#X obj 8 374 sampleplayer-2 0;
#X obj 255 374 sampleplayer-2 1;
#X obj 504 374 sampleplayer-2 2;
#X obj 753 374 sampleplayer-2 3;
#X obj 1002 374 sampleplayer-2 4;
#X obj 8 621 spatializer-2 0;
#X obj 255 621 spatializer-2 1;
#X obj 504 621 spatializer-2 2;
#X obj 753 621 spatializer-2 3;
#X obj 1002 621 spatializer-2 4;
#X text 1318 915 Jorge Quispe (2020);
#X text 1256 935 https://github.com/jlquispec;
