#N struct 1227-g2 float x float y array tab 1227-g2b;
#N struct 1227-g2b float y;
#N struct 1228-g2 float x float y array tab 1228-g2b;
#N struct 1228-g2b float y;
#N struct 1229-g2 float x float y array tab 1229-g2b;
#N struct 1229-g2b float y;
#N canvas -8 -8 1920 1037 12;
#X declare -path ./lib;
#X obj 13 9 sampleselector 0;
#A saved  symbol symbol symbol symbol symbol symbol symbol;
#X obj 13 511 sampleselector 2;
#A saved  symbol symbol symbol symbol symbol symbol symbol;
#X obj 754 9 audioprocessing-2 0;
#X obj 754 260 audioprocessing-2 1;
#X obj 754 511 audioprocessing-2 2;
#X obj 1083 284 mainoutput-2;
#X obj 13 260 sampleselector 1;
#A saved  symbol symbol symbol symbol symbol symbol symbol;
#N canvas -8 -8 1858 1037 main 0;
#X obj 112 125 bng 15 250 50 0 main.reset main.reset main-reset 18
7 0 10 -261234 -1 -1;
#X obj 112 144 bng 15 250 50 0 main.instance-0.reset main.instance-0.reset
instancia0-reset 18 7 0 10 -261682 -1 -1;
#X obj 112 162 bng 15 250 50 0 main.instance-1.reset main.instance-1.reset
instancia1-reset 18 7 0 10 -261682 -1 -1;
#X obj 112 180 bng 15 250 50 0 main.instance-2.reset main.instance-2.reset
instancia2-reset 18 7 0 10 -261682 -1 -1;
#N canvas -8 -8 1858 1037 audio 0;
#X obj 309 117 throw~ s-audioprocessing-in0-0;
#X obj 555 120 throw~ s-audioprocessing-in1-0;
#X obj 920 179 throw~ s-mainoutput-in0;
#X obj 1166 181 throw~ s-mainoutput-in1;
#X obj 320 231 throw~ s-audioprocessing-in0-1;
#X obj 566 234 throw~ s-audioprocessing-in1-1;
#X obj 324 348 throw~ s-audioprocessing-in0-2;
#X obj 570 351 throw~ s-audioprocessing-in1-2;
#X obj 921 147 catch~ s-audioprocessing-out0;
#X obj 1166 155 catch~ s-audioprocessing-out1, f 31;
#X obj 36 25 r~ s-sampleplayer-out0-0;
#X obj 31 76 throw~ s-spatializer-in0-0;
#X obj 61 51 r~ s-sampleplayer-out1-0;
#X obj 56 105 throw~ s-spatializer-in1-0;
#X obj 312 73 r~ s-spatializer-out0-0;
#X obj 541 71 r~ s-spatializer-out1-0;
#X obj 54 355 throw~ s-spatializer-in1-2;
#X obj 58 301 r~ s-sampleplayer-out1-2;
#X obj 34 275 r~ s-sampleplayer-out0-2;
#X obj 52 222 throw~ s-spatializer-in1-1;
#X obj 26 193 throw~ s-spatializer-in0-1;
#X obj 57 168 r~ s-sampleplayer-out1-1;
#X obj 32 142 r~ s-sampleplayer-out0-1;
#X obj 323 187 r~ s-spatializer-out0-1;
#X obj 553 185 r~ s-spatializer-out1-1;
#X obj 556 302 r~ s-spatializer-out1-2;
#X obj 327 304 r~ s-spatializer-out0-2;
#X obj 29 326 throw~ s-spatializer-in0-2;
#X connect 8 0 2 0;
#X connect 9 0 3 0;
#X connect 10 0 11 0;
#X connect 12 0 13 0;
#X connect 14 0 0 0;
#X connect 15 0 1 0;
#X connect 17 0 16 0;
#X connect 18 0 27 0;
#X connect 21 0 19 0;
#X connect 22 0 20 0;
#X connect 23 0 4 0;
#X connect 24 0 5 0;
#X connect 25 0 7 0;
#X connect 26 0 6 0;
#X restore 107 359 pd audio;
#N canvas -8 -8 1920 1037 declare 0;
#X obj 46 16 declare -path ./lib;
#X restore 107 313 pd declare;
#N canvas -8 -8 1858 1037 methods 0;
#X obj 311 110 loadbang;
#X obj 717 188 0;
#X obj 750 223 1;
#X obj 783 261 2;
#X obj 717 153 t b;
#X obj 750 198 t b;
#X obj 783 235 t b;
#X msg 336 561 \; mainoutput.recording.stop bang \; mainoutput.reset
bang \;;
#X obj 336 273 t b b;
#X obj 717 127 r main.instance-0.reset;
#X obj 336 222 r main.reset;
#X obj 783 209 r main.instance-2.reset;
#X obj 750 172 r main.instance-1.reset;
#X msg 311 145 \; main.reset bang \;;
#X msg 717 391 \; sampleselector-\$1.reset bang \; sampleplayer-\$1.reset
bang \; sampleplayer-\$1.clear bang \; audioprocessing-\$1.reset bang
\; spatializer-\$1.reset bang \;;
#X msg 368 434 \; main.instance-0.reset bang \; main.instance-1.reset
bang \; main.instance-2.reset bang \;;
#X connect 0 0 13 0;
#X connect 1 0 14 0;
#X connect 2 0 14 0;
#X connect 3 0 14 0;
#X connect 4 0 1 0;
#X connect 5 0 2 0;
#X connect 6 0 3 0;
#X connect 8 0 7 0;
#X connect 8 1 15 0;
#X connect 9 0 4 0;
#X connect 10 0 8 0;
#X connect 11 0 6 0;
#X connect 12 0 5 0;
#X restore 107 336 pd methods;
#X text 29 19 Jorge Quispe (2020) https://github.com/jlquispec;
#X coords 0 -1 1 1 140 110 1 100 100;
#X restore 1113 166 pd main;
#X obj 1052 9 else/pic 0 img/elunm-logo.gif empty empty 0 0;
#X obj 259 9 sampleplayer-2 0;
#X obj 259 260 sampleplayer-2 1;
#X obj 259 511 sampleplayer-2 2;
#X obj 505 9 spatializer-2 0;
#X obj 505 260 spatializer-2 1;
#X obj 505 511 spatializer-2 2;
#X text 1116 712 Jorge Quispe (2020);
#X text 1052 734 https://github.com/jlquispec;
#X obj 1073 541 relojv4;
