#N canvas -8 -8 1858 1037 12;
#X msg 682 412 wet \$1;
#X obj 895 325 else/rm~;
#X obj 115 126 hsl 180 15 -24 24 0 0 c-audioprocessing-pitchshifter_transp-\$1
c-audioprocessing-pitchshifter_transp-\$1 pitchshifter_(-24:24) 0 8
0 8 -232576 -128992 -33289 17900 1;
#X obj 300 126 bng 15 250 50 0 audioprocessing-\$1.pitchshifter.reset
audioprocessing-\$1.pitchshifter.reset R 4 8 0 10 -262144 -1 -1;
#X obj 115 223 hsl 180 15 0 1 0 0 c-audioprocessing-reverb_wet-\$1
c-audioprocessing-reverb_wet-\$1 reverb_dry/wet_(0:1) 0 8 0 8 -228856
-128992 -33289 0 1;
#X obj 115 241 hsl 180 15 0 1 0 0 c-audioprocessing-reverb_roomsize-\$1
c-audioprocessing-reverb_roomsize-\$1 reverb_roomsize_(0:1) 0 8 0 8
-228856 -128992 -33289 17900 1;
#X obj 115 178 hsl 180 15 0 1500 0 0 c-audioprocessing-delay_delaytime-\$1
c-audioprocessing-delay_delaytime-\$1 delay_time_(0:1500)ms 0 8 0 8
-4032 -128992 -33289 1800 1;
#X obj 115 196 hsl 180 15 0 10000 0 0 c-audioprocessing-delay_feedbacktime-\$1
c-audioprocessing-delay_feedbacktime-\$1 delay_feedback_(0:10000)ms
0 8 0 8 -4032 -128992 -33289 8000 1;
#X obj 300 223 bng 15 250 50 0 audioprocessing-\$1.reverb.reset audioprocessing-\$1.reverb.reset
R 4 8 0 10 -262144 -1 -1;
#X obj 300 178 bng 15 250 50 0 audioprocessing-\$1.delay.reset audioprocessing-\$1.delay.reset
R 4 8 0 10 -262144 -1 -1;
#X obj 115 152 hsl 180 15 0 4000 0 0 c-audioprocessing-ringmodulator_freq-\$1
c-audioprocessing-ringmodulator_freq-\$1 ringmodulator_freq_(0:4000)Hz
0 8 0 8 -261234 -128992 -33289 0 1;
#X obj 300 152 bng 15 250 50 0 audioprocessing-\$1.ringmodulator.reset
audioprocessing-\$1.ringmodulator.reset R 4 8 0 10 -262144 -1 -1;
#X obj 115 259 hsl 180 15 0.02 2 1 0 c-audioprocessing-reverb_damping-\$1
c-audioprocessing-reverb_damping-\$1 reverb_damping_(0:2) 0 8 0 8 -228856
-128992 -33289 0 1;
#X obj 52 314 loadbang;
#X obj 52 346 \$1;
#X obj 954 215 * 100;
#X text 794 46 PROCESAMIENTO;
#X obj 897 124 catch~ s-audioprocessing-in0-\$1;
#X obj 995 703 freeverb~;
#X msg 529 511 roomsize \$1;
#X msg 499 606 damping \$1;
#N canvas -8 -8 1858 1037 methods 0;
#X obj 44 472 pack f f f, f 11;
#X msg 44 497 \$3 \, \$1 \$2;
#X obj 44 349 unpack f f;
#X obj 44 324 t a b;
#X obj 76 427 f;
#X msg 152 364 0;
#X obj 44 370 t f b b;
#X obj 44 539 change -1;
#X obj 101 390 * 1;
#X obj 44 518 line 1 30;
#X obj 1362 308 r audioprocessing-\$1.pitchshifter.reset;
#X obj 44 298 r audioprocessing-\$1.pitchshifter.transp.ramp;
#X obj 44 570 s c-audioprocessing-pitchshifter_transp-\$1;
#X obj 1362 334 t b;
#X obj 109 443 v c-audioprocessing-pitchshifter_transp-\$1;
#X msg 1362 378 0 10;
#X obj 1362 573 s audioprocessing-\$1.pitchshifter.transp.ramp;
#X obj 42 793 pack f f f, f 11;
#X msg 42 818 \$3 \, \$1 \$2;
#X obj 42 670 unpack f f;
#X obj 42 645 t a b;
#X obj 74 748 f;
#X msg 150 685 0;
#X obj 42 691 t f b b;
#X obj 42 860 change -1;
#X obj 99 711 * 1;
#X obj 42 839 line 1 30;
#X obj 1375 694 t b;
#X msg 1375 738 0 10;
#X obj 42 619 r audioprocessing-\$1.ringmodulator.freq.ramp;
#X obj 1375 933 s audioprocessing-\$1.ringmodulator.freq.ramp;
#X obj 42 891 s c-audioprocessing-ringmodulator_freq-\$1;
#X obj 1375 668 r audioprocessing-\$1.ringmodulator.reset;
#X msg 1413 1225 0 10;
#X obj 451 1362 pack f f f, f 11;
#X msg 451 1387 \$3 \, \$1 \$2;
#X obj 451 1239 unpack f f;
#X obj 451 1211 t a b;
#X obj 483 1317 f;
#X msg 559 1254 0;
#X obj 451 1260 t f b b;
#X obj 451 1435 change -1;
#X obj 508 1280 * 1;
#X obj 107 764 v c-audioprocessing-ringmodulator_freq-\$1;
#X obj 53 1069 pack f f;
#X obj 332 1074 pack f f;
#X obj 33 1940 pack f f f, f 11;
#X msg 33 1965 \$3 \, \$1 \$2;
#X obj 33 1817 unpack f f;
#X obj 33 1792 t a b;
#X obj 65 1895 f;
#X msg 147 1799 0;
#X obj 33 1838 t f b b;
#X obj 33 2013 change -1;
#X obj 90 1858 * 1;
#X obj 33 1992 line 1 30;
#X obj 33 1756 r audioprocessing-\$1.reverb.wet.ramp;
#X obj 33 2041 s c-audioprocessing-reverb_wet-\$1;
#X msg 1400 1748 0 10;
#X obj 1400 1678 r audioprocessing-\$1.reverb.reset;
#X obj 1400 1943 s audioprocessing-\$1.reverb.wet.ramp;
#X obj 381 1927 pack f f f, f 11;
#X msg 381 1952 \$3 \, \$1 \$2;
#X obj 381 1804 unpack f f;
#X obj 381 1779 t a b;
#X obj 413 1882 f;
#X msg 489 1819 0;
#X obj 381 1825 t f b b;
#X obj 381 2000 change -1;
#X obj 438 1845 * 1;
#X obj 381 1979 line 1 30;
#X obj 764 1925 pack f f f, f 11;
#X msg 764 1950 \$3 \, \$1 \$2;
#X obj 764 1802 unpack f f;
#X obj 764 1777 t a b;
#X obj 796 1880 f;
#X msg 872 1817 0;
#X obj 764 1823 t f b b;
#X obj 764 1998 change -1;
#X obj 821 1843 * 1;
#X obj 764 1977 line 1 30;
#X obj 381 1753 r audioprocessing-\$1.reverb.roomsize.ramp;
#X obj 381 2031 s c-audioprocessing-reverb_roomsize-\$1;
#X obj 765 1752 r audioprocessing-\$1.reverb.damping.ramp;
#X obj 764 2029 s c-audioprocessing-reverb_damping-\$1;
#X obj 838 1894 v c-audioprocessing-reverb_damping-\$1;
#X obj 455 1896 v c-audioprocessing-reverb_roomsize-\$1;
#X obj 113 1874 v c-audioprocessing-reverb_wet-\$1;
#X obj 1421 1907 s audioprocessing-\$1.reverb.roomsize.ramp;
#X obj 1444 1878 s audioprocessing-\$1.reverb.damping.ramp;
#X msg 1421 1784 0.5;
#X msg 1444 1811 0 1;
#X obj 1106 1816 s c-audioprocessing-reverb_freeze-\$1;
#X obj 1106 1775 t f;
#X obj 1400 1710 t b b b b b;
#X obj 1486 1844 s audioprocessing-\$1.reverb.freeze;
#X msg 1486 1776 0;
#X msg 1546 1768 \; c-audioprocessing-reverb_width-\$1 0.5;
#X obj 39 1600 unpack f f f f;
#X obj 40 1658 pack f f;
#X obj 40 1690 s audioprocessing-\$1.reverb.wet.ramp;
#X obj 413 1663 pack f f;
#X obj 773 1669 pack f f;
#X obj 773 1701 s audioprocessing-\$1.reverb.damping.ramp;
#X obj 413 1695 s audioprocessing-\$1.reverb.roomsize.ramp;
#X obj 1106 1749 r audioprocessing-\$1.reverb.freeze;
#X obj 1546 1742 \$1;
#X obj 1413 1155 r audioprocessing-\$1.delay.reset;
#X obj 52 962 r audioprocessing-\$1.delay.values.ramp;
#X obj 46 1167 r audioprocessing-\$1.delay.time.ramp;
#X obj 52 1012 unpack f f f;
#X obj 45 1462 s c-audioprocessing-delay_delaytime-\$1;
#X obj 451 1414 line 1 30;
#X text 42 1144 la rampa en el time de este delay no funciona bien
;
#X obj 53 1101 s audioprocessing-\$1.delay.time.ramp;
#X obj 45 1352 pack f f f, f 11;
#X msg 45 1378 \$3 \, \$1 \$2;
#X obj 46 1220 unpack f f;
#X obj 46 1194 t a b;
#X obj 101 1302 f;
#X msg 154 1239 0;
#X obj 45 1430 change -1;
#X obj 126 1265 * 1;
#X obj 143 1309 v c-audioprocessing-delay_delaytime-\$1;
#X obj 451 1463 s c-audioprocessing-delay_feedbacktime-\$1;
#X obj 525 1330 v c-audioprocessing-delay_feedbacktime-\$1;
#X obj 451 1182 r audioprocessing-\$1.delay.feedbacktime.ramp;
#X obj 332 1106 s audioprocessing-\$1.delay.feedbacktime.ramp;
#X obj 1413 1187 t b b;
#X obj 1449 1384 s audioprocessing-\$1.delay.time.ramp;
#X obj 1413 1420 s audioprocessing-\$1.delay.feedbacktime.ramp;
#X msg 1461 1261 100 0;
#X obj 46 1245 t f b b f;
#X obj 39 1551 r audioprocessing-\$1.reverb.values.ramp;
#X obj 45 1405 line 1 100;
#X obj 45 52 r audioprocessing-\$1.reset;
#X obj 45 192 s audioprocessing-\$1.pitchshifter.reset;
#X obj 418 192 s audioprocessing-\$1.ringmodulator.reset;
#X obj 777 192 s audioprocessing-\$1.delay.reset;
#X obj 1059 192 s audioprocessing-\$1.reverb.reset;
#X obj 45 101 t b b b b;
#X connect 0 0 1 0;
#X connect 1 0 9 0;
#X connect 2 0 6 0;
#X connect 2 1 8 0;
#X connect 3 0 2 0;
#X connect 3 1 5 0;
#X connect 4 0 0 1;
#X connect 5 0 4 1;
#X connect 6 0 0 0;
#X connect 6 1 4 0;
#X connect 6 2 14 0;
#X connect 7 0 12 0;
#X connect 8 0 4 1;
#X connect 9 0 7 0;
#X connect 10 0 13 0;
#X connect 11 0 3 0;
#X connect 13 0 15 0;
#X connect 14 0 0 2;
#X connect 15 0 16 0;
#X connect 17 0 18 0;
#X connect 18 0 26 0;
#X connect 19 0 23 0;
#X connect 19 1 25 0;
#X connect 20 0 19 0;
#X connect 20 1 22 0;
#X connect 21 0 17 1;
#X connect 22 0 21 1;
#X connect 23 0 17 0;
#X connect 23 1 21 0;
#X connect 23 2 43 0;
#X connect 24 0 31 0;
#X connect 25 0 21 1;
#X connect 26 0 24 0;
#X connect 27 0 28 0;
#X connect 28 0 30 0;
#X connect 29 0 20 0;
#X connect 32 0 27 0;
#X connect 33 0 130 0;
#X connect 34 0 35 0;
#X connect 35 0 112 0;
#X connect 36 0 40 0;
#X connect 36 1 42 0;
#X connect 37 0 36 0;
#X connect 37 1 39 0;
#X connect 38 0 34 1;
#X connect 39 0 38 1;
#X connect 40 0 34 0;
#X connect 40 1 38 0;
#X connect 40 2 125 0;
#X connect 41 0 124 0;
#X connect 42 0 38 1;
#X connect 43 0 17 2;
#X connect 44 0 114 0;
#X connect 45 0 127 0;
#X connect 46 0 47 0;
#X connect 47 0 55 0;
#X connect 48 0 52 0;
#X connect 48 1 54 0;
#X connect 49 0 48 0;
#X connect 49 1 51 0;
#X connect 50 0 46 1;
#X connect 51 0 50 1;
#X connect 52 0 46 0;
#X connect 52 1 50 0;
#X connect 52 2 87 0;
#X connect 53 0 57 0;
#X connect 54 0 50 1;
#X connect 55 0 53 0;
#X connect 56 0 49 0;
#X connect 58 0 60 0;
#X connect 59 0 94 0;
#X connect 61 0 62 0;
#X connect 62 0 70 0;
#X connect 63 0 67 0;
#X connect 63 1 69 0;
#X connect 64 0 63 0;
#X connect 64 1 66 0;
#X connect 65 0 61 1;
#X connect 66 0 65 1;
#X connect 67 0 61 0;
#X connect 67 1 65 0;
#X connect 67 2 86 0;
#X connect 68 0 82 0;
#X connect 69 0 65 1;
#X connect 70 0 68 0;
#X connect 71 0 72 0;
#X connect 72 0 80 0;
#X connect 73 0 77 0;
#X connect 73 1 79 0;
#X connect 74 0 73 0;
#X connect 74 1 76 0;
#X connect 75 0 71 1;
#X connect 76 0 75 1;
#X connect 77 0 71 0;
#X connect 77 1 75 0;
#X connect 77 2 85 0;
#X connect 78 0 84 0;
#X connect 79 0 75 1;
#X connect 80 0 78 0;
#X connect 81 0 64 0;
#X connect 83 0 74 0;
#X connect 85 0 71 2;
#X connect 86 0 61 2;
#X connect 87 0 46 2;
#X connect 90 0 88 0;
#X connect 91 0 89 0;
#X connect 93 0 92 0;
#X connect 94 0 58 0;
#X connect 94 1 90 0;
#X connect 94 2 91 0;
#X connect 94 3 96 0;
#X connect 94 4 106 0;
#X connect 96 0 95 0;
#X connect 98 0 99 0;
#X connect 98 1 101 0;
#X connect 98 2 102 0;
#X connect 98 3 99 1;
#X connect 98 3 101 1;
#X connect 98 3 102 1;
#X connect 99 0 100 0;
#X connect 101 0 104 0;
#X connect 102 0 103 0;
#X connect 105 0 93 0;
#X connect 106 0 97 0;
#X connect 107 0 128 0;
#X connect 108 0 110 0;
#X connect 109 0 118 0;
#X connect 110 0 44 0;
#X connect 110 1 45 0;
#X connect 110 2 45 1;
#X connect 110 2 44 1;
#X connect 112 0 41 0;
#X connect 115 0 116 0;
#X connect 116 0 134 0;
#X connect 117 0 132 0;
#X connect 117 1 122 0;
#X connect 118 0 117 0;
#X connect 118 1 120 0;
#X connect 119 0 115 1;
#X connect 120 0 119 1;
#X connect 121 0 111 0;
#X connect 122 0 119 1;
#X connect 123 0 115 2;
#X connect 125 0 34 2;
#X connect 126 0 37 0;
#X connect 128 0 33 0;
#X connect 128 1 131 0;
#X connect 131 0 129 0;
#X connect 132 0 115 0;
#X connect 132 1 119 0;
#X connect 132 2 123 0;
#X connect 133 0 98 0;
#X connect 134 0 121 0;
#X connect 135 0 140 0;
#X connect 140 0 136 0;
#X connect 140 1 137 0;
#X connect 140 2 138 0;
#X connect 140 3 139 0;
#X restore 144 330 pd methods;
#X msg 569 429 dry \$1;
#X obj 1271 124 catch~ s-audioprocessing-in1-\$1;
#X obj 1271 325 else/rm~;
#X obj 1330 215 * 100;
#X obj 940 802 throw~ s-audioprocessing-out0;
#X obj 1169 797 throw~ s-audioprocessing-out1;
#X obj 904 826 s~ s-audioprocessing-out0-\$1;
#X obj 1179 831 s~ s-audioprocessing-out1-\$1;
#X obj 1330 180 r c-audioprocessing-pitchshifter_transp-\$1;
#X obj 954 180 r c-audioprocessing-pitchshifter_transp-\$1;
#X obj 948 294 r c-audioprocessing-ringmodulator_freq-\$1;
#X obj 1324 294 r c-audioprocessing-ringmodulator_freq-\$1;
#X msg 52 381 \; audioprocessing-\$1.pitchshifter.reset bang \; audioprocessing-\$1.ringmodulator.reset
bang \; audioprocessing-\$1.delay.reset bang \; audioprocessing-\$1.reverb.reset
bang \;;
#X obj 569 342 - 1;
#X obj 569 399 abs;
#X msg 569 871 width \$1;
#X obj 1272 256 else/pitch.shift~;
#X obj 896 256 else/pitch.shift~;
#X obj 569 365 / 2;
#X msg 693 378 bypass 1;
#X msg 776 375 bypass 0;
#X obj 649 333 select 0;
#X obj 499 578 r c-audioprocessing-reverb_damping-\$1;
#X obj 529 483 r c-audioprocessing-reverb_roomsize-\$1;
#X obj 569 294 r c-audioprocessing-reverb_wet-\$1;
#X msg 602 767 freeze \$1;
#X obj 521 647 r c-audioprocessing-reverb_freeze-\$1;
#X obj 569 841 r c-audioprocessing-reverb_width-\$1;
#X obj 521 673 t f b;
#X msg 577 699 0;
#X obj 521 728 pipe 100;
#X obj 968 454 else/fbdelay~;
#X obj 1086 463 else/fbdelay~;
#X obj 970 339 r c-audioprocessing-delay_delaytime-\$1;
#X obj 1098 392 r c-audioprocessing-delay_feedbacktime-\$1;
#X obj 300 241 tgl 15 0 c-audioprocessing-reverb_freeze-\$1 c-audioprocessing-reverb_freeze-\$1
F 5 7 0 10 -204800 -1 -1 0 1;
#N canvas -8 -8 1858 1037 draft 0;
#X obj 26 34 hsl 160 15 0.01 20000 0 0 c-audioproc-changetime-\$1 c-audioproc-changetime-\$1
change_time_(0:20000)_sec 0 8 0 8 -228856 -128992 -33289 0 1;
#X obj 23 49 bng 15 250 50 0 empty empty 0 2 21 0 10 -262144 -1 -1
;
#X obj 173 49 bng 15 250 50 0 empty empty 20 2 21 0 10 -262144 -1 -1
;
#X floatatom 190 34 5 0 0 0 - c-audioproc-changetime-#1 -;
#X msg 63 96 0.01;
#X obj 96 132 s c-audioproc-changetime-\$1;
#X msg 104 90 20000;
#X connect 1 0 4 0;
#X connect 2 0 6 0;
#X connect 4 0 5 0;
#X connect 6 0 5 0;
#X restore 63 506 pd draft;
#X connect 0 0 18 0;
#X connect 1 0 53 0;
#X connect 13 0 14 0;
#X connect 14 0 34 0;
#X connect 15 0 39 1;
#X connect 17 0 39 0;
#X connect 18 0 26 0;
#X connect 18 0 28 0;
#X connect 18 1 27 0;
#X connect 18 1 29 0;
#X connect 19 0 18 0;
#X connect 20 0 18 0;
#X connect 22 0 18 0;
#X connect 23 0 38 0;
#X connect 24 0 54 0;
#X connect 25 0 38 1;
#X connect 30 0 25 0;
#X connect 31 0 15 0;
#X connect 32 0 1 1;
#X connect 33 0 24 1;
#X connect 35 0 40 0;
#X connect 36 0 22 0;
#X connect 37 0 18 0;
#X connect 38 0 24 0;
#X connect 39 0 1 0;
#X connect 40 0 36 0;
#X connect 41 0 18 0;
#X connect 42 0 18 0;
#X connect 43 0 41 0;
#X connect 43 1 42 0;
#X connect 44 0 20 0;
#X connect 45 0 19 0;
#X connect 46 0 0 0;
#X connect 46 0 35 0;
#X connect 46 0 43 0;
#X connect 47 0 18 0;
#X connect 48 0 50 0;
#X connect 49 0 37 0;
#X connect 50 0 52 0;
#X connect 50 1 51 0;
#X connect 51 0 47 0;
#X connect 52 0 47 0;
#X connect 53 0 18 0;
#X connect 54 0 18 1;
#X connect 55 0 53 1;
#X connect 55 0 54 1;
#X connect 56 0 53 2;
#X connect 56 0 54 2;
#X coords 0 -1 1 1 230 190 1 100 100;
