#N canvas -8 -8 1858 1037 12;
#X obj 765 297 else/rm~;
#X obj 120 132 hsl 180 15 -24 24 0 0 c-audioprocessing-pitchshifter_transp-\$1
c-audioprocessing-pitchshifter_transp-\$1 pitchshifter_transpose_(-24:24)
0 8 0 9 -232576 -128992 -33289 8950 1;
#X obj 305 132 bng 15 250 50 0 audioprocessing-\$1.pitchshifter.reset
audioprocessing-\$1.pitchshifter.reset R 5 8 0 10 -262144 -1 -1;
#X obj 120 225 hsl 180 15 0 1 0 0 c-audioprocessing-reverb_wet-\$1
c-audioprocessing-reverb_wet-\$1 reverb_dry/wet_(0:1) 0 8 0 9 -228856
-128992 -33289 0 1;
#X obj 120 243 hsl 180 15 0 1 0 0 c-audioprocessing-reverb_roomsize-\$1
c-audioprocessing-reverb_roomsize-\$1 reverb_roomsize_(0:1) 0 8 0 8
-228856 -128992 -33289 8950 1;
#X obj 120 181 hsl 180 15 0 1500 0 0 c-audioprocessing-delay_delaytime-\$1
c-audioprocessing-delay_delaytime-\$1 delay_time_(0:1500)ms 0 8 0 9
-4032 -128992 -33289 2387 1;
#X obj 120 199 hsl 180 15 0 10000 0 0 c-audioprocessing-delay_feedbacktime-\$1
c-audioprocessing-delay_feedbacktime-\$1 delay_feedback_(0:10000)ms
0 8 0 9 -4032 -128992 -33289 0 1;
#X obj 305 225 bng 15 250 50 0 audioprocessing-\$1.reverb.reset audioprocessing-\$1.reverb.reset
R 5 8 0 10 -262144 -1 -1;
#X obj 305 181 bng 15 250 50 0 audioprocessing-\$1.delay.reset audioprocessing-\$1.delay.reset
R 5 8 0 10 -262144 -1 -1;
#X obj 120 156 hsl 180 15 0 4000 0 0 c-audioprocessing-ringmodulator_freq-\$1
c-audioprocessing-ringmodulator_freq-\$1 ringmodulator_freq_(0:4000)Hz
0 8 0 9 -261234 -128992 -33289 0 1;
#X obj 305 156 bng 15 250 50 0 audioprocessing-\$1.ringmodulator.reset
audioprocessing-\$1.ringmodulator.reset R 5 8 0 10 -262144 -1 -1;
#X obj 120 261 hsl 180 15 0.02 2 1 0 c-audioprocessing-reverb_damping-\$1
c-audioprocessing-reverb_damping-\$1 reverb_damping_(0:2) 0 8 0 9 -228856
-128992 -33289 0 1;
#X obj 39 8 loadbang;
#X obj 39 32 \$1;
#X obj 824 187 * 100;
#X obj 680 108 catch~ s-audioprocessing-in0-\$1;
#X obj 911 627 freeverb~;
#N canvas -8 -8 1858 1037 methods 0;
#X obj 44 472 pack f f f, f 11;
#X msg 44 497 \$3 \, \$1 \$2;
#X obj 44 349 unpack f f;
#X obj 44 324 t a b;
#X obj 76 427 f;
#X msg 152 364 0;
#X obj 44 370 t f b b;
#X obj 44 539 change -1;
#X obj 101 390 * 1;
#X obj 1361 345 r audioprocessing-\$1.pitchshifter.reset;
#X obj 44 298 r audioprocessing-\$1.pitchshifter.transp.ramp;
#X obj 44 570 s c-audioprocessing-pitchshifter_transp-\$1;
#X obj 1361 371 t b;
#X obj 109 443 v c-audioprocessing-pitchshifter_transp-\$1;
#X msg 1361 415 0 10;
#X obj 1362 573 s audioprocessing-\$1.pitchshifter.transp.ramp;
#X obj 42 793 pack f f f, f 11;
#X msg 42 818 \$3 \, \$1 \$2;
#X obj 42 670 unpack f f;
#X obj 42 645 t a b;
#X obj 74 748 f;
#X msg 150 685 0;
#X obj 42 691 t f b b;
#X obj 42 860 change -1;
#X obj 99 711 * 1;
#X obj 1375 694 t b;
#X msg 1375 738 0 10;
#X obj 42 619 r audioprocessing-\$1.ringmodulator.freq.ramp;
#X obj 1375 933 s audioprocessing-\$1.ringmodulator.freq.ramp;
#X obj 42 891 s c-audioprocessing-ringmodulator_freq-\$1;
#X obj 1375 668 r audioprocessing-\$1.ringmodulator.reset;
#X obj 44 1683 pack f f f, f 11;
#X msg 44 1708 \$3 \, \$1 \$2;
#X obj 44 1560 unpack f f;
#X obj 44 1532 t a b;
#X obj 76 1638 f;
#X msg 152 1575 0;
#X obj 44 1581 t f b b;
#X obj 44 1756 change -1;
#X obj 101 1601 * 1;
#X obj 107 764 v c-audioprocessing-ringmodulator_freq-\$1;
#X obj 52 1050 pack f f;
#X obj 331 1055 pack f f;
#X obj 47 2230 pack f f f, f 11;
#X msg 47 2255 \$3 \, \$1 \$2;
#X obj 47 2107 unpack f f;
#X obj 47 2082 t a b;
#X obj 79 2185 f;
#X msg 161 2089 0;
#X obj 47 2128 t f b b;
#X obj 47 2303 change -1;
#X obj 104 2148 * 1;
#X obj 47 2046 r audioprocessing-\$1.reverb.wet.ramp;
#X obj 47 2331 s c-audioprocessing-reverb_wet-\$1;
#X obj 1350 1864 r audioprocessing-\$1.reverb.reset;
#X obj 1350 2129 s audioprocessing-\$1.reverb.wet.ramp;
#X obj 49 2551 pack f f f, f 11;
#X msg 49 2576 \$3 \, \$1 \$2;
#X obj 49 2428 unpack f f;
#X obj 49 2403 t a b;
#X obj 81 2506 f;
#X msg 157 2443 0;
#X obj 49 2449 t f b b;
#X obj 49 2624 change -1;
#X obj 106 2469 * 1;
#X obj 47 2875 pack f f f, f 11;
#X msg 47 2900 \$3 \, \$1 \$2;
#X obj 47 2752 unpack f f;
#X obj 47 2727 t a b;
#X obj 79 2830 f;
#X msg 155 2767 0;
#X obj 47 2773 t f b b;
#X obj 47 2948 change -1;
#X obj 104 2793 * 1;
#X obj 49 2377 r audioprocessing-\$1.reverb.roomsize.ramp;
#X obj 49 2655 s c-audioprocessing-reverb_roomsize-\$1;
#X obj 48 2702 r audioprocessing-\$1.reverb.damping.ramp;
#X obj 47 2979 s c-audioprocessing-reverb_damping-\$1;
#X obj 121 2844 v c-audioprocessing-reverb_damping-\$1;
#X obj 123 2520 v c-audioprocessing-reverb_roomsize-\$1;
#X obj 127 2164 v c-audioprocessing-reverb_wet-\$1;
#X obj 1371 2093 s audioprocessing-\$1.reverb.roomsize.ramp;
#X obj 1394 2064 s audioprocessing-\$1.reverb.damping.ramp;
#X obj 1359 2248 s c-audioprocessing-reverb_freeze-\$1;
#X obj 1359 2207 t f;
#X obj 1350 1896 t b b b b b;
#X obj 1436 2030 s audioprocessing-\$1.reverb.freeze;
#X msg 1436 1962 0;
#X obj 53 1890 unpack f f f f;
#X obj 54 1948 pack f f;
#X obj 54 1980 s audioprocessing-\$1.reverb.wet.ramp;
#X obj 427 1953 pack f f;
#X obj 787 1959 pack f f;
#X obj 787 1991 s audioprocessing-\$1.reverb.damping.ramp;
#X obj 427 1985 s audioprocessing-\$1.reverb.roomsize.ramp;
#X obj 1359 2181 r audioprocessing-\$1.reverb.freeze;
#X obj 1496 1928 \$1;
#X obj 1413 1155 r audioprocessing-\$1.delay.reset;
#X obj 52 952 r audioprocessing-\$1.delay.values.ramp;
#X obj 46 1167 r audioprocessing-\$1.delay.time.ramp;
#X obj 52 1012 unpack f f f;
#X obj 45 1462 s c-audioprocessing-delay_delaytime-\$1;
#X text 47 1142 la rampa en el time de este delay no funciona bien
;
#X obj 52 1082 s audioprocessing-\$1.delay.time.ramp;
#X obj 45 1352 pack f f f, f 11;
#X msg 45 1378 \$3 \, \$1 \$2;
#X obj 46 1220 unpack f f;
#X obj 46 1194 t a b;
#X obj 101 1302 f;
#X msg 154 1239 0;
#X obj 45 1430 change -1;
#X obj 126 1265 * 1;
#X obj 143 1309 v c-audioprocessing-delay_delaytime-\$1;
#X obj 44 1784 s c-audioprocessing-delay_feedbacktime-\$1;
#X obj 118 1651 v c-audioprocessing-delay_feedbacktime-\$1;
#X obj 44 1503 r audioprocessing-\$1.delay.feedbacktime.ramp;
#X obj 331 1087 s audioprocessing-\$1.delay.feedbacktime.ramp;
#X obj 1413 1187 t b b;
#X obj 1449 1384 s audioprocessing-\$1.delay.time.ramp;
#X obj 1413 1420 s audioprocessing-\$1.delay.feedbacktime.ramp;
#X obj 53 1841 r audioprocessing-\$1.reverb.values.ramp;
#X obj 45 1405 line 1 100;
#X obj 45 52 r audioprocessing-\$1.reset;
#X obj 45 192 s audioprocessing-\$1.pitchshifter.reset;
#X obj 123 236 s audioprocessing-\$1.ringmodulator.reset;
#X obj 361 184 s audioprocessing-\$1.delay.reset;
#X obj 493 249 s audioprocessing-\$1.reverb.reset;
#X obj 52 975 t a b;
#X msg 173 996 0;
#X obj 53 1864 t a b;
#X obj 513 339 t a b;
#X msg 649 390 0, f 4;
#X obj 513 364 unpack f f f;
#X obj 545 488 pack f f;
#X obj 649 479 pack f f;
#X obj 513 440 f;
#X obj 513 393 t b f;
#X obj 545 537 s audioprocessing-\$1.pitchshifter.transp.ramp;
#X obj 513 313 r audioprocessing-\$1.pitchshifter.transp.rampfromto
;
#X obj 516 646 t a b;
#X msg 652 697 0, f 4;
#X obj 516 671 unpack f f f;
#X obj 548 795 pack f f;
#X obj 652 786 pack f f;
#X obj 516 747 f;
#X obj 516 700 t b f;
#X obj 548 844 s audioprocessing-\$1.ringmodulator.freq.ramp;
#X obj 516 620 r audioprocessing-\$1.ringmodulator.freq.rampfromto
;
#X obj 544 1199 t a b;
#X msg 680 1250 0, f 4;
#X obj 544 1224 unpack f f f;
#X obj 576 1348 pack f f;
#X obj 680 1339 pack f f;
#X obj 544 1300 f;
#X obj 544 1253 t b f;
#X obj 576 1397 s audioprocessing-\$1.delay.time.ramp;
#X obj 544 1173 r audioprocessing-\$1.delay.time.rampfromto;
#X obj 552 1527 t a b;
#X msg 688 1578 0, f 4;
#X obj 552 1552 unpack f f f;
#X obj 584 1676 pack f f;
#X obj 688 1667 pack f f;
#X obj 552 1628 f;
#X obj 552 1581 t b f;
#X obj 584 1725 s audioprocessing-\$1.delay.feedbacktime.ramp;
#X obj 552 1501 r audioprocessing-\$1.delay.feedbacktime.rampfromto
;
#X obj 491 2083 t a b;
#X msg 627 2134 0, f 4;
#X obj 491 2108 unpack f f f;
#X obj 523 2232 pack f f;
#X obj 627 2223 pack f f;
#X obj 491 2184 f;
#X obj 491 2137 t b f;
#X obj 523 2281 s audioprocessing-\$1.reverb.wet.ramp;
#X obj 491 2057 r audioprocessing-\$1.reverb.wet.rampfromto;
#X obj 510 2400 t a b;
#X msg 646 2451 0, f 4;
#X obj 510 2425 unpack f f f;
#X obj 542 2549 pack f f;
#X obj 646 2540 pack f f;
#X obj 510 2501 f;
#X obj 510 2454 t b f;
#X obj 542 2598 s audioprocessing-\$1.reverb.roomsize.ramp;
#X obj 510 2374 r audioprocessing-\$1.reverb.roomsize.rampfromto;
#X obj 539 2742 t a b;
#X msg 675 2793 0, f 4;
#X obj 539 2767 unpack f f f;
#X obj 571 2891 pack f f;
#X obj 675 2882 pack f f;
#X obj 539 2843 f;
#X obj 539 2796 t b f;
#X obj 572 2940 s audioprocessing-\$1.reverb.damping.ramp;
#X obj 538 2716 r audioprocessing-\$1.reverb.damping.rampfromto;
#X msg 1394 1997 0 10;
#X msg 1371 1969 0.5 10;
#X msg 1496 1954 \; c-audioprocessing-reverb_width-\$1 0;
#X obj 46 1245 t f b b;
#X obj 45 101 t b b b b b;
#X obj 942 190 pack f f f, f 11;
#X msg 942 215 \$3 \, \$1 \$2;
#X obj 942 67 unpack f f;
#X obj 942 42 t a b;
#X obj 974 145 f;
#X msg 1050 82 0;
#X obj 942 88 t f b b;
#X obj 942 260 change -1;
#X obj 999 108 * 1;
#X obj 942 326 s c-audioprocessing-wet-\$1;
#X obj 1007 161 v c-audioprocessing-wet-\$1;
#X obj 942 15 r audioprocessing-\$1.wet.ramp;
#X obj 1260 56 t a b;
#X msg 1396 107 0, f 4;
#X obj 1260 81 unpack f f f;
#X obj 1292 205 pack f f;
#X obj 1396 196 pack f f;
#X obj 1260 157 f;
#X obj 1260 110 t b f;
#X obj 1292 254 s audioprocessing-\$1.wet.ramp;
#X obj 1260 30 r audioprocessing-\$1.wet.rampfromto;
#X obj 396 139 s audioprocessing-\$1.wet.ramp;
#X msg 396 102 1 0;
#X obj 942 293 clip 0 1;
#X msg 258 1883 0;
#X msg 1350 1934 0 200;
#X msg 1413 1225 0 200;
#X msg 1461 1261 200 0;
#X obj 942 239 line 1 50;
#X obj 44 518 line 1 50;
#X obj 42 839 line 1 50;
#X obj 44 1735 line 1 50;
#X obj 47 2282 line 1 50;
#X obj 49 2603 line 1 50;
#X obj 47 2927 line 1 50;
#X connect 0 0 1 0;
#X connect 1 0 227 0;
#X connect 2 0 6 0;
#X connect 2 1 8 0;
#X connect 3 0 2 0;
#X connect 3 1 5 0;
#X connect 4 0 0 1;
#X connect 5 0 4 1;
#X connect 6 0 0 0;
#X connect 6 1 4 0;
#X connect 6 2 13 0;
#X connect 7 0 11 0;
#X connect 8 0 4 1;
#X connect 9 0 12 0;
#X connect 10 0 3 0;
#X connect 12 0 14 0;
#X connect 13 0 0 2;
#X connect 14 0 15 0;
#X connect 16 0 17 0;
#X connect 17 0 228 0;
#X connect 18 0 22 0;
#X connect 18 1 24 0;
#X connect 19 0 18 0;
#X connect 19 1 21 0;
#X connect 20 0 16 1;
#X connect 21 0 20 1;
#X connect 22 0 16 0;
#X connect 22 1 20 0;
#X connect 22 2 40 0;
#X connect 23 0 29 0;
#X connect 24 0 20 1;
#X connect 25 0 26 0;
#X connect 26 0 28 0;
#X connect 27 0 19 0;
#X connect 30 0 25 0;
#X connect 31 0 32 0;
#X connect 32 0 229 0;
#X connect 33 0 37 0;
#X connect 33 1 39 0;
#X connect 34 0 33 0;
#X connect 34 1 36 0;
#X connect 35 0 31 1;
#X connect 36 0 35 1;
#X connect 37 0 31 0;
#X connect 37 1 35 0;
#X connect 37 2 114 0;
#X connect 38 0 113 0;
#X connect 39 0 35 1;
#X connect 40 0 16 2;
#X connect 41 0 103 0;
#X connect 42 0 116 0;
#X connect 43 0 44 0;
#X connect 44 0 230 0;
#X connect 45 0 49 0;
#X connect 45 1 51 0;
#X connect 46 0 45 0;
#X connect 46 1 48 0;
#X connect 47 0 43 1;
#X connect 48 0 47 1;
#X connect 49 0 43 0;
#X connect 49 1 47 0;
#X connect 49 2 80 0;
#X connect 50 0 53 0;
#X connect 51 0 47 1;
#X connect 52 0 46 0;
#X connect 54 0 85 0;
#X connect 56 0 57 0;
#X connect 57 0 231 0;
#X connect 58 0 62 0;
#X connect 58 1 64 0;
#X connect 59 0 58 0;
#X connect 59 1 61 0;
#X connect 60 0 56 1;
#X connect 61 0 60 1;
#X connect 62 0 56 0;
#X connect 62 1 60 0;
#X connect 62 2 79 0;
#X connect 63 0 75 0;
#X connect 64 0 60 1;
#X connect 65 0 66 0;
#X connect 66 0 232 0;
#X connect 67 0 71 0;
#X connect 67 1 73 0;
#X connect 68 0 67 0;
#X connect 68 1 70 0;
#X connect 69 0 65 1;
#X connect 70 0 69 1;
#X connect 71 0 65 0;
#X connect 71 1 69 0;
#X connect 71 2 78 0;
#X connect 72 0 77 0;
#X connect 73 0 69 1;
#X connect 74 0 59 0;
#X connect 76 0 68 0;
#X connect 78 0 65 2;
#X connect 79 0 56 2;
#X connect 80 0 43 2;
#X connect 84 0 83 0;
#X connect 85 0 223 0;
#X connect 85 1 194 0;
#X connect 85 2 193 0;
#X connect 85 3 87 0;
#X connect 85 4 96 0;
#X connect 87 0 86 0;
#X connect 88 0 89 0;
#X connect 88 1 91 0;
#X connect 88 2 92 0;
#X connect 88 3 89 1;
#X connect 88 3 91 1;
#X connect 88 3 92 1;
#X connect 89 0 90 0;
#X connect 91 0 94 0;
#X connect 92 0 93 0;
#X connect 95 0 84 0;
#X connect 96 0 195 0;
#X connect 97 0 117 0;
#X connect 98 0 127 0;
#X connect 99 0 107 0;
#X connect 100 0 41 0;
#X connect 100 1 42 0;
#X connect 100 2 42 1;
#X connect 100 2 41 1;
#X connect 104 0 105 0;
#X connect 105 0 121 0;
#X connect 106 0 196 0;
#X connect 106 1 111 0;
#X connect 107 0 106 0;
#X connect 107 1 109 0;
#X connect 108 0 104 1;
#X connect 109 0 108 1;
#X connect 110 0 101 0;
#X connect 111 0 108 1;
#X connect 112 0 104 2;
#X connect 114 0 31 2;
#X connect 115 0 34 0;
#X connect 117 0 224 0;
#X connect 117 1 225 0;
#X connect 120 0 129 0;
#X connect 121 0 110 0;
#X connect 122 0 197 0;
#X connect 127 0 100 0;
#X connect 127 1 128 0;
#X connect 128 0 41 1;
#X connect 128 0 42 1;
#X connect 129 0 88 0;
#X connect 129 1 222 0;
#X connect 130 0 132 0;
#X connect 130 1 131 0;
#X connect 131 0 134 1;
#X connect 131 0 133 1;
#X connect 132 0 136 0;
#X connect 132 1 135 1;
#X connect 132 2 134 1;
#X connect 133 0 137 0;
#X connect 134 0 137 0;
#X connect 135 0 134 0;
#X connect 136 0 135 0;
#X connect 136 1 133 0;
#X connect 138 0 130 0;
#X connect 139 0 141 0;
#X connect 139 1 140 0;
#X connect 140 0 143 1;
#X connect 140 0 142 1;
#X connect 141 0 145 0;
#X connect 141 1 144 1;
#X connect 141 2 143 1;
#X connect 142 0 146 0;
#X connect 143 0 146 0;
#X connect 144 0 143 0;
#X connect 145 0 144 0;
#X connect 145 1 142 0;
#X connect 147 0 139 0;
#X connect 148 0 150 0;
#X connect 148 1 149 0;
#X connect 149 0 152 1;
#X connect 149 0 151 1;
#X connect 150 0 154 0;
#X connect 150 1 153 1;
#X connect 150 2 152 1;
#X connect 151 0 155 0;
#X connect 152 0 155 0;
#X connect 153 0 152 0;
#X connect 154 0 153 0;
#X connect 154 1 151 0;
#X connect 156 0 148 0;
#X connect 157 0 159 0;
#X connect 157 1 158 0;
#X connect 158 0 161 1;
#X connect 158 0 160 1;
#X connect 159 0 163 0;
#X connect 159 1 162 1;
#X connect 159 2 161 1;
#X connect 160 0 164 0;
#X connect 161 0 164 0;
#X connect 162 0 161 0;
#X connect 163 0 162 0;
#X connect 163 1 160 0;
#X connect 165 0 157 0;
#X connect 166 0 168 0;
#X connect 166 1 167 0;
#X connect 167 0 170 1;
#X connect 167 0 169 1;
#X connect 168 0 172 0;
#X connect 168 1 171 1;
#X connect 168 2 170 1;
#X connect 169 0 173 0;
#X connect 170 0 173 0;
#X connect 171 0 170 0;
#X connect 172 0 171 0;
#X connect 172 1 169 0;
#X connect 174 0 166 0;
#X connect 175 0 177 0;
#X connect 175 1 176 0;
#X connect 176 0 179 1;
#X connect 176 0 178 1;
#X connect 177 0 181 0;
#X connect 177 1 180 1;
#X connect 177 2 179 1;
#X connect 178 0 182 0;
#X connect 179 0 182 0;
#X connect 180 0 179 0;
#X connect 181 0 180 0;
#X connect 181 1 178 0;
#X connect 183 0 175 0;
#X connect 184 0 186 0;
#X connect 184 1 185 0;
#X connect 185 0 188 1;
#X connect 185 0 187 1;
#X connect 186 0 190 0;
#X connect 186 1 189 1;
#X connect 186 2 188 1;
#X connect 187 0 191 0;
#X connect 188 0 191 0;
#X connect 189 0 188 0;
#X connect 190 0 189 0;
#X connect 190 1 187 0;
#X connect 192 0 184 0;
#X connect 193 0 82 0;
#X connect 194 0 81 0;
#X connect 196 0 104 0;
#X connect 196 1 108 0;
#X connect 196 2 112 0;
#X connect 197 0 123 0;
#X connect 197 1 124 0;
#X connect 197 2 125 0;
#X connect 197 3 126 0;
#X connect 197 4 220 0;
#X connect 198 0 199 0;
#X connect 199 0 226 0;
#X connect 200 0 204 0;
#X connect 200 1 206 0;
#X connect 201 0 200 0;
#X connect 201 1 203 0;
#X connect 202 0 198 1;
#X connect 203 0 202 1;
#X connect 204 0 198 0;
#X connect 204 1 202 0;
#X connect 204 2 208 0;
#X connect 205 0 221 0;
#X connect 206 0 202 1;
#X connect 208 0 198 2;
#X connect 209 0 201 0;
#X connect 210 0 212 0;
#X connect 210 1 211 0;
#X connect 211 0 214 1;
#X connect 211 0 213 1;
#X connect 212 0 216 0;
#X connect 212 1 215 1;
#X connect 212 2 214 1;
#X connect 213 0 217 0;
#X connect 214 0 217 0;
#X connect 215 0 214 0;
#X connect 216 0 215 0;
#X connect 216 1 213 0;
#X connect 218 0 210 0;
#X connect 220 0 219 0;
#X connect 221 0 207 0;
#X connect 222 0 89 1;
#X connect 222 0 91 1;
#X connect 222 0 92 1;
#X connect 223 0 55 0;
#X connect 224 0 119 0;
#X connect 225 0 118 0;
#X connect 226 0 205 0;
#X connect 227 0 7 0;
#X connect 228 0 23 0;
#X connect 229 0 38 0;
#X connect 230 0 50 0;
#X connect 231 0 63 0;
#X connect 232 0 72 0;
#X restore 542 42 pd methods;
#X obj 1268 87 catch~ s-audioprocessing-in1-\$1;
#X obj 1249 301 else/rm~;
#X obj 1308 191 * 100;
#X obj 680 912 throw~ s-audioprocessing-out0;
#X obj 1112 882 throw~ s-audioprocessing-out1;
#X obj 519 857 s~ s-audioprocessing-out0-\$1;
#X obj 1253 830 s~ s-audioprocessing-out1-\$1;
#X obj 1308 156 r c-audioprocessing-pitchshifter_transp-\$1;
#X obj 823 145 r c-audioprocessing-pitchshifter_transp-\$1;
#X obj 818 266 r c-audioprocessing-ringmodulator_freq-\$1;
#X obj 1302 270 r c-audioprocessing-ringmodulator_freq-\$1;
#X obj 1250 232 else/pitch.shift~;
#X obj 766 228 else/pitch.shift~;
#X obj 819 490 else/fbdelay~;
#X obj 1072 507 else/fbdelay~;
#X obj 894 368 r c-audioprocessing-delay_delaytime-\$1;
#X obj 1012 401 r c-audioprocessing-delay_feedbacktime-\$1;
#X obj 305 243 tgl 15 0 c-audioprocessing-reverb_freeze-\$1 c-audioprocessing-reverb_freeze-\$1
F 5 7 0 10 -204800 -1 -1 0 1;
#N canvas -8 -8 1858 1037 draft 0;
#X obj 26 34 hsl 160 15 0.01 20000 0 0 c-audioproc-changetime-\$1 c-audioproc-changetime-\$1
change_time_(0:20000)_sec 0 8 0 8 -228856 -128992 -33289 0 1;
#X obj 23 49 bng 15 250 50 0 empty empty 0 2 21 0 10 -262144 -1 -1
;
#X obj 173 49 bng 15 250 50 0 empty empty 20 2 21 0 10 -262144 -1 -1
;
#X floatatom 190 34 5 0 0 0 - c-audioproc-changetime-#1 -;
#X msg 63 96 0.01;
#X obj 96 132 s c-audioproc-changetime-\$1;
#X msg 104 90 20000;
#X connect 1 0 4 0;
#X connect 2 0 6 0;
#X connect 4 0 5 0;
#X connect 6 0 5 0;
#X restore 551 65 pd draft;
#X obj 120 290 hsl 180 15 0 1 0 0 c-audioprocessing-wet-\$1 c-audioprocessing-wet-\$1
dry/wet_(0:1) 0 8 0 8 -204800 -128992 -33289 17900 1;
#X msg 39 57 \; audioprocessing-\$1.reset bang \;;
#X obj 1078 583 r c-audioprocessing-wet-\$1;
#X obj 287 305 bng 15 250 50 0 empty empty wet 17 8 0 10 -262144 -1
-1;
#X obj 197 396 s audioprocessing-\$1.wet.ramp;
#X obj 284 108 bng 15 250 50 0 audioprocessing-\$1.reset audioprocessing-\$1.reset
reset 18 7 0 10 -261234 -1 -1;
#X obj 737 748 equalpowercrossfade-2;
#X obj 1138 745 equalpowercrossfade-2;
#X obj 117 305 bng 15 250 50 0 empty empty dry 17 8 0 10 -262144 -1
-1;
#X msg 131 357 0 30;
#X msg 244 358 1 30;
#N canvas -8 -8 1858 1037 reverb-settings 0;
#X msg 115 56 roomsize \$1;
#X msg 50 172 damping \$1;
#X msg 172 466 width \$1;
#X obj 50 144 r c-audioprocessing-reverb_damping-\$1;
#X obj 115 28 r c-audioprocessing-reverb_roomsize-\$1;
#X msg 153 333 freeze \$1;
#X obj 72 213 r c-audioprocessing-reverb_freeze-\$1;
#X obj 172 436 r c-audioprocessing-reverb_width-\$1;
#X obj 72 239 t f b;
#X msg 128 265 0;
#X obj 72 294 pipe 100;
#X obj 529 465 outlet;
#X msg 631 218 wet \$1;
#X msg 555 237 dry \$1;
#X obj 555 150 - 1;
#X obj 555 207 abs;
#X obj 555 173 / 2;
#X msg 679 186 bypass 1;
#X msg 762 183 bypass 0;
#X obj 635 141 select 0;
#X obj 555 102 r c-audioprocessing-reverb_wet-\$1;
#X connect 0 0 11 0;
#X connect 1 0 11 0;
#X connect 2 0 11 0;
#X connect 3 0 1 0;
#X connect 4 0 0 0;
#X connect 5 0 11 0;
#X connect 6 0 8 0;
#X connect 7 0 2 0;
#X connect 8 0 10 0;
#X connect 8 1 9 0;
#X connect 9 0 5 0;
#X connect 10 0 5 0;
#X connect 12 0 11 0;
#X connect 13 0 11 0;
#X connect 14 0 16 0;
#X connect 15 0 13 0;
#X connect 16 0 15 0;
#X connect 17 0 11 0;
#X connect 18 0 11 0;
#X connect 19 0 17 0;
#X connect 19 1 18 0;
#X connect 20 0 12 0;
#X connect 20 0 14 0;
#X connect 20 0 19 0;
#X restore 643 536 pd reverb-settings;
#X text 287 13 Jorge Quispe (2020) https://github.com/jlquispec;
#X connect 0 0 31 0;
#X connect 12 0 13 0;
#X connect 13 0 38 0;
#X connect 14 0 30 1;
#X connect 15 0 30 0;
#X connect 15 0 43 0;
#X connect 16 0 43 1;
#X connect 16 1 44 1;
#X connect 18 0 29 0;
#X connect 18 0 44 0;
#X connect 19 0 32 0;
#X connect 20 0 29 1;
#X connect 25 0 20 0;
#X connect 26 0 14 0;
#X connect 27 0 0 1;
#X connect 28 0 19 1;
#X connect 29 0 19 0;
#X connect 30 0 0 0;
#X connect 31 0 16 0;
#X connect 32 0 16 1;
#X connect 33 0 31 1;
#X connect 33 0 32 1;
#X connect 34 0 31 2;
#X connect 34 0 32 2;
#X connect 39 0 43 2;
#X connect 39 0 44 2;
#X connect 40 0 47 0;
#X connect 43 0 21 0;
#X connect 43 0 23 0;
#X connect 44 0 22 0;
#X connect 44 0 24 0;
#X connect 45 0 46 0;
#X connect 46 0 41 0;
#X connect 47 0 41 0;
#X connect 48 0 16 0;
#X coords 0 -1 1 1 240 240 1 100 100;
