#N canvas 714 23 566 668 12;
#N canvas 0 23 1280 668 gui.1 0;
#X obj 112 174 hradio 15 1 0 5 empty empty Canal/Instancia 0 -8 0 12
-191407 -1 -1 0;
#X floatatom 112 194 5 0 0 0 - - -;
#X obj 112 218 s channel;
#X obj -501 120 r channel;
#X obj -519 245 s out;
#X obj -405 120 r carpeta;
#X floatatom 112 252 5 0 0 0 - - -;
#X obj 112 274 s carpeta;
#X msg -519 221 sampleselector-\$1.openfolder \$2 \$3;
#X obj -519 197 pack f f s, f 33;
#X obj -519 163 f;
#X symbolatom 112 307 10 0 0 0 - - -;
#X obj 112 384 s foldername;
#X obj -323 120 r foldername;
#X obj -323 144 t b s;
#X obj 112 232 hradio 15 1 0 8 empty empty Index 0 -8 0 12 -261234
-1 -1 0;
#X obj 112 289 hradio 15 1 0 8 empty empty Cargar_Carpeta 0 -8 0 12
-204800 -1 -1 0;
#X obj -501 410 r channel;
#X obj -519 535 s out;
#X obj -519 453 f;
#X floatatom 251 194 5 0 0 0 - - -;
#X obj 251 174 hradio 15 1 0 8 empty empty Seleccionar_Carpeta 0 -8
0 12 -261234 -1 -1 0;
#X obj 251 233 vradio 12 1 0 15 empty empty Archivo 0 -8 0 12 -262130
-1 -1 1;
#X obj 251 217 s sel.carpeta;
#X obj -391 410 r sel.carpeta;
#X floatatom 272 395 5 0 0 0 - - -;
#X text 109 111 SELECCIÓN Y CARGA DE CARPETAS Y SAMPLES;
#X text 109 133 CARPETAS;
#X text 250 133 SAMPLES;
#X text -530 77 Carga de carpeta;
#X obj 272 449 s file.index;
#X obj -295 410 r file.index;
#X obj -519 487 pack f f f, f 37;
#X obj -295 434 t b f;
#X msg -519 511 sampleselector-\$1.selectfile \$2 \$3;
#X obj -501 670 r channel;
#X obj -519 795 s out;
#X obj -519 713 f;
#X obj -414 670 r sel.carpeta;
#X text -530 627 Carga del sample;
#X obj -414 694 t b f;
#X text -530 367 Visualización de carpetas;
#X msg -519 771 sampleselector-\$1.selectfile \$2;
#X obj -519 747 pack f f, f 20;
#N canvas 0 23 450 300 autocarga 0;
#X obj 189 177 % 8;
#X floatatom 189 201 5 0 0 0 - - -;
#X obj 189 127 f;
#X obj 219 127 + 1;
#X floatatom 189 151 5 0 0 0 - - -;
#X obj 123 201 % 8;
#X floatatom 123 225 5 0 0 0 - - -;
#X obj 123 151 f;
#X obj 153 151 + 1;
#X floatatom 123 175 5 0 0 0 - - -;
#X msg 70 84 0;
#X obj 70 193 sel 8;
#X obj 189 83 bng 15 250 50 0 empty empty empty 17 7 0 10 -262144 -1
-1;
#X obj 123 248 outlet;
#X obj 189 224 outlet;
#X obj 189 52 inlet;
#X obj 189 103 metro 260;
#X obj 123 122 del 130;
#X connect 0 0 1 0;
#X connect 1 0 14 0;
#X connect 2 0 3 0;
#X connect 2 0 4 0;
#X connect 3 0 2 1;
#X connect 4 0 0 0;
#X connect 5 0 6 0;
#X connect 6 0 13 0;
#X connect 7 0 8 0;
#X connect 7 0 9 0;
#X connect 8 0 7 1;
#X connect 9 0 5 0;
#X connect 9 0 11 0;
#X connect 10 0 2 0;
#X connect 10 0 7 0;
#X connect 10 0 16 0;
#X connect 11 0 10 0;
#X connect 12 0 16 0;
#X connect 15 0 12 0;
#X connect 16 0 2 0;
#X connect 16 0 17 0;
#X connect 17 0 7 0;
#X restore 0 213 pd autocarga;
#X obj 112 387 bng 25 250 50 0 empty empty Autocarga 0 -10 0 12 -204786
-1 -1;
#X obj 76 40 cnv 15 100 60 empty empty empty 20 12 0 14 -233017 -66577
0;
#X msg -44 288 symbol \$1\$2;
#X obj -44 265 pack s f;
#X symbolatom 112 348 10 0 0 2 Nombre_de_carpeta - -;
#X msg -48 329 symbol samples;
#X obj -116 310 loadbang;
#X obj -44 240 t b f, f 8;
#X connect 0 0 1 0;
#X connect 1 0 2 0;
#X connect 3 0 10 1;
#X connect 5 0 9 1;
#X connect 6 0 7 0;
#X connect 8 0 4 0;
#X connect 9 0 8 0;
#X connect 10 0 9 0;
#X connect 11 0 12 0;
#X connect 13 0 14 0;
#X connect 14 0 10 0;
#X connect 14 1 9 2;
#X connect 15 0 6 0;
#X connect 16 0 52 0;
#X connect 17 0 19 1;
#X connect 19 0 32 0;
#X connect 20 0 23 0;
#X connect 21 0 20 0;
#X connect 22 0 25 0;
#X connect 24 0 32 1;
#X connect 25 0 30 0;
#X connect 31 0 33 0;
#X connect 32 0 34 0;
#X connect 33 0 19 0;
#X connect 33 1 32 2;
#X connect 34 0 18 0;
#X connect 35 0 37 1;
#X connect 37 0 43 0;
#X connect 38 0 40 0;
#X connect 40 0 37 0;
#X connect 40 1 43 1;
#X connect 42 0 36 0;
#X connect 43 0 42 0;
#X connect 44 0 16 0;
#X connect 44 1 15 0;
#X connect 45 0 44 0;
#X connect 47 0 11 0;
#X connect 48 0 47 0;
#X connect 49 0 48 0;
#X connect 50 0 49 0;
#X connect 51 0 50 0;
#X connect 52 0 48 0;
#X connect 52 1 48 1;
#X coords 0 -1 1 1 290 320 2 100 100;
#X restore 37 59 pd gui.1;
#N canvas 0 23 1280 668 gui.2 0;
#X obj -259 262 s out;
#X obj -259 166 f;
#X obj -241 142 r channel;
#X obj 110 186 tgl 25 0 empty empty Loop -1 -7 0 12 -232576 -1 -1 1
1;
#X obj 42 181 s loop;
#X obj -259 121 bng 15 250 50 0 empty empty empty 17 7 0 10 -262144
-1 -1;
#X obj 113 229 hsl 100 10 0 1 0 0 empty empty Posición_de_Inicio -2
-8 0 12 -204786 -1 -1 3000 1;
#X floatatom 110 241 5 0 1 0 - - -;
#X obj 10 283 s sample.pos;
#X msg 110 76 0;
#X obj 110 142 bng 25 250 50 0 empty empty Play -1 -7 0 11 -204786
-1 -1;
#X obj 110 176 s play;
#X obj 150 142 bng 25 250 50 0 empty empty Pause -2 -7 0 11 -261682
-1 -1;
#X obj 232 142 bng 25 250 50 0 empty empty Stop 0 -7 0 11 -261234 -1
-1;
#X obj 150 177 s pause;
#X obj 232 177 s stop;
#X obj -519 457 s out;
#X obj -519 406 f;
#X obj -501 382 r channel;
#X obj -519 361 bng 15 250 50 0 empty empty empty 17 7 0 10 -262144
-1 -1;
#X obj -519 333 r pause;
#X msg -519 433 sampleplayer-\$1.pause bang;
#X obj -259 457 s out;
#X obj -259 406 f;
#X obj -241 382 r channel;
#X obj -259 361 bng 15 250 50 0 empty empty empty 17 7 0 10 -262144
-1 -1;
#X msg -259 433 sampleplayer-\$1.stop bang;
#X obj -259 333 r stop;
#X obj -519 262 s out;
#X obj -519 52 spigot;
#X obj -259 96 spigot;
#X obj -391 37 tgl 15 0 empty empty empty 17 7 0 10 -262144 -1 -1 0
1;
#X obj -391 57 expr $f1 * -1 + 1;
#X obj -220 76 tgl 15 0 empty empty empty 17 7 0 10 -262144 -1 -1 1
1;
#X obj -391 11 r pos.on-off;
#X obj 154 242 tgl 15 0 empty empty On/Off 20 9 0 11 -204786 -1 -1
0 1;
#X obj 110 187 s pos.on-off;
#X msg -519 238 sampleplayer-\$1.play \$2 \$3;
#X obj -519 166 f;
#X obj -501 142 r channel;
#X obj -333 142 r loop;
#X obj -519 207 pack f f f, f 27;
#X obj -426 142 r sample.pos;
#X obj -259 207 pack f f, f 14;
#X obj -164 142 r loop;
#X obj 110 53 loadbang;
#X obj -49 16 cnv 15 100 60 empty empty empty 20 12 0 14 -233017 -66577
0;
#X obj 10 259 clip 0 1;
#X text 105 108 REPRODUCCIÓN DE SAMPLE;
#X obj 110 404 f;
#X obj 128 380 r channel;
#X obj 110 265 bng 40 250 50 0 empty empty RESET 0 20 1 12 -262144
-1 -1;
#X obj 110 461 s out;
#X obj 178 305 s reset.all;
#X msg 110 431 main.instance-\$1.reset bang;
#X msg -259 238 sampleplayer-\$1.play 0 \$2;
#X obj -519 107 bng 15 250 50 0 empty empty empty 17 7 0 10 -262144
-1 -1;
#X obj -519 -37 sel 1 0;
#X obj -519 28 bng 15 250 50 0 empty empty empty 17 7 0 10 -262144
-1 -1;
#X obj -446 9 r play;
#X obj -460 -18 s stop;
#X obj 191 142 bng 25 250 50 0 empty empty Resume -3 -7 0 11 -204800
-1 -1;
#X obj 191 177 s resume;
#X obj -519 647 s out;
#X obj -519 596 f;
#X obj -501 572 r channel;
#X obj -519 551 bng 15 250 50 0 empty empty empty 17 7 0 10 -262144
-1 -1;
#X obj -519 523 r resume;
#X msg -519 623 sampleplayer-\$1.play;
#X obj -519 -62 r loop.bang;
#X obj 10 210 s loop.bang;
#X obj -164 166 print;
#X obj 10 156 t f f;
#X connect 1 0 43 0;
#X connect 2 0 1 1;
#X connect 3 0 72 0;
#X connect 5 0 1 0;
#X connect 6 0 7 0;
#X connect 7 0 47 0;
#X connect 9 0 6 0;
#X connect 9 0 35 0;
#X connect 10 0 11 0;
#X connect 12 0 14 0;
#X connect 13 0 15 0;
#X connect 17 0 21 0;
#X connect 18 0 17 1;
#X connect 19 0 17 0;
#X connect 20 0 19 0;
#X connect 21 0 16 0;
#X connect 23 0 26 0;
#X connect 24 0 23 1;
#X connect 25 0 23 0;
#X connect 26 0 22 0;
#X connect 27 0 25 0;
#X connect 29 0 56 0;
#X connect 30 0 5 0;
#X connect 31 0 32 0;
#X connect 31 0 29 1;
#X connect 32 0 33 0;
#X connect 33 0 30 1;
#X connect 34 0 31 0;
#X connect 35 0 36 0;
#X connect 37 0 28 0;
#X connect 38 0 41 0;
#X connect 39 0 38 1;
#X connect 40 0 41 2;
#X connect 41 0 37 0;
#X connect 42 0 41 1;
#X connect 43 0 55 0;
#X connect 44 0 43 1;
#X connect 44 0 71 0;
#X connect 45 0 9 0;
#X connect 47 0 8 0;
#X connect 49 0 54 0;
#X connect 50 0 49 1;
#X connect 51 0 49 0;
#X connect 51 0 53 0;
#X connect 54 0 52 0;
#X connect 55 0 0 0;
#X connect 56 0 38 0;
#X connect 57 0 58 0;
#X connect 57 1 60 0;
#X connect 58 0 29 0;
#X connect 58 0 30 0;
#X connect 59 0 58 0;
#X connect 61 0 62 0;
#X connect 64 0 68 0;
#X connect 65 0 64 1;
#X connect 66 0 64 0;
#X connect 67 0 66 0;
#X connect 68 0 63 0;
#X connect 69 0 57 0;
#X connect 72 0 70 0;
#X connect 72 1 4 0;
#X coords 0 -1 1 1 165 210 2 100 100;
#X restore 332 169 pd gui.2;
#N canvas 0 23 1280 668 gui.3 0;
#X obj -610 573 s out;
#X obj -610 222 s out;
#X obj -610 478 f;
#X obj -592 454 r channel;
#X obj -610 427 bng 15 250 50 0 empty empty empty 17 7 0 10 -262144
-1 -1;
#X obj -610 519 pack f f f, f 26;
#X obj -431 482 r rate.rampa;
#X obj -610 128 f;
#X obj -592 104 r channel;
#X obj -970 77 bng 15 250 50 0 empty empty empty 17 7 0 10 -262144
-1 -1;
#X obj -610 169 pack f f f, f 26;
#X obj -431 132 r vol.rampa;
#X obj 414 184 hsl 100 10 -1 1 0 0 empty empty -1/1 110 7 0 10 -204800
-1 -1 4950 1;
#X floatatom 411 250 5 0 20 0 - - -;
#X obj 411 288 bng 25 250 50 0 empty empty Enviar_Paneo 0 -7 0 12 -204800
-1 -1;
#X obj 411 308 s pan.bang;
#X obj 411 291 s pan.rampa;
#X obj 264 184 hsl 100 10 -2 2 0 0 empty empty -2/2 110 7 0 10 -262130
-1 -1 7425 1;
#X floatatom 261 250 5 0 20 0 - - -;
#X obj 261 288 bng 25 250 50 0 empty empty Enviar_Rate 0 -7 0 12 -262130
-1 -1;
#X obj 261 291 s rate.rampa;
#X obj 261 308 s rate.bang;
#X obj 114 184 hsl 100 10 0 1 0 0 empty empty 0/1 110 7 0 10 -261682
-1 -1 9900 1;
#X floatatom 111 250 5 0 20 0 - - -;
#X obj 111 288 bng 25 250 50 0 empty empty Enviar_Volumen 0 -7 0 12
-261682 -1 -1;
#X obj 111 308 s vol.bang;
#X obj 111 291 s vol.rampa;
#X text 408 134 Posición del paneo;
#X text 408 217 Rampa del paneo;
#X text 258 134 Posición del rate;
#X text 258 217 Rampa del rate;
#X text 108 134 Posición del volumen;
#X text 108 217 Rampa del volumen;
#X obj 414 236 hsl 100 10 0 10 0 0 empty empty 0/10s 110 7 0 10 -204800
-1 -1 0 1;
#X obj 264 236 hsl 100 10 0 10 0 0 empty empty 0/10s 110 7 0 10 -262130
-1 -1 0 1;
#X obj 114 236 hsl 100 10 0 10 0 0 empty empty 0/10s 110 7 0 10 -261682
-1 -1 0 1;
#X obj 111 162 bng 15 250 50 0 empty empty 0 0 -8 0 10 -261682 -1 -1
;
#X msg 201 113 1;
#X obj 201 162 bng 15 250 50 0 empty empty 1 0 -8 0 10 -261682 -1 -1
;
#X msg 111 113 0;
#X obj 411 162 bng 15 250 50 0 empty empty -1 0 -8 0 10 -204800 -1
-1;
#X msg 501 114 1;
#X obj 501 162 bng 15 250 50 0 empty empty 1 0 -8 0 10 -204800 -1 -1
;
#X msg 411 114 -1;
#X obj 458 162 bng 15 250 50 0 empty empty 0 0 -8 0 10 -204800 -1 -1
;
#X msg 458 114 0;
#X obj 331 162 bng 15 250 50 0 empty empty 1 0 -8 0 10 -262130 -1 -1
;
#X obj 307 162 bng 15 250 50 0 empty empty 0 0 -8 0 10 -262130 -1 -1
;
#X obj 284 162 bng 15 250 50 0 empty empty -1 0 -8 0 10 -262130 -1
-1;
#X obj 261 162 bng 15 250 50 0 empty empty -2 0 -8 0 10 -262130 -1
-1;
#X obj 351 162 bng 15 250 50 0 empty empty 2 0 -8 0 10 -262130 -1 -1
;
#X msg 351 114 2;
#X msg 331 114 1;
#X msg 307 114 0;
#X msg 284 114 -1;
#X msg 261 114 -2;
#X obj 157 162 bng 15 250 50 0 empty empty 0-5 0 -8 0 10 -261682 -1
-1;
#X msg 157 113 0.5;
#X msg -610 198 sampleplayer-\$1.volume.ramp \$2 \$3;
#X msg -610 549 sampleplayer-\$1.rate.ramp \$2 \$3;
#X obj 111 273 * 1000;
#X obj 261 273 * 1000;
#X obj 411 273 * 1000;
#X obj -251 1 cnv 15 100 60 empty empty empty 20 12 0 14 -233017 -66577
0;
#X text 109 111 VOLUMEN;
#X text 259 111 RATE;
#X text 408 111 PANEO;
#X obj 201 69 loadbang;
#X obj 111 330 bng 25 250 50 0 empty empty Reset_Volumen 0 -7 0 12
-260097 -1 -1;
#X obj 261 330 bng 25 250 50 0 empty empty Reset_Rate 0 -7 0 12 -224835
-1 -1;
#X obj 411 330 bng 25 250 50 0 empty empty Reset_Paneo 0 -7 0 12 -138553
-1 -1;
#X obj 111 500 s out;
#X obj 111 452 f;
#X obj 129 428 r channel;
#X obj 261 580 s out;
#X obj 261 532 f;
#X obj 279 508 r channel;
#X obj 411 500 s out;
#X obj 411 452 f;
#X obj 429 428 r channel;
#X msg 261 556 sampleplayer-\$1.rate.ramp 1 0.1;
#X msg 411 476 spatializer-\$1.panning.ramp 0 0.1;
#X obj 42 254 clip 0 20;
#X obj 192 254 clip 0 20;
#X obj 342 254 clip 0 20;
#X floatatom 151 198 5 0 0 0 - - -;
#X obj 41 216 clip 0 1;
#X obj 141 330 tgl 25 0 empty empty Hold 1 13 0 10 -262144 -1 -1 0
1;
#X obj 291 330 tgl 25 0 empty empty Hold 1 13 0 10 -262144 -1 -1 0
1;
#X obj 441 330 tgl 25 0 empty empty Hold 1 13 0 10 -262144 -1 -1 0
1;
#X obj 141 360 * -1;
#X obj 141 384 + 1;
#X obj 81 403 spigot 1;
#X msg 81 167 0;
#X obj 291 360 * -1;
#X obj 291 384 + 1;
#X obj 231 403 spigot 1;
#X obj 441 360 * -1;
#X obj 441 384 + 1;
#X obj 381 403 spigot 1;
#X obj -1 384 r reset.all;
#X floatatom 111 198 5 0 1 0 - - -;
#X obj -970 222 s out;
#X obj -970 128 f;
#X obj -952 104 r channel;
#X obj -610 77 bng 15 250 50 0 empty empty empty 17 7 0 10 -262144
-1 -1;
#X obj -721 132 r vol.rampa;
#X msg -970 198 sampleplayer-\$1.volume.rampfromto \$2 \$3 \$4 \;;
#X obj -521 132 r vol.to;
#X obj 111 235 s vol.to;
#X obj -804 132 r vol.to;
#X obj -970 169 pack f f f f, f 36;
#X obj -887 132 r vol.from;
#X obj -970 2 spigot;
#X obj -610 46 spigot;
#X obj -842 -13 tgl 15 0 empty empty empty 17 7 0 10 -262144 -1 -1
0 1;
#X obj -842 7 expr $f1 * -1 + 1;
#X obj -571 26 tgl 15 0 empty empty empty 17 7 0 10 -262144 -1 -1 1
1;
#X obj -970 -22 r vol.bang;
#X obj 111 215 s vol.from;
#X obj 41 196 clip 0 1;
#X obj 191 198 tgl 15 0 empty empty from-to 15 7 0 10 -262144 -1 -1
0 1;
#X obj 181 218 s vol.fromto;
#X obj -842 -39 r vol.fromto;
#X obj -571 -28 loadbang;
#X msg -571 -4 1;
#X floatatom 301 198 5 0 0 0 - - -;
#X floatatom 261 198 5 -2 2 0 - - -;
#X obj 341 198 tgl 15 0 empty empty from-to 15 7 0 10 -262144 -1 -1
0 1;
#X obj 191 196 clip -2 2;
#X obj 181 216 clip -2 2;
#X obj 261 215 s rate.from;
#X obj 261 235 s rate.to;
#X obj 341 218 s rate.fromto;
#X floatatom 451 198 5 0 0 0 - - -;
#X floatatom 411 198 5 -1 1 0 - - -;
#X obj 491 198 tgl 15 0 empty empty from-to 15 7 0 10 -262144 -1 -1
0 1;
#X obj 411 235 s pan.to;
#X obj 491 218 s pan.fromto;
#X obj 411 215 s pan.from;
#X obj 341 196 clip -1 1;
#X obj 341 216 clip -1 1;
#X obj -521 482 r rate.to;
#X obj -970 427 bng 15 250 50 0 empty empty empty 17 7 0 10 -262144
-1 -1;
#X obj -970 572 s out;
#X obj -970 478 f;
#X obj -952 454 r channel;
#X obj -970 519 pack f f f f, f 36;
#X msg -970 548 sampleplayer-\$1.rate.rampfromto \$2 \$3 \$4 \;;
#X obj -721 482 r rate.rampa;
#X obj -804 482 r rate.to;
#X obj -887 482 r rate.from;
#X obj -970 342 spigot;
#X obj -610 396 spigot;
#X obj -842 327 tgl 15 0 empty empty empty 17 7 0 10 -262144 -1 -1
0 1;
#X obj -842 347 expr $f1 * -1 + 1;
#X obj -571 366 tgl 15 0 empty empty empty 17 7 0 10 -262144 -1 -1
1 1;
#X obj -571 312 loadbang;
#X msg -571 336 1;
#X obj -970 318 r rate.bang;
#X obj -842 301 r rate.fromto;
#X obj -610 933 s out;
#X obj -610 838 f;
#X obj -592 814 r channel;
#X obj -610 787 bng 15 250 50 0 empty empty empty 17 7 0 10 -262144
-1 -1;
#X obj -610 879 pack f f f, f 26;
#X obj -970 787 bng 15 250 50 0 empty empty empty 17 7 0 10 -262144
-1 -1;
#X obj -970 932 s out;
#X obj -970 838 f;
#X obj -952 814 r channel;
#X obj -970 879 pack f f f f, f 36;
#X obj -970 702 spigot;
#X obj -610 756 spigot;
#X obj -842 687 tgl 15 0 empty empty empty 17 7 0 10 -262144 -1 -1
0 1;
#X obj -842 707 expr $f1 * -1 + 1;
#X obj -571 726 tgl 15 0 empty empty empty 17 7 0 10 -262144 -1 -1
1 1;
#X obj -571 672 loadbang;
#X msg -571 696 1;
#X obj -842 661 r pan.fromto;
#X obj -521 842 r pan.to;
#X obj -431 842 r pan.rampa;
#X obj -970 678 r pan.bang;
#X obj -721 842 r pan.rampa;
#X obj -804 842 r pan.to;
#X obj -887 842 r pan.from;
#X msg -970 908 spatializer-\$1.panning.rampfromto \$2 \$3 \$4 \;;
#X msg -610 909 spatializer-\$1.panning.ramp \$2 \$3;
#X msg 231 166 0;
#X msg 381 166 0;
#X msg 111 476 sampleplayer-\$1.volume.ramp 1 0.1;
#X connect 2 0 5 0;
#X connect 3 0 2 1;
#X connect 4 0 2 0;
#X connect 5 0 59 0;
#X connect 6 0 5 2;
#X connect 7 0 10 0;
#X connect 8 0 7 1;
#X connect 9 0 103 0;
#X connect 10 0 58 0;
#X connect 11 0 10 2;
#X connect 12 0 134 0;
#X connect 13 0 84 0;
#X connect 14 0 15 0;
#X connect 17 0 126 0;
#X connect 18 0 61 0;
#X connect 18 0 83 0;
#X connect 19 0 21 0;
#X connect 22 0 85 0;
#X connect 23 0 82 0;
#X connect 24 0 25 0;
#X connect 33 0 13 0;
#X connect 34 0 18 0;
#X connect 35 0 23 0;
#X connect 36 0 39 0;
#X connect 37 0 22 0;
#X connect 38 0 37 0;
#X connect 39 0 22 0;
#X connect 40 0 43 0;
#X connect 41 0 12 0;
#X connect 42 0 41 0;
#X connect 43 0 12 0;
#X connect 44 0 45 0;
#X connect 45 0 12 0;
#X connect 46 0 52 0;
#X connect 47 0 53 0;
#X connect 48 0 54 0;
#X connect 49 0 55 0;
#X connect 50 0 51 0;
#X connect 51 0 17 0;
#X connect 52 0 17 0;
#X connect 53 0 17 0;
#X connect 54 0 17 0;
#X connect 55 0 17 0;
#X connect 56 0 57 0;
#X connect 57 0 22 0;
#X connect 58 0 1 0;
#X connect 59 0 0 0;
#X connect 60 0 26 0;
#X connect 61 0 20 0;
#X connect 62 0 16 0;
#X connect 67 0 46 0;
#X connect 67 0 44 0;
#X connect 67 0 37 0;
#X connect 68 0 72 0;
#X connect 68 0 92 0;
#X connect 69 0 75 0;
#X connect 69 0 96 0;
#X connect 70 0 78 0;
#X connect 70 0 99 0;
#X connect 72 0 189 0;
#X connect 73 0 72 1;
#X connect 75 0 80 0;
#X connect 76 0 75 1;
#X connect 78 0 81 0;
#X connect 79 0 78 1;
#X connect 80 0 74 0;
#X connect 81 0 77 0;
#X connect 82 0 60 0;
#X connect 83 0 61 0;
#X connect 84 0 62 0;
#X connect 85 0 86 0;
#X connect 86 0 109 0;
#X connect 87 0 90 0;
#X connect 88 0 94 0;
#X connect 89 0 97 0;
#X connect 90 0 91 0;
#X connect 91 0 92 1;
#X connect 92 0 93 0;
#X connect 92 0 38 0;
#X connect 93 0 35 0;
#X connect 93 0 101 0;
#X connect 93 0 121 0;
#X connect 94 0 95 0;
#X connect 95 0 96 1;
#X connect 96 0 46 0;
#X connect 96 0 187 0;
#X connect 97 0 98 0;
#X connect 98 0 99 1;
#X connect 99 0 44 0;
#X connect 99 0 188 0;
#X connect 100 0 92 0;
#X connect 100 0 96 0;
#X connect 100 0 99 0;
#X connect 101 0 120 0;
#X connect 103 0 111 0;
#X connect 104 0 103 1;
#X connect 105 0 7 0;
#X connect 106 0 111 3;
#X connect 107 0 102 0;
#X connect 108 0 10 1;
#X connect 110 0 111 2;
#X connect 111 0 107 0;
#X connect 112 0 111 1;
#X connect 113 0 9 0;
#X connect 114 0 105 0;
#X connect 115 0 116 0;
#X connect 115 0 113 1;
#X connect 116 0 117 0;
#X connect 117 0 114 1;
#X connect 118 0 113 0;
#X connect 118 0 114 0;
#X connect 120 0 119 0;
#X connect 121 0 122 0;
#X connect 123 0 115 0;
#X connect 124 0 125 0;
#X connect 125 0 117 0;
#X connect 126 0 130 0;
#X connect 127 0 129 0;
#X connect 128 0 133 0;
#X connect 129 0 131 0;
#X connect 130 0 132 0;
#X connect 134 0 141 0;
#X connect 135 0 140 0;
#X connect 136 0 138 0;
#X connect 140 0 139 0;
#X connect 141 0 137 0;
#X connect 142 0 5 1;
#X connect 143 0 145 0;
#X connect 145 0 147 0;
#X connect 146 0 145 1;
#X connect 147 0 148 0;
#X connect 148 0 144 0;
#X connect 149 0 147 3;
#X connect 150 0 147 2;
#X connect 151 0 147 1;
#X connect 152 0 143 0;
#X connect 153 0 4 0;
#X connect 154 0 155 0;
#X connect 154 0 152 1;
#X connect 155 0 156 0;
#X connect 156 0 153 1;
#X connect 157 0 158 0;
#X connect 158 0 156 0;
#X connect 159 0 152 0;
#X connect 159 0 153 0;
#X connect 160 0 154 0;
#X connect 162 0 165 0;
#X connect 163 0 162 1;
#X connect 164 0 162 0;
#X connect 165 0 186 0;
#X connect 166 0 168 0;
#X connect 168 0 170 0;
#X connect 169 0 168 1;
#X connect 170 0 185 0;
#X connect 171 0 166 0;
#X connect 172 0 164 0;
#X connect 173 0 174 0;
#X connect 173 0 171 1;
#X connect 174 0 175 0;
#X connect 175 0 172 1;
#X connect 176 0 177 0;
#X connect 177 0 175 0;
#X connect 178 0 173 0;
#X connect 179 0 165 1;
#X connect 180 0 165 2;
#X connect 181 0 171 0;
#X connect 181 0 172 0;
#X connect 182 0 170 3;
#X connect 183 0 170 2;
#X connect 184 0 170 1;
#X connect 185 0 167 0;
#X connect 186 0 161 0;
#X connect 187 0 34 0;
#X connect 187 0 127 0;
#X connect 187 0 128 0;
#X connect 188 0 33 0;
#X connect 188 0 135 0;
#X connect 188 0 136 0;
#X connect 189 0 71 0;
#X coords 0 -1 1 1 460 260 2 100 100;
#X restore 37 384 pd gui.3;
#N canvas 0 23 1280 668 gui.4 0;
#X obj 115 169 hsl 100 10 -24 24 0 0 empty empty -24/24 110 7 0 10
-232576 -1 -1 4950 1;
#X floatatom 112 236 5 0 20 0 - - -;
#X obj 112 272 bng 25 250 50 0 empty empty Enviar_PitchShift 0 -7 0
12 -232576 -1 -1;
#X obj 115 222 hsl 100 10 0 10 0 0 empty empty 0/10s 110 7 0 10 -232576
-1 -1 0 1;
#X obj 112 147 bng 15 250 50 0 empty empty -24 0 -8 0 10 -232576 -1
-1;
#X obj 202 147 bng 15 250 50 0 empty empty 24 0 -8 0 10 -232576 -1
-1;
#X obj 158 147 bng 15 250 50 0 empty empty 0 0 -8 0 10 -232576 -1 -1
;
#X obj 112 259 * 1000;
#X msg 158 125 0;
#X text 109 203 Rampa del Pitch;
#X obj 112 282 s pitch.bang;
#X obj 112 286 s pitch.rampa;
#X obj 112 312 bng 25 250 50 0 empty empty Reset_PitchShift 0 -7 0
12 -159808 -1 -1;
#X obj -540 673 s out;
#X obj -540 579 f;
#X obj -522 555 r channel;
#X obj -540 620 pack f f f, f 26;
#X obj -361 583 r ring.rampa;
#X msg -540 649 audioprocessing-\$1.ringmodulator.freq.ramp \$2 \$3
;
#X obj 269 169 hsl 100 10 0 4000 0 0 empty empty 0/4000 110 7 0 10
-261234 -1 -1 0 1;
#X floatatom 266 236 5 0 20 0 - - -;
#X obj 266 272 bng 25 250 50 0 empty empty Enviar_RingMod 0 -7 0 12
-261234 -1 -1;
#X obj 269 222 hsl 100 10 0 10 0 0 empty empty 0/10s 110 7 0 10 -261234
-1 -1 0 1;
#X obj 266 147 bng 15 250 50 0 empty empty 0 0 -8 0 10 -261234 -1 -1
;
#X obj 356 147 bng 15 250 50 0 empty empty 4000 0 -8 0 10 -261234 -1
-1;
#X obj 312 147 bng 15 250 50 0 empty empty 2000 0 -8 0 10 -261234 -1
-1;
#X obj 266 259 * 1000;
#X obj 266 312 bng 25 250 50 0 empty empty Reset_RingMod 0 -7 0 12
-258113 -1 -1;
#X msg 266 125 0;
#X text 263 203 Rampa del RingMod;
#X obj 266 286 s ring.rampa;
#X obj 266 282 s ring.bang;
#X obj 266 342 s ring.reset;
#X floatatom 152 183 5 -24 24 0 - - -;
#X msg 312 125 2000;
#X msg 356 125 4000;
#X msg 202 125 24;
#X msg 112 125 -24;
#X obj 135 147 bng 15 250 50 0 empty empty -12 0 -8 0 10 -232576 -1
-1;
#X obj 181 147 bng 15 250 50 0 empty empty 12 0 -8 0 10 -232576 -1
-1;
#X msg 181 125 12;
#X msg 137 125 -12;
#X text 109 112 PITCH SHIFTER;
#X text 263 112 RING MODULATION;
#X obj -310 29 cnv 15 100 60 empty empty empty 20 12 0 14 -233017 -66577
0;
#X obj 158 68 loadbang;
#X obj 43 240 clip 0 20;
#X obj 197 240 clip 0 20;
#X obj 142 312 tgl 25 0 empty empty Hold 1 13 0 10 -262144 -1 -1 0
1;
#X obj 142 372 * -1;
#X obj 142 396 + 1;
#X obj 82 415 spigot 1;
#X msg 82 164 0;
#X obj 296 312 tgl 25 0 empty empty Hold 1 13 0 10 -262144 -1 -1 0
1;
#X obj 296 372 * -1;
#X obj 296 396 + 1;
#X obj 232 415 spigot 1;
#X msg 232 164 0;
#X floatatom 112 183 5 -24 24 0 - - -;
#X obj -133 221 clip -24 24;
#X obj -133 201 clip -24 24;
#X obj -38 226 s pitch.to;
#X obj -38 206 s pitch.from;
#X obj 193 183 tgl 15 0 empty empty from-to 15 7 0 10 -262144 -1 -1
0 1;
#X obj -540 322 s out;
#X obj -540 228 f;
#X obj -522 204 r channel;
#X obj -970 177 bng 15 250 50 0 empty empty empty 17 7 0 10 -262144
-1 -1;
#X obj -540 269 pack f f f, f 26;
#X obj -970 322 s out;
#X obj -970 228 f;
#X obj -952 204 r channel;
#X obj -540 177 bng 15 250 50 0 empty empty empty 17 7 0 10 -262144
-1 -1;
#X obj -970 269 pack f f f f, f 36;
#X obj -970 102 spigot;
#X obj -540 146 spigot;
#X obj -842 87 tgl 15 0 empty empty empty 17 7 0 10 -262144 -1 -1 0
1;
#X obj -842 107 expr $f1 * -1 + 1;
#X obj -501 126 tgl 15 0 empty empty empty 17 7 0 10 -262144 -1 -1
1 1;
#X obj -501 72 loadbang;
#X msg -501 96 1;
#X obj -451 232 r pitch.to;
#X obj -361 232 r pitch.rampa;
#X obj -721 232 r pitch.rampa;
#X obj -804 232 r pitch.to;
#X obj -887 232 r pitch.from;
#X obj -970 78 r pitch.bang;
#X obj -842 61 r pitch.fromto;
#X obj 193 203 s pitch.fromto;
#X floatatom 306 183 5 0 4000 0 - - -;
#X floatatom 266 183 5 0 4000 0 - - -;
#X obj 347 183 tgl 15 0 empty empty from-to 15 7 0 10 -262144 -1 -1
0 1;
#X obj 171 207 clip 0 4000;
#X obj 171 227 clip 0 4000;
#X obj 266 226 s ring.to;
#X obj 266 206 s ring.from;
#X obj 347 203 s ring.fromto;
#X obj -19 396 r reset.all;
#X obj -451 583 r ring.to;
#X obj -970 527 bng 15 250 50 0 empty empty empty 17 7 0 10 -262144
-1 -1;
#X obj -970 452 spigot;
#X obj -540 496 spigot;
#X obj -842 437 tgl 15 0 empty empty empty 17 7 0 10 -262144 -1 -1
0 1;
#X obj -842 457 expr $f1 * -1 + 1;
#X obj -501 476 tgl 15 0 empty empty empty 17 7 0 10 -262144 -1 -1
1 1;
#X obj -501 422 loadbang;
#X msg -501 446 1;
#X obj -970 428 r ring.bang;
#X obj -970 672 s out;
#X obj -970 578 f;
#X obj -952 554 r channel;
#X obj -970 619 pack f f f f, f 36;
#X obj -540 527 bng 15 250 50 0 empty empty empty 17 7 0 10 -262144
-1 -1;
#X obj -721 582 r ring.rampa;
#X obj -804 582 r ring.to;
#X obj -887 582 r ring.from;
#X obj -842 411 r ring.fromto;
#X msg -970 298 audioprocessing-\$1.pitchshifter.transp.rampfromto
\$2 \$3 \$4 \;;
#X msg -540 298 audioprocessing-\$1.pitchshifter.transp.ramp \$2 \$3
;
#X obj 112 523 s out;
#X obj 112 475 f;
#X obj 130 451 r channel;
#X msg 112 499 audioprocessing-\$1.pitchshifter.reset bang;
#X msg -970 648 audioprocessing-\$1.ringmodulator.freq.rampfromto \$2
\$3 \$4 \;;
#X obj 232 603 s out;
#X obj 232 555 f;
#X obj 250 531 r channel;
#X msg 232 579 audioprocessing-\$1.ringmodulator.reset bang;
#X connect 0 0 33 0;
#X connect 1 0 46 0;
#X connect 2 0 10 0;
#X connect 3 0 1 0;
#X connect 4 0 37 0;
#X connect 5 0 36 0;
#X connect 6 0 8 0;
#X connect 7 0 11 0;
#X connect 8 0 0 0;
#X connect 12 0 51 0;
#X connect 12 0 120 0;
#X connect 14 0 16 0;
#X connect 15 0 14 1;
#X connect 16 0 18 0;
#X connect 17 0 16 2;
#X connect 18 0 13 0;
#X connect 19 0 89 0;
#X connect 20 0 47 0;
#X connect 21 0 31 0;
#X connect 22 0 20 0;
#X connect 23 0 28 0;
#X connect 24 0 35 0;
#X connect 25 0 34 0;
#X connect 26 0 30 0;
#X connect 27 0 32 0;
#X connect 27 0 56 0;
#X connect 28 0 19 0;
#X connect 33 0 59 0;
#X connect 34 0 19 0;
#X connect 35 0 19 0;
#X connect 36 0 0 0;
#X connect 37 0 0 0;
#X connect 38 0 41 0;
#X connect 39 0 40 0;
#X connect 40 0 0 0;
#X connect 41 0 0 0;
#X connect 45 0 6 0;
#X connect 45 0 23 0;
#X connect 46 0 7 0;
#X connect 47 0 26 0;
#X connect 48 0 49 0;
#X connect 49 0 50 0;
#X connect 50 0 51 1;
#X connect 51 0 6 0;
#X connect 51 0 52 0;
#X connect 52 0 3 0;
#X connect 52 0 58 0;
#X connect 52 0 63 0;
#X connect 53 0 54 0;
#X connect 54 0 55 0;
#X connect 55 0 56 1;
#X connect 56 0 57 0;
#X connect 56 0 23 0;
#X connect 56 0 125 0;
#X connect 57 0 22 0;
#X connect 57 0 90 0;
#X connect 57 0 91 0;
#X connect 58 0 60 0;
#X connect 59 0 61 0;
#X connect 60 0 62 0;
#X connect 63 0 88 0;
#X connect 65 0 68 0;
#X connect 66 0 65 1;
#X connect 67 0 70 0;
#X connect 68 0 118 0;
#X connect 70 0 73 0;
#X connect 71 0 70 1;
#X connect 72 0 65 0;
#X connect 73 0 117 0;
#X connect 74 0 67 0;
#X connect 75 0 72 0;
#X connect 76 0 77 0;
#X connect 76 0 74 1;
#X connect 77 0 78 0;
#X connect 78 0 75 1;
#X connect 79 0 80 0;
#X connect 80 0 78 0;
#X connect 81 0 68 1;
#X connect 82 0 68 2;
#X connect 83 0 73 3;
#X connect 84 0 73 2;
#X connect 85 0 73 1;
#X connect 86 0 74 0;
#X connect 86 0 75 0;
#X connect 87 0 76 0;
#X connect 89 0 93 0;
#X connect 90 0 92 0;
#X connect 91 0 96 0;
#X connect 92 0 95 0;
#X connect 93 0 94 0;
#X connect 97 0 51 0;
#X connect 97 0 56 0;
#X connect 98 0 16 1;
#X connect 99 0 109 0;
#X connect 100 0 99 0;
#X connect 101 0 112 0;
#X connect 102 0 103 0;
#X connect 102 0 100 1;
#X connect 103 0 104 0;
#X connect 104 0 101 1;
#X connect 105 0 106 0;
#X connect 106 0 104 0;
#X connect 107 0 100 0;
#X connect 107 0 101 0;
#X connect 109 0 111 0;
#X connect 110 0 109 1;
#X connect 111 0 123 0;
#X connect 112 0 14 0;
#X connect 113 0 111 3;
#X connect 114 0 111 2;
#X connect 115 0 111 1;
#X connect 116 0 102 0;
#X connect 117 0 69 0;
#X connect 118 0 64 0;
#X connect 120 0 122 0;
#X connect 121 0 120 1;
#X connect 122 0 119 0;
#X connect 123 0 108 0;
#X connect 125 0 127 0;
#X connect 126 0 125 1;
#X connect 127 0 124 0;
#X coords 0 -1 1 1 320 240 2 100 100;
#X restore 37 650 pd gui.4;
#N canvas 0 23 1280 668 gui.5 0;
#X obj 114 877 s out;
#X obj 114 826 f;
#X obj 132 802 r channel;
#X obj 114 781 bng 15 250 50 0 empty empty empty 17 7 0 10 -262144
-1 -1;
#X obj 112 182 hsl 100 10 0 1500 0 0 empty empty 0/1500ms 110 7 0 10
-61312 -1 -1 660 1;
#X floatatom 109 342 5 0 20 0 - - -;
#X obj 109 382 bng 25 250 50 0 empty empty Enviar_Delay 0 -10 0 12
-61312 -1 -1;
#X obj 112 328 hsl 100 10 0 10 0 0 empty empty 0/10s 110 7 0 10 -61312
-1 -1 0 1;
#X obj 109 160 bng 15 250 50 0 empty empty 0 0 -8 0 10 -61312 -1 -1
;
#X obj 199 160 bng 15 250 50 0 empty empty 1500 0 -8 0 10 -61312 -1
-1;
#X obj 155 160 bng 15 250 50 0 empty empty 750 0 -8 0 10 -61312 -1
-1;
#X obj 109 365 * 1000;
#X obj 109 429 bng 25 250 50 0 empty empty Reset_Delay 0 -10 0 12 -47204
-1 -1;
#X msg 109 135 0;
#X text 106 130 Delay Time;
#X text 106 309 Rampa del Delay;
#X obj 109 386 s delay.rampa;
#X obj 109 412 s delay.bang;
#X obj 109 459 s delay.reset;
#X obj 114 753 r delay.reset;
#X obj 112 271 hsl 100 10 0 10000 0 0 empty empty 0/10000ms 110 7 0
10 -61312 -1 -1 0 1;
#X obj 109 249 bng 15 250 50 0 empty empty 0 0 -8 0 10 -61312 -1 -1
;
#X obj 199 249 bng 15 250 50 0 empty empty 10000 0 -8 0 10 -61312 -1
-1;
#X obj 155 249 bng 15 250 50 0 empty empty 5000 0 -8 0 10 -61312 -1
-1;
#X text 106 220 Delay Feedback;
#X msg 109 223 0;
#X obj 114 1037 s out;
#X obj 114 986 f;
#X obj 132 962 r channel;
#X obj 114 941 bng 15 250 50 0 empty empty empty 17 7 0 10 -262144
-1 -1;
#X obj 114 913 r rev.reset;
#X obj 113 1213 s out;
#X obj 113 1119 f;
#X obj 131 1095 r channel;
#X obj 113 1160 pack f f, f 21;
#X obj 225 1076 r rev.freeze;
#X obj 225 1100 t b f;
#X obj 284 182 hsl 100 10 0 1 0 0 empty empty 0/1 110 7 0 10 -228856
-1 -1 0 1;
#X floatatom 281 430 5 0 20 0 - - -;
#X obj 281 468 bng 25 250 50 0 empty empty Enviar_Reverb 0 -10 0 12
-228856 -1 -1;
#X obj 284 415 hsl 100 10 0 10 0 0 empty empty 0/10s 110 7 0 10 -228856
-1 -1 0 1;
#X obj 281 160 bng 15 250 50 0 empty empty 0 0 -8 0 10 -228856 -1 -1
;
#X obj 371 160 bng 15 250 50 0 empty empty 1 0 -8 0 10 -228856 -1 -1
;
#X obj 327 160 bng 15 250 50 0 empty empty 0-5 0 -8 0 10 -228856 -1
-1;
#X obj 281 453 * 1000;
#X obj 281 508 bng 25 250 50 0 empty empty Reset_Delay 0 -7 0 12 -128992
-1 -1;
#X msg 281 135 0;
#X msg 327 135 0.5;
#X msg 371 135 1;
#X obj 284 269 hsl 100 10 0 1 0 0 empty empty 0/1 110 7 0 10 -228856
-1 -1 4950 1;
#X obj 281 247 bng 15 250 50 0 empty empty 0 0 -8 0 10 -228856 -1 -1
;
#X obj 371 247 bng 15 250 50 0 empty empty 1 0 -8 0 10 -228856 -1 -1
;
#X obj 327 247 bng 15 250 50 0 empty empty 0-5 0 -8 0 10 -228856 -1
-1;
#X msg 281 222 0;
#X msg 327 222 0.5;
#X msg 371 222 1;
#X text 278 218 Reverb Roomsize;
#X obj 284 358 hsl 100 10 0 2 0 0 empty empty 0/2 110 7 0 10 -228856
-1 -1 0 1;
#X obj 281 336 bng 15 250 50 0 empty empty 0 0 -8 0 10 -228856 -1 -1
;
#X obj 371 336 bng 15 250 50 0 empty empty 2 0 -8 0 10 -228856 -1 -1
;
#X obj 327 336 bng 15 250 50 0 empty empty 1 0 -8 0 10 -228856 -1 -1
;
#X msg 281 311 0;
#X floatatom 149 285 5 0 10000 0 - - -;
#X floatatom 149 196 5 0 1500 0 - - -;
#X floatatom 321 196 5 0 1 0 - - -;
#X floatatom 321 283 5 0 1 0 - - -;
#X floatatom 321 372 5 0 2 0 - - -;
#X text 278 307 Reverb Damping;
#X text 278 396 Rampa del Reverb;
#X obj 281 498 s rev.bang;
#X obj 281 472 s rev.rampa;
#X obj 281 538 s rev.reset;
#X obj 363 508 tgl 25 0 empty empty On/Off 28 13 0 10 -228856 -1 -1
0 1;
#X obj 363 538 s rev.freeze;
#X msg 327 311 1;
#X msg 371 311 2;
#X text 278 130 Reverb Dry/Wet;
#X msg 155 135 750;
#X msg 199 135 1500;
#X msg 155 222 5000;
#X msg 199 222 10000;
#X obj -292 61 cnv 15 100 60 empty empty empty 20 12 0 14 -233017 -66577
0;
#X text 360 491 Freeze;
#X text 109 110 DELAY;
#X text 279 110 REVERB;
#X obj 139 429 tgl 25 0 empty empty Hold 1 13 0 10 -262144 -1 -1 0
1;
#X obj 139 489 * -1;
#X obj 139 513 + 1;
#X obj 79 532 spigot 1;
#X msg 79 163 100;
#X msg 79 177 0;
#X obj 311 508 tgl 25 0 empty empty Hold 1 13 0 10 -262144 -1 -1 0
1;
#X obj 311 568 * -1;
#X obj 311 592 + 1;
#X obj 249 611 spigot 1;
#X msg 249 177 0;
#X msg 249 250 0.5;
#X msg 249 339 0;
#X obj -11 513 r reset.all;
#X obj 159 592 r reset.all;
#X msg 79 266 0;
#X msg 249 396 0;
#X obj 108 234 s delay.to;
#X obj -14 215 clip 0 1500;
#X obj 109 325 s delay.fb.to;
#X obj -21 286 clip 0 10000;
#X floatatom 109 196 5 0 1500 0 - - -;
#X obj -14 195 clip 0 1500;
#X obj 108 215 s delay.from;
#X floatatom 109 285 5 0 10000 0 - - -;
#X obj 109 303 s delay.fb.from;
#X obj -21 306 clip 0 10000;
#X obj 10 346 clip 0 20;
#X obj -790 52 s out;
#X obj -790 -42 f;
#X obj -772 -66 r channel;
#X obj -1220 -93 bng 15 250 50 0 empty empty empty 17 7 0 10 -262144
-1 -1;
#X obj -790 -1 pack f f f, f 26;
#X obj -1220 52 s out;
#X obj -1220 -42 f;
#X obj -1202 -66 r channel;
#X obj -790 -93 bng 15 250 50 0 empty empty empty 17 7 0 10 -262144
-1 -1;
#X obj -1220 -1 pack f f f f, f 36;
#X obj -1220 -168 spigot;
#X obj -790 -124 spigot;
#X obj -1092 -183 tgl 15 0 empty empty empty 17 7 0 10 -262144 -1 -1
0 1;
#X obj -1092 -163 expr $f1 * -1 + 1;
#X obj -751 -144 tgl 15 0 empty empty empty 17 7 0 10 -262144 -1 -1
1 1;
#X obj -751 -198 loadbang;
#X msg -751 -174 1;
#X obj -701 -38 r delay.to;
#X obj -611 -38 r delay.rampa;
#X obj -971 -38 r delay.rampa;
#X obj -1054 -38 r delay.to;
#X obj -1137 -38 r delay.from;
#X obj -1092 -209 r delay.fromto;
#X obj 190 196 tgl 15 0 empty empty from-to 15 7 0 10 -262144 -1 -1
0 1;
#X obj 190 216 s delay.fromto;
#X obj -790 432 s out;
#X obj -790 338 f;
#X obj -772 314 r channel;
#X obj -1220 287 bng 15 250 50 0 empty empty empty 17 7 0 10 -262144
-1 -1;
#X obj -790 379 pack f f f, f 26;
#X obj -1220 432 s out;
#X obj -1220 338 f;
#X obj -1202 314 r channel;
#X obj -790 287 bng 15 250 50 0 empty empty empty 17 7 0 10 -262144
-1 -1;
#X obj -1220 379 pack f f f f, f 36;
#X obj -1220 212 spigot;
#X obj -790 256 spigot;
#X obj -1092 197 tgl 15 0 empty empty empty 17 7 0 10 -262144 -1 -1
0 1;
#X obj -1092 217 expr $f1 * -1 + 1;
#X obj -751 236 tgl 15 0 empty empty empty 17 7 0 10 -262144 -1 -1
1 1;
#X obj -751 182 loadbang;
#X msg -751 206 1;
#X obj -1092 171 r delay.fb.fromto;
#X obj -701 342 r delay.fb.to;
#X obj -611 342 r delay.rampa;
#X obj -971 342 r delay.rampa;
#X obj -1054 342 r delay.fb.to;
#X obj -1137 342 r delay.fb.from;
#X msg -790 408 audioprocessing-\$1.delay.feedbacktime.ramp \$2 \$3
;
#X msg -1220 408 audioprocessing-\$1.delay.feedbacktime.rampfromto
\$2 \$3 \$4;
#X obj -1220 128 bng 15 250 50 0 empty empty empty 17 7 0 10 -262144
-1 -1;
#X obj -1188 109 del 150;
#X obj -1220 -212 t b b;
#X obj -1220 -246 r delay.bang;
#X obj 190 285 tgl 15 0 empty empty from-to 15 7 0 10 -262144 -1 -1
0 1;
#X obj 190 305 s delay.fb.fromto;
#X obj 206 217 clip 0 1;
#X obj 281 236 s rev.wet.to;
#X floatatom 281 196 5 0 1 0 - - -;
#X obj 206 197 clip 0 1;
#X obj 281 216 s rev.wet.from;
#X obj 362 196 tgl 15 0 empty empty from-to 15 7 0 10 -262144 -1 -1
0 1;
#X obj 281 320 s rev.room.to;
#X obj 201 301 clip 0 1;
#X floatatom 281 283 5 0 1 0 - - -;
#X obj 201 281 clip 0 1;
#X obj 281 300 s rev.room.from;
#X obj 362 283 tgl 15 0 empty empty from-to 15 7 0 10 -262144 -1 -1
0 1;
#X obj 362 303 s rev.room.fromto;
#X obj 362 216 s rev.wet.fromto;
#X obj 281 390 s rev.damp.from;
#X obj 281 410 s rev.damp.to;
#X obj 201 371 clip 0 2;
#X obj 201 391 clip 0 2;
#X floatatom 281 372 5 0 2 0 - - -;
#X obj 362 372 tgl 15 0 empty empty from-to 15 7 0 10 -262144 -1 -1
0 1;
#X obj 362 392 s rev.damp.fromto;
#X obj 202 434 clip 0 20;
#X msg 363 588 0;
#X msg 113 1189 audioprocessing-\$1.reverb.freeze \$2;
#X msg 114 853 audioprocessing-\$1.delay.reset bang;
#X msg 114 1013 audioprocessing-\$1.reverb.reset bang;
#X obj -790 862 s out;
#X obj -790 768 f;
#X obj -772 744 r channel;
#X obj -1220 717 bng 15 250 50 0 empty empty empty 17 7 0 10 -262144
-1 -1;
#X obj -790 809 pack f f f, f 26;
#X obj -1220 862 s out;
#X obj -1220 768 f;
#X obj -1202 744 r channel;
#X obj -790 717 bng 15 250 50 0 empty empty empty 17 7 0 10 -262144
-1 -1;
#X obj -1220 809 pack f f f f, f 36;
#X obj -1220 642 spigot;
#X obj -790 686 spigot;
#X obj -1092 627 tgl 15 0 empty empty empty 17 7 0 10 -262144 -1 -1
0 1;
#X obj -1092 647 expr $f1 * -1 + 1;
#X obj -751 666 tgl 15 0 empty empty empty 17 7 0 10 -262144 -1 -1
1 1;
#X obj -751 612 loadbang;
#X msg -751 636 1;
#X obj -790 1242 s out;
#X obj -790 1148 f;
#X obj -772 1124 r channel;
#X obj -1220 1097 bng 15 250 50 0 empty empty empty 17 7 0 10 -262144
-1 -1;
#X obj -790 1189 pack f f f, f 26;
#X obj -1220 1242 s out;
#X obj -1220 1148 f;
#X obj -1202 1124 r channel;
#X obj -790 1097 bng 15 250 50 0 empty empty empty 17 7 0 10 -262144
-1 -1;
#X obj -1220 1189 pack f f f f, f 36;
#X obj -1220 1022 spigot;
#X obj -790 1066 spigot;
#X obj -1092 1007 tgl 15 0 empty empty empty 17 7 0 10 -262144 -1 -1
0 1;
#X obj -1092 1027 expr $f1 * -1 + 1;
#X obj -751 1046 tgl 15 0 empty empty empty 17 7 0 10 -262144 -1 -1
1 1;
#X obj -751 992 loadbang;
#X msg -751 1016 1;
#X obj -1220 938 bng 15 250 50 0 empty empty empty 17 7 0 10 -262144
-1 -1;
#X obj -1220 598 t b b;
#X obj -1220 564 r rev.bang;
#X obj -611 772 r rev.rampa;
#X obj -971 772 r rev.rampa;
#X obj -611 1152 r rev.rampa;
#X obj -701 1152 r rev.room.to;
#X obj -1092 981 r rev.room.fromto;
#X obj -971 1152 r rev.rampa;
#X obj -1054 1152 r rev.room.to;
#X obj -1137 1152 r rev.room.from;
#X msg -1220 1218 audioprocessing-\$1.reverb.roomsize.rampfromto \$2
\$3 \$4;
#X msg -790 1218 audioprocessing-\$1.reverb.roomsize.ramp \$2 \$3;
#X msg -1220 838 audioprocessing-\$1.reverb.wet.rampfromto \$2 \$3
\$4;
#X obj -1054 772 r rev.wet.to;
#X obj -1092 601 r rev.wet.fromto;
#X obj -701 772 r rev.wet.to;
#X obj -1137 772 r rev.wet.from;
#X msg -790 838 audioprocessing-\$1.reverb.wet.ramp \$2 \$3;
#X obj -790 1632 s out;
#X obj -790 1538 f;
#X obj -772 1514 r channel;
#X obj -1220 1487 bng 15 250 50 0 empty empty empty 17 7 0 10 -262144
-1 -1;
#X obj -790 1579 pack f f f, f 26;
#X obj -1220 1632 s out;
#X obj -1220 1538 f;
#X obj -1202 1514 r channel;
#X obj -790 1487 bng 15 250 50 0 empty empty empty 17 7 0 10 -262144
-1 -1;
#X obj -1220 1579 pack f f f f, f 36;
#X obj -1220 1412 spigot;
#X obj -790 1456 spigot;
#X obj -1092 1397 tgl 15 0 empty empty empty 17 7 0 10 -262144 -1 -1
0 1;
#X obj -1092 1417 expr $f1 * -1 + 1;
#X obj -751 1436 tgl 15 0 empty empty empty 17 7 0 10 -262144 -1 -1
1 1;
#X obj -751 1382 loadbang;
#X msg -751 1406 1;
#X obj -1220 1328 bng 15 250 50 0 empty empty empty 17 7 0 10 -262144
-1 -1;
#X obj -611 1542 r rev.rampa;
#X obj -971 1542 r rev.rampa;
#X obj -1092 1371 r rev.damp.fromto;
#X obj -701 1542 r rev.damp.to;
#X obj -1054 1542 r rev.damp.to;
#X obj -1137 1542 r rev.damp.from;
#X msg -790 1608 audioprocessing-\$1.reverb.damping.ramp \$2 \$3;
#X msg -1220 1608 audioprocessing-\$1.reverb.damping.rampfromto \$2
\$3 \$4;
#X obj -1188 919 del 130;
#X obj -1188 1309 del 130;
#X msg -1220 28 audioprocessing-\$1.delay.time.rampfromto \$2 \$3 \$4
;
#X msg -790 28 audioprocessing-\$1.delay.time.ramp \$2 \$3;
#X connect 1 0 193 0;
#X connect 2 0 1 1;
#X connect 3 0 1 0;
#X connect 4 0 63 0;
#X connect 5 0 112 0;
#X connect 6 0 17 0;
#X connect 7 0 5 0;
#X connect 8 0 13 0;
#X connect 9 0 78 0;
#X connect 10 0 77 0;
#X connect 11 0 16 0;
#X connect 12 0 18 0;
#X connect 12 0 88 0;
#X connect 13 0 4 0;
#X connect 19 0 3 0;
#X connect 20 0 62 0;
#X connect 21 0 25 0;
#X connect 22 0 80 0;
#X connect 23 0 79 0;
#X connect 25 0 20 0;
#X connect 27 0 194 0;
#X connect 28 0 27 1;
#X connect 29 0 27 0;
#X connect 30 0 29 0;
#X connect 32 0 34 0;
#X connect 33 0 32 1;
#X connect 34 0 192 0;
#X connect 35 0 36 0;
#X connect 36 0 32 0;
#X connect 36 1 34 1;
#X connect 37 0 64 0;
#X connect 38 0 190 0;
#X connect 39 0 69 0;
#X connect 40 0 38 0;
#X connect 41 0 46 0;
#X connect 42 0 48 0;
#X connect 43 0 47 0;
#X connect 44 0 70 0;
#X connect 45 0 71 0;
#X connect 45 0 94 0;
#X connect 45 0 191 0;
#X connect 46 0 37 0;
#X connect 47 0 37 0;
#X connect 48 0 37 0;
#X connect 49 0 65 0;
#X connect 50 0 53 0;
#X connect 51 0 55 0;
#X connect 52 0 54 0;
#X connect 53 0 49 0;
#X connect 54 0 49 0;
#X connect 55 0 49 0;
#X connect 57 0 66 0;
#X connect 58 0 61 0;
#X connect 59 0 75 0;
#X connect 60 0 74 0;
#X connect 61 0 57 0;
#X connect 62 0 111 0;
#X connect 63 0 103 0;
#X connect 64 0 169 0;
#X connect 65 0 176 0;
#X connect 66 0 186 0;
#X connect 72 0 73 0;
#X connect 74 0 57 0;
#X connect 75 0 57 0;
#X connect 77 0 4 0;
#X connect 78 0 4 0;
#X connect 79 0 20 0;
#X connect 80 0 20 0;
#X connect 85 0 86 0;
#X connect 86 0 87 0;
#X connect 87 0 88 1;
#X connect 88 0 90 0;
#X connect 88 0 100 0;
#X connect 88 0 89 0;
#X connect 89 0 4 0;
#X connect 89 0 106 0;
#X connect 90 0 20 0;
#X connect 90 0 136 0;
#X connect 91 0 92 0;
#X connect 92 0 93 0;
#X connect 93 0 94 1;
#X connect 94 0 97 0;
#X connect 94 0 96 0;
#X connect 94 0 95 0;
#X connect 94 0 101 0;
#X connect 94 0 191 0;
#X connect 95 0 37 0;
#X connect 95 0 180 0;
#X connect 95 0 174 0;
#X connect 95 0 171 0;
#X connect 96 0 49 0;
#X connect 96 0 177 0;
#X connect 97 0 57 0;
#X connect 97 0 187 0;
#X connect 97 0 188 0;
#X connect 98 0 88 0;
#X connect 99 0 94 0;
#X connect 100 0 7 0;
#X connect 100 0 109 0;
#X connect 100 0 5 0;
#X connect 100 0 167 0;
#X connect 101 0 40 0;
#X connect 103 0 102 0;
#X connect 105 0 110 0;
#X connect 106 0 107 0;
#X connect 107 0 108 0;
#X connect 109 0 105 0;
#X connect 111 0 104 0;
#X connect 112 0 11 0;
#X connect 114 0 117 0;
#X connect 115 0 114 1;
#X connect 116 0 119 0;
#X connect 117 0 277 0;
#X connect 119 0 122 0;
#X connect 120 0 119 1;
#X connect 121 0 114 0;
#X connect 122 0 276 0;
#X connect 123 0 116 0;
#X connect 124 0 121 0;
#X connect 125 0 126 0;
#X connect 125 0 123 1;
#X connect 126 0 127 0;
#X connect 127 0 124 1;
#X connect 128 0 129 0;
#X connect 129 0 127 0;
#X connect 130 0 117 1;
#X connect 131 0 117 2;
#X connect 132 0 122 3;
#X connect 133 0 122 2;
#X connect 134 0 122 1;
#X connect 135 0 125 0;
#X connect 136 0 137 0;
#X connect 139 0 142 0;
#X connect 140 0 139 1;
#X connect 141 0 144 0;
#X connect 142 0 161 0;
#X connect 144 0 147 0;
#X connect 145 0 144 1;
#X connect 146 0 139 0;
#X connect 147 0 162 0;
#X connect 148 0 141 0;
#X connect 149 0 146 0;
#X connect 150 0 151 0;
#X connect 150 0 148 1;
#X connect 151 0 152 0;
#X connect 152 0 149 1;
#X connect 153 0 154 0;
#X connect 154 0 152 0;
#X connect 155 0 150 0;
#X connect 156 0 142 1;
#X connect 157 0 142 2;
#X connect 158 0 147 3;
#X connect 159 0 147 2;
#X connect 160 0 147 1;
#X connect 161 0 138 0;
#X connect 162 0 143 0;
#X connect 163 0 148 0;
#X connect 163 0 149 0;
#X connect 164 0 163 0;
#X connect 165 0 123 0;
#X connect 165 0 124 0;
#X connect 165 1 164 0;
#X connect 166 0 165 0;
#X connect 167 0 168 0;
#X connect 169 0 170 0;
#X connect 171 0 172 0;
#X connect 172 0 173 0;
#X connect 174 0 182 0;
#X connect 176 0 175 0;
#X connect 177 0 178 0;
#X connect 178 0 179 0;
#X connect 180 0 181 0;
#X connect 185 0 183 0;
#X connect 186 0 184 0;
#X connect 187 0 185 0;
#X connect 188 0 189 0;
#X connect 190 0 44 0;
#X connect 191 0 72 0;
#X connect 192 0 31 0;
#X connect 193 0 0 0;
#X connect 194 0 26 0;
#X connect 196 0 199 0;
#X connect 197 0 196 1;
#X connect 198 0 201 0;
#X connect 199 0 247 0;
#X connect 201 0 204 0;
#X connect 202 0 201 1;
#X connect 203 0 196 0;
#X connect 204 0 242 0;
#X connect 205 0 198 0;
#X connect 206 0 203 0;
#X connect 207 0 208 0;
#X connect 207 0 205 1;
#X connect 208 0 209 0;
#X connect 209 0 206 1;
#X connect 210 0 211 0;
#X connect 211 0 209 0;
#X connect 213 0 216 0;
#X connect 214 0 213 1;
#X connect 215 0 218 0;
#X connect 216 0 241 0;
#X connect 218 0 221 0;
#X connect 219 0 218 1;
#X connect 220 0 213 0;
#X connect 221 0 240 0;
#X connect 222 0 215 0;
#X connect 223 0 220 0;
#X connect 224 0 225 0;
#X connect 224 0 222 1;
#X connect 225 0 226 0;
#X connect 226 0 223 1;
#X connect 227 0 228 0;
#X connect 228 0 226 0;
#X connect 229 0 222 0;
#X connect 229 0 223 0;
#X connect 230 0 205 0;
#X connect 230 0 206 0;
#X connect 230 1 274 0;
#X connect 231 0 230 0;
#X connect 232 0 199 2;
#X connect 233 0 204 3;
#X connect 234 0 216 2;
#X connect 235 0 216 1;
#X connect 236 0 224 0;
#X connect 237 0 221 3;
#X connect 238 0 221 2;
#X connect 239 0 221 1;
#X connect 240 0 217 0;
#X connect 241 0 212 0;
#X connect 242 0 200 0;
#X connect 243 0 204 2;
#X connect 244 0 207 0;
#X connect 245 0 199 1;
#X connect 246 0 204 1;
#X connect 247 0 195 0;
#X connect 249 0 252 0;
#X connect 250 0 249 1;
#X connect 251 0 254 0;
#X connect 252 0 272 0;
#X connect 254 0 257 0;
#X connect 255 0 254 1;
#X connect 256 0 249 0;
#X connect 257 0 273 0;
#X connect 258 0 251 0;
#X connect 259 0 256 0;
#X connect 260 0 261 0;
#X connect 260 0 258 1;
#X connect 261 0 262 0;
#X connect 262 0 259 1;
#X connect 263 0 264 0;
#X connect 264 0 262 0;
#X connect 265 0 258 0;
#X connect 265 0 259 0;
#X connect 266 0 252 2;
#X connect 267 0 257 3;
#X connect 268 0 260 0;
#X connect 269 0 252 1;
#X connect 270 0 257 2;
#X connect 271 0 257 1;
#X connect 272 0 248 0;
#X connect 273 0 253 0;
#X connect 274 0 229 0;
#X connect 274 0 275 0;
#X connect 275 0 265 0;
#X connect 276 0 118 0;
#X connect 277 0 113 0;
#X coords 0 -1 1 1 330 440 2 100 100;
#X restore 37 896 pd gui.5;
#X text 556 31 INSTRUCCIONES;
#X text 556 71 SELECCIÓN Y CARGA DE CARPETAS Y SAMPLES;
#X text 556 201 RECORDATORIOS;
#X text 556 537 Los efectos son manipulados mediante rampas \, por
lo cual primero hay que setear los parámetros del efecto \, después
designar el tiempo de la rampa \, y por último presionar el botón
de envío.;
#X text 556 608 La única excepción al recordatorio anterior es el
toggle Freeze del efecto Reverb. Este tiene efecto al instante en que
es activado o desactivado.;
#X text 556 282 Para navegar entre carpetas \, se debe usar el Hradio
de color rojo etiquetado como <Seleccionar Carpeta>. El Hradio etiquetado
como <Index> tiene como función la carga de las carpetas a los índices
\, y no sirve para la visualización.;
#X text 556 151 3 SELECCIONAR UNA CARPETA Y CARGAR UN SAMPLE (Archivo)
;
#X text 556 905 El botón blanco de RESET ubicado en el el reproductor
de sample resetea todos los parámetros a su valor por defecto.;
#N canvas 0 23 450 300 gui.out 0;
#X obj -242 256 r out;
#X obj -172 275 print;
#X obj -242 300 s messages-0;
#X connect 0 0 1 0;
#X connect 0 0 2 0;
#X restore 37 30 pd gui.out;
#X text 556 231 El patch de servidor no recibe mensajes en intervalos
de tiempo menor a 100 ms (1/10 de segundo) por lo cual hay que enviar
los mensajes a un ritmo un tanto pausado;
#N canvas 654 23 626 668 gui.6 0;
#X obj 112 187 hsl 100 10 0 1 0 0 empty empty 0/1 110 7 0 10 -196607
-1 -1 9900 1;
#X obj 109 165 bng 15 250 50 0 empty empty 0 0 -8 0 10 -196607 -1 -1
;
#X obj 199 165 bng 15 250 50 0 empty empty 1 0 -8 0 10 -196607 -1 -1
;
#X obj 155 165 bng 15 250 50 0 empty empty 0-5 0 -8 0 10 -196607 -1
-1;
#X msg 109 140 0;
#X msg 155 140 0.5;
#X msg 199 140 1;
#X floatatom 149 201 5 0 1 0 - - -;
#X obj -292 61 cnv 15 100 60 empty empty empty 20 12 0 14 -233017 -66577
0;
#X msg 77 182 0;
#X obj -250 412 s out;
#X obj -250 318 f;
#X obj -232 294 r channel;
#X obj -680 267 bng 15 250 50 0 empty empty empty 17 7 0 10 -262144
-1 -1;
#X obj -250 359 pack f f f, f 26;
#X obj -680 412 s out;
#X obj -680 318 f;
#X obj -662 294 r channel;
#X obj -250 267 bng 15 250 50 0 empty empty empty 17 7 0 10 -262144
-1 -1;
#X obj -680 359 pack f f f f, f 36;
#X obj -680 192 spigot;
#X obj -250 236 spigot;
#X obj -552 177 tgl 15 0 empty empty empty 17 7 0 10 -262144 -1 -1
1 1;
#X obj -552 197 expr $f1 * -1 + 1;
#X obj -211 216 tgl 15 0 empty empty empty 17 7 0 10 -262144 -1 -1
0 1;
#X obj -211 162 loadbang;
#X msg -211 186 1;
#X obj -680 148 t b b;
#X obj 34 222 clip 0 1;
#X floatatom 109 201 5 0 1 0 - - -;
#X obj 34 202 clip 0 1;
#X obj 190 201 tgl 15 0 empty empty from-to 15 7 0 10 -262144 -1 -1
1 1;
#X msg -250 388 audioprocessing-\$1.wet.ramp \$2 \$3;
#X obj -71 322 r mod.rampa;
#X obj -161 322 r mod.to;
#X obj -552 151 r mod.fromto;
#X obj -680 114 r mod.bang;
#X obj -431 322 r mod.rampa;
#X obj -514 322 r mod.to;
#X obj -597 322 r mod.from;
#X text 107 110 MODULO;
#X text 106 135 Dry/Wet;
#X floatatom 109 245 5 0 20 0 - - -;
#X obj 109 283 bng 25 250 50 0 empty empty Enviar_Modulo 0 -10 0 12
-196607 -1 -1;
#X obj 112 230 hsl 100 10 0 10 0 0 empty empty 0/10s 110 7 0 10 -196607
-1 -1 0 1;
#X obj 109 268 * 1000;
#X obj 109 323 bng 25 250 50 0 empty empty Reset_Modulo 0 -7 0 12 -108903
-1 -1;
#X obj 139 323 tgl 25 0 empty empty Hold 1 13 0 10 -262144 -1 -1 0
1;
#X obj 139 383 * -1;
#X obj 139 407 + 1;
#X obj 77 426 spigot 1;
#X obj -13 407 r reset.all;
#X obj 30 249 clip 0 20;
#X obj 190 221 s mod.fromto;
#X obj 109 241 s mod.to;
#X obj 109 221 s mod.from;
#X obj 109 287 s mod.rampa;
#X obj 109 313 s mod.bang;
#X obj 109 527 s out;
#X obj 109 479 f;
#X obj 127 455 r channel;
#X msg 109 503 audioprocessing-\$1.wet.ramp 1 0.1;
#X msg -680 388 audioprocessing-\$1.wet.rampfromto \$2 \$3 \$4;
#X obj 199 66 loadbang;
#X connect 0 0 7 0;
#X connect 1 0 4 0;
#X connect 2 0 6 0;
#X connect 3 0 5 0;
#X connect 4 0 0 0;
#X connect 5 0 0 0;
#X connect 6 0 0 0;
#X connect 7 0 28 0;
#X connect 9 0 44 0;
#X connect 9 0 31 0;
#X connect 11 0 14 0;
#X connect 12 0 11 1;
#X connect 13 0 16 0;
#X connect 14 0 32 0;
#X connect 16 0 19 0;
#X connect 17 0 16 1;
#X connect 18 0 11 0;
#X connect 19 0 62 0;
#X connect 20 0 13 0;
#X connect 21 0 18 0;
#X connect 22 0 23 0;
#X connect 22 0 20 1;
#X connect 23 0 24 0;
#X connect 24 0 21 1;
#X connect 25 0 26 0;
#X connect 26 0 24 0;
#X connect 27 0 20 0;
#X connect 27 0 21 0;
#X connect 28 0 54 0;
#X connect 29 0 30 0;
#X connect 30 0 55 0;
#X connect 31 0 53 0;
#X connect 32 0 10 0;
#X connect 33 0 14 2;
#X connect 34 0 14 1;
#X connect 35 0 22 0;
#X connect 36 0 27 0;
#X connect 37 0 19 3;
#X connect 38 0 19 2;
#X connect 39 0 19 1;
#X connect 42 0 52 0;
#X connect 43 0 57 0;
#X connect 44 0 42 0;
#X connect 45 0 56 0;
#X connect 46 0 50 0;
#X connect 46 0 59 0;
#X connect 47 0 48 0;
#X connect 48 0 49 0;
#X connect 49 0 50 1;
#X connect 50 0 2 0;
#X connect 50 0 9 0;
#X connect 51 0 50 0;
#X connect 52 0 45 0;
#X connect 59 0 61 0;
#X connect 60 0 59 1;
#X connect 61 0 58 0;
#X connect 62 0 15 0;
#X connect 63 0 6 0;
#X coords 0 -1 1 1 155 260 2 100 100;
#X restore 372 1076 pd gui.6;
#X text 556 101 1 ESCOGER EL CANAL/INSTANCIA;
#X text 556 121 2 CARGAR LAS CARPETAS EN LOS INDEX (las carpetas por
defecto son sample0 \, sample1 \, sample2 \, etc.);
#X text 556 349 El botón de Pause detiene la reproduccción en el
punto de sample donde se encuentra. Se puede retomar la reproducción
desde este punto presinando el botón de Resume.;
#X text 556 498 El botón de loop inicia la reproducción del sample
al ser activado y la detiene con stop al ser desactivado.;
#X text 556 442 La posición de inicio nos permite reproducir el sample
desde el punto que indiquemos. Para utilizarlo primero debemos activar
el toggle \, indicar la posición y presionar play.;
#X text 556 403 El botón de stop detiene la reproducción y reinicia
el sample a su punto inicial.;
#X text 556 667 El toggle blanco 'from-to' (que se encuentra debajo
de configuración de rampa de cada parámetro) permite utilizar una
rampa especial 'from-to' en la que podemos especificar el valor de
partida y el valor de llegada. Observamos dos cajas de número en esta
sección: la que está a la izquierda corresponde al valor de partida
\, no tiene asignado un slider por lo que tendremos que introducir
el valor directamente en la caja de número \; la que está a la derecha
corresponde al valor de llegada y también al slider. Si quisiéramos
actvar una rampa convencional \, simplemente dejar el toggle 'from-to'
desactivado.;
#X text 556 835 El apartado 'MODULO' controla la cantidad de presencia
de procesamiento en nuestra señal de audio \, siendo '0' una señal
cruda sin proceso y '1' una señal procesada al 100% según hayamos
configurado los parámetros.;
#N canvas 0 23 1280 668 clock 0;
#X obj 1071 149 f;
#X obj 1071 173 + 1;
#X floatatom 1071 221 5 0 0 0 - - -;
#X obj 1071 97 tgl 15 0 empty empty empty 17 7 0 10 -262144 -1 -1 0
1;
#X obj 1071 292 f;
#X obj 1071 316 + 1;
#X floatatom 1071 364 5 0 0 0 - - -;
#X obj 1017 273 - 1;
#X obj 1017 130 - 1;
#X msg 1017 104 0;
#X obj 1071 124 metro 10;
#X obj 1071 197 % 100;
#X obj 1071 244 sel 99;
#X obj 1071 268 del 10;
#X obj 1071 340 % 60;
#X obj 1071 387 sel 59;
#X obj 1071 411 del 1000;
#X obj 1071 435 f;
#X obj 1071 459 + 1;
#X obj 1017 416 - 1;
#X obj 1071 483 % 60;
#X floatatom 1071 507 5 0 0 0 - - -;
#X obj 929 239 s mil;
#X obj 929 382 s sec;
#X obj 929 525 s min;
#X obj 89 460 cnv 15 100 60 empty empty empty 20 12 0 14 -233017 -66577
0;
#X obj 108 6 r min;
#X obj 162 6 r sec;
#X obj 216 6 r mil;
#X floatatom 108 199 5 0 0 2 Min - -;
#X floatatom 162 199 5 0 0 2 Seg - -;
#X floatatom 216 199 5 0 0 2 Ms - -;
#X obj 108 150 bng 30 250 50 0 empty empty Start 0 -10 0 12 -4034 -1
-1;
#X obj 148 150 bng 30 250 50 0 empty empty Pause 0 -10 0 12 -261234
-1 -1;
#X obj 188 150 bng 30 250 50 0 empty empty Reset 0 -10 0 12 -260097
-1 -1;
#X obj 228 150 bng 30 250 50 0 empty empty Stop 0 -10 0 12 -258113
-1 -1;
#X msg 1071 41 1;
#X msg 1071 71 0;
#X obj 960 22 r clock.start;
#X obj 960 52 r clock.stop;
#X obj 910 85 r clock.reset;
#X obj 760 28 r clock.stopandreset;
#X obj 760 52 t b b;
#X obj 760 89 bng 15 250 50 0 empty empty empty 17 7 0 10 -262144 -1
-1;
#X obj 496 180 s clock.start;
#X obj 396 180 s clock.stop;
#X obj 296 180 s clock.reset;
#X obj 606 180 s clock.stopandreset;
#X text 107 106 RELOJ;
#X connect 0 0 1 0;
#X connect 1 0 0 1;
#X connect 1 0 11 0;
#X connect 2 0 12 0;
#X connect 2 0 22 0;
#X connect 3 0 10 0;
#X connect 4 0 5 0;
#X connect 5 0 4 1;
#X connect 5 0 14 0;
#X connect 6 0 15 0;
#X connect 6 0 23 0;
#X connect 7 0 4 0;
#X connect 8 0 0 0;
#X connect 9 0 8 0;
#X connect 9 0 7 0;
#X connect 9 0 19 0;
#X connect 10 0 0 0;
#X connect 11 0 2 0;
#X connect 12 0 13 0;
#X connect 13 0 4 0;
#X connect 14 0 6 0;
#X connect 15 0 16 0;
#X connect 16 0 17 0;
#X connect 17 0 18 0;
#X connect 18 0 17 1;
#X connect 18 0 20 0;
#X connect 19 0 17 1;
#X connect 20 0 21 0;
#X connect 21 0 24 0;
#X connect 26 0 29 0;
#X connect 27 0 30 0;
#X connect 28 0 31 0;
#X connect 32 0 44 0;
#X connect 33 0 45 0;
#X connect 34 0 46 0;
#X connect 35 0 47 0;
#X connect 36 0 3 0;
#X connect 37 0 3 0;
#X connect 38 0 36 0;
#X connect 39 0 37 0;
#X connect 40 0 9 0;
#X connect 41 0 42 0;
#X connect 42 0 43 0;
#X connect 42 1 37 0;
#X connect 43 0 9 0;
#X coords 0 -1 1 1 165 120 2 100 100;
#X restore 332 45 pd clock;
