#N canvas -8 -8 1858 1037 12;
#X obj 46 48 inlet~;
#X obj 107 48 inlet~;
#X obj 76 318 *~;
#X obj 199 324 *~;
#X obj 129 367 +~;
#X obj 129 393 outlet~;
#X text 37 14 inlet~(1): audio0 \, inlet~(2): audio1 inlet: crossfade
level (0 \, 1), f 67;
#X obj 236 48 inlet;
#X obj 223 259 cos~;
#X obj 283 149 line~;
#X obj 226 224 *~ 0.25;
#X obj 342 274 *~ 0.25;
#X obj 342 226 -~ 1;
#X obj 342 250 abs~;
#X obj 339 300 cos~;
#X obj 236 120 pack f 50;
#X connect 0 0 2 0;
#X connect 1 0 3 0;
#X connect 2 0 4 0;
#X connect 3 0 4 1;
#X connect 4 0 5 0;
#X connect 7 0 15 0;
#X connect 8 0 2 1;
#X connect 9 0 10 0;
#X connect 9 0 12 0;
#X connect 10 0 8 0;
#X connect 11 0 14 0;
#X connect 12 0 13 0;
#X connect 13 0 11 0;
#X connect 14 0 3 1;
#X connect 15 0 9 0;
