#N canvas -8 -8 1858 1037 12;
#X obj 187 52 inlet;
#X obj 46 48 inlet~;
#X text 278 150 conversion de grados a radianes (0 a 90 grados);
#X obj 107 48 inlet~;
#X obj 150 195 cos;
#X obj 191 197 sin;
#X obj 179 139 * 0.0174533;
#X obj 194 284 line~;
#X obj 122 270 line~;
#X obj 76 318 *~;
#X obj 199 324 *~;
#X obj 122 248 pack f 30;
#X obj 194 262 pack f 30;
#X obj 179 90 * 90;
#X obj 129 367 +~;
#X obj 129 393 outlet~;
#X text 37 14 inlet~(1): audio0 \, inlet~(2): audio1 inlet: crossfade
level (0 \, 1), f 67;
#X connect 0 0 13 0;
#X connect 1 0 9 0;
#X connect 3 0 10 0;
#X connect 4 0 11 0;
#X connect 5 0 12 0;
#X connect 6 0 4 0;
#X connect 6 0 5 0;
#X connect 7 0 10 1;
#X connect 8 0 9 1;
#X connect 9 0 14 0;
#X connect 10 0 14 1;
#X connect 11 0 8 0;
#X connect 12 0 7 0;
#X connect 13 0 6 0;
#X connect 14 0 15 0;
