#N canvas -8 -8 1858 1037 12;
#X obj 238 52 inlet;
#X obj 46 48 inlet~;
#X obj 87 313 *~;
#X obj 161 327 *~;
#X obj 161 348 outlet~;
#X obj 87 334 outlet~;
#X obj 107 48 inlet~;
#X obj 178 262 cos~;
#X obj 238 152 line~;
#X obj 181 227 *~ 0.25;
#X obj 297 250 *~ 0.25;
#X obj 297 202 -~ 1;
#X obj 297 226 abs~;
#X obj 294 276 cos~;
#X obj 238 76 / 2;
#X obj 238 100 + 0.5;
#X obj 238 124 pack f 50;
#N canvas 570 233 1858 1037 metodoanterior 0;
#X obj 62 139 cos;
#X obj 103 141 sin;
#X obj 91 83 * 0.0174533;
#X obj 106 228 line~;
#X obj 34 214 line~;
#X obj 92 24 * 45;
#X obj 92 45 + 45;
#X obj 34 192 pack f 30;
#X obj 106 206 pack f 30;
#X obj 88 0 inlet;
#X obj 37 267 outlet~;
#X obj 125 267 outlet~;
#X connect 0 0 7 0;
#X connect 1 0 8 0;
#X connect 2 0 0 0;
#X connect 2 0 1 0;
#X connect 3 0 11 0;
#X connect 4 0 10 0;
#X connect 5 0 6 0;
#X connect 6 0 2 0;
#X connect 7 0 4 0;
#X connect 8 0 3 0;
#X connect 9 0 5 0;
#X restore 414 221 pd metodoanterior;
#X text 394 58 Jorge Quispe (2020) https://github.com/jlquispec;
#X text 37 16 inlet~(1): M(L) \, inlet~(2): M(R) \, inlet: position
(-1 \, 1);
#X text 392 94 Panorámico de intensidad (intensity panning).Se implementó
la ecuación del libro Música y Espacio de Pablo DiLiscia \, se usa
la técnica de energía constante sen^2 + cos^2 = 1 (también conocida
como panorámico coseno/seno) para posicionar una señal mono en un
espacio stereo \, para señales stereo de entrada (L/R) funciona como
un balance ya que no reposiciona la imagen (fake panning).;
#X connect 0 0 14 0;
#X connect 1 0 2 0;
#X connect 2 0 5 0;
#X connect 3 0 4 0;
#X connect 6 0 3 0;
#X connect 7 0 2 1;
#X connect 8 0 9 0;
#X connect 8 0 11 0;
#X connect 9 0 7 0;
#X connect 10 0 13 0;
#X connect 11 0 12 0;
#X connect 12 0 10 0;
#X connect 13 0 3 1;
#X connect 14 0 15 0;
#X connect 15 0 16 0;
#X connect 16 0 8 0;
