#N canvas -8 -8 1858 1037 12;
#X obj 161 190 cos;
#X obj 202 192 sin;
#X obj 190 134 * 0.0174533;
#X obj 205 279 line~;
#X obj 133 265 line~;
#X obj 191 51 inlet;
#X obj 46 48 inlet~;
#X obj 87 313 *~;
#X obj 161 327 *~;
#X obj 161 348 outlet~;
#X obj 87 334 outlet~;
#X obj 191 75 * 45;
#X obj 191 96 + 45;
#X text 285 133 conversion de grados a radianes (0 a 90 grados);
#X obj 107 48 inlet~;
#X text 37 16 inlet~(1): audio0 \, inlet~(2): audio1 inlet: position
(-1 \, 1);
#X obj 133 243 pack f 30;
#X obj 205 257 pack f 30;
#X connect 0 0 16 0;
#X connect 1 0 17 0;
#X connect 2 0 0 0;
#X connect 2 0 1 0;
#X connect 3 0 8 1;
#X connect 4 0 7 1;
#X connect 5 0 11 0;
#X connect 6 0 7 0;
#X connect 7 0 10 0;
#X connect 8 0 9 0;
#X connect 11 0 12 0;
#X connect 12 0 2 0;
#X connect 14 0 8 0;
#X connect 16 0 4 0;
#X connect 17 0 3 0;
