#N canvas -8 -8 1858 1037 12;
#X obj 502 424 *~;
#X obj 582 428 *~;
#X floatatom 642 288 5 0 0 0 - - -;
#X obj 639 201 f;
#X obj 642 263 spigot;
#X msg 578 256 0;
#X obj 576 223 sel 0 1;
#X obj 638 122 t b f;
#X obj 640 71 r c-mainoutput-switch;
#X text 25 60 MAIN OUTPUT (STEREO);
#X obj 517 377 line~;
#X obj 642 315 pack f 30;
#X obj 781 114 r c-mainoutput-volume;
#X msg 1238 573 stop;
#X obj 702 726 writesf~ 2;
#X obj 890 493 sel 1 0;
#X obj 163 148 vu 10 120 empty empty -1 -8 0 10 -66577 -1 1 0;
#X obj 114 148 vu 10 120 empty empty -1 -8 0 10 -66577 -1 1 0;
#X obj 517 607 *~;
#X obj 586 617 *~;
#X obj 555 540 limiter~ 50 1;
#X obj 584 583 z~ 64;
#X obj 494 541 z~ 64;
#X obj 554 719 dac~;
#X text 623 585 pequeñisimo delay de 64 samples;
#X floatatom 113 121 5 0 0 0 - - -;
#X floatatom 162 121 5 0 0 0 - - -;
#X obj 517 643 hip~ 1;
#X obj 587 645 hip~ 1;
#X obj 207 636 env~;
#X obj 439 702 env~;
#X text 248 635 antes colocaba 128;
#X obj 207 657 - 96;
#X obj 439 723 - 96;
#X obj 222 184 vsl 15 85 0 1 0 0 c-mainoutput-volume c-mainoutput-volume
Volume 0 -9 0 10 -262144 -1 -1 8400 1;
#X text 31 14 INPUTS: c-mainoutput-volume c-mainoutput-panning a-mainoutput-0
a-mainoutput-1;
#X obj 222 151 tgl 15 1 empty empty mute 17 7 0 10 -262144 -1 -1 0
1;
#X text 371 511 LIMITADOR GLOBAL USANDO ZEXY;
#X obj 92 459 loadbang;
#X obj 890 560 symbol;
#X obj 222 119 tgl 23 0 c-mainoutput-dspswitch c-mainoutput-dspswitch
DSP 25 10 0 10 -261234 -1 -1 1 1;
#X msg 55 385 \; pd dsp \$1;
#X msg 288 274 \; c-mainoutput-switch \$1;
#X obj 305 195 == 0;
#X msg 91 485 \; c-mainoutput-dspswitch 1 \; c-mainoutput-volume 1
\;;
#X obj 38 335 r c-mainoutput-dspswitch;
#X obj 427 101 inlet~;
#X obj 940 180 inlet~;
#X obj 358 152 catch~ s-mainoutput-in0;
#X obj 764 170 catch~ s-mainoutput-in1;
#X text 923 353 METHODS;
#X msg 890 598 open -bytes 3 ../\$1 \, start;
#X obj 947 443 t b s;
#X obj 890 459 tgl 15 0 empty empty empty 17 7 0 10 -262144 -1 -1 0
1;
#X obj 948 391 r mainoutput.recording.start;
#X obj 1238 395 r mainoutput.recording.stop;
#X obj 948 417 unpack s f;
#X obj 1063 488 delay;
#X obj 1063 456 t b f;
#X connect 0 0 20 0;
#X connect 0 0 22 0;
#X connect 1 0 21 0;
#X connect 1 0 20 1;
#X connect 2 0 11 0;
#X connect 3 0 4 0;
#X connect 4 0 2 0;
#X connect 5 0 2 0;
#X connect 6 0 5 0;
#X connect 6 1 3 0;
#X connect 7 0 3 0;
#X connect 7 1 4 1;
#X connect 7 1 6 0;
#X connect 8 0 7 0;
#X connect 10 0 0 1;
#X connect 10 0 1 1;
#X connect 11 0 10 0;
#X connect 12 0 3 0;
#X connect 13 0 14 0;
#X connect 13 0 57 0;
#X connect 15 0 39 0;
#X connect 15 1 13 0;
#X connect 18 0 27 0;
#X connect 19 0 28 0;
#X connect 20 0 19 0;
#X connect 20 0 18 1;
#X connect 21 0 19 1;
#X connect 22 0 18 0;
#X connect 25 0 17 0;
#X connect 26 0 16 0;
#X connect 27 0 14 0;
#X connect 27 0 29 0;
#X connect 27 0 23 0;
#X connect 28 0 14 1;
#X connect 28 0 30 0;
#X connect 28 0 23 1;
#X connect 29 0 32 0;
#X connect 30 0 33 0;
#X connect 32 0 25 0;
#X connect 33 0 26 0;
#X connect 34 0 3 0;
#X connect 36 0 43 0;
#X connect 38 0 44 0;
#X connect 39 0 51 0;
#X connect 43 0 42 0;
#X connect 45 0 41 0;
#X connect 46 0 0 0;
#X connect 47 0 1 0;
#X connect 48 0 0 0;
#X connect 49 0 1 0;
#X connect 51 0 14 0;
#X connect 52 0 39 0;
#X connect 52 1 39 1;
#X connect 53 0 15 0;
#X connect 54 0 56 0;
#X connect 55 0 13 0;
#X connect 56 0 52 0;
#X connect 56 1 58 0;
#X connect 57 0 13 0;
#X connect 58 0 57 0;
#X connect 58 1 57 1;
#X coords 0 -1 1 1 170 180 1 100 100;
