#N canvas -8 -8 1858 1037 12;
#X obj 502 424 *~;
#X obj 582 428 *~;
#X floatatom 642 288 5 0 0 0 - - -;
#X obj 638 195 f;
#X obj 638 244 spigot;
#X msg 797 243 0;
#X obj 753 125 sel 0 1;
#X obj 638 122 t b f;
#X text 25 60 MAIN OUTPUT (STEREO);
#X obj 517 377 line~;
#X obj 642 315 pack f 30;
#X msg 1246 598 stop;
#X obj 702 726 writesf~ 2;
#X obj 162 218 vu 12 120 empty empty -1 -8 0 10 -13381 -1 1 0;
#X obj 113 218 vu 12 120 empty empty -1 -8 0 10 -66577 -1 1 0;
#X obj 517 607 *~;
#X obj 587 610 *~;
#X obj 555 540 limiter~ 50 1;
#X obj 582 508 z~ 64;
#X obj 484 513 z~ 64;
#X text 638 580 pequeñisimo delay de 64 samples;
#X floatatom 112 188 5 0 0 0 - - -;
#X floatatom 161 188 5 0 0 0 - - -;
#X obj 517 643 hip~ 1;
#X obj 587 645 hip~ 1;
#X obj 421 736 env~;
#X obj 385 574 env~;
#X obj 223 219 vsl 18 118 0 1 0 0 \$0-mainoutput-volume \$0-mainoutput-volume
VOLUME -8 -10 0 10 -261682 -1 -1 22900 1;
#X obj 223 180 tgl 18 1 \$0-mainoutput-mute \$0-mainoutput-mute MUTE
20 9 0 10 -262130 -258113 -1 0 1;
#X text 621 462 LIMITADOR GLOBAL USANDO ZEXY;
#X obj 1254 85 loadbang;
#X obj 1140 407 symbol;
#X obj 216 116 tgl 25 0 \$0-mainoutput-dspswitch \$0-mainoutput-dspswitch
DSP 28 12 0 12 -232576 -1 -1 1 1;
#X msg 422 918 \; pd dsp \$1;
#X obj 703 62 == 0;
#X obj 333 369 catch~ s-mainoutput-in0;
#X obj 616 366 catch~ s-mainoutput-in1;
#X text 1069 169 METHODS;
#X obj 1117 219 r mainoutput.recording.start;
#X obj 1246 560 r mainoutput.recording.stop;
#X msg 1253 113 \; mainoutput.reset bang \;;
#X obj 1193 378 i;
#X obj 1227 378 + 1;
#X obj 1117 313 sel 1 0;
#X text 1122 192 OVERWRITE \, FILENAME;
#X obj 1117 278 unpack f s;
#X obj 978 490 symbol;
#X obj 1140 346 t b b;
#X msg 1140 473 open -bytes 3 ../\$1_\$2.wav \, start;
#X msg 978 527 open -bytes 3 ../\$1.wav \, start;
#X obj 1140 440 pack s f;
#X obj 1279 324 t b s;
#X msg 1279 347 0;
#X obj 1219 298 sel dummy;
#X obj 522 722 dac~ 1 2;
#N canvas 662 448 1858 1037 methods 0;
#X obj 48 37 r mainoutput.reset;
#X obj 48 61 \$0;
#X msg 48 104 \; \$1-mainoutput-dspswitch 1 \; \$1-mainoutput-volume
1 \; \$1-mainoutput-mute 0 \; \$1-mainoutput-recordingfile symbol mainoutput
\;;
#X connect 0 0 1 0;
#X connect 1 0 2 0;
#X restore 999 33 pd methods;
#X obj 487 25 r \$0-mainoutput-volume;
#X obj 706 26 r \$0-mainoutput-mute;
#X obj 422 889 r \$0-mainoutput-dspswitch;
#X obj 111 128 tgl 20 0 \$0-mainoutput-rec-status \$0-mainoutput-rec-status
REC 25 11 0 12 -261234 -1 -1 0 1;
#X obj 56 430 sel 1 0;
#X obj 73 574 s mainoutput.recording.start;
#X obj 99 641 s mainoutput.recording.stop;
#X obj 421 757 - 97;
#X obj 385 595 - 97;
#X symbolatom 111 156 13 0 0 0 - #0-mainoutput-recordingfile -;
#X obj 54 495 pack f s;
#X obj 994 73 bng 15 250 50 0 empty empty empty 17 7 0 10 -262144 -1
-1;
#X obj 994 93 s mainoutput.reset;
#X obj 345 148 \$0;
#X obj 344 103 bng 15 250 50 0 empty empty empty 17 7 0 10 -262144
-1 -1;
#X msg 339 223 \; \$1-mainoutput-recordingfile symbol;
#X obj 1244 263 s \$0-mainoutput-recordingfile;
#X text 21 14 Jorge Quispe (2020) https://github.com/jlquispec;
#X obj 894 309 s \$0-mainoutput-rec-status;
#X obj 1246 656 s \$0-mainoutput-rec-status;
#X msg 894 272 1;
#X msg 1246 622 0;
#X obj 1117 248 t b a b;
#X connect 0 0 17 0;
#X connect 0 0 19 0;
#X connect 1 0 18 0;
#X connect 1 0 17 1;
#X connect 2 0 10 0;
#X connect 3 0 4 0;
#X connect 4 0 2 0;
#X connect 5 0 2 0;
#X connect 6 0 5 0;
#X connect 6 1 3 0;
#X connect 7 0 3 0;
#X connect 7 1 4 1;
#X connect 7 1 6 0;
#X connect 9 0 0 1;
#X connect 9 0 1 1;
#X connect 10 0 9 0;
#X connect 11 0 12 0;
#X connect 11 0 77 0;
#X connect 15 0 23 0;
#X connect 16 0 24 0;
#X connect 17 0 16 0;
#X connect 17 0 15 1;
#X connect 18 0 16 1;
#X connect 19 0 15 0;
#X connect 21 0 14 0;
#X connect 22 0 13 0;
#X connect 23 0 12 0;
#X connect 23 0 25 0;
#X connect 23 0 54 0;
#X connect 24 0 12 1;
#X connect 24 0 26 0;
#X connect 24 0 54 1;
#X connect 25 0 63 0;
#X connect 26 0 64 0;
#X connect 30 0 40 0;
#X connect 31 0 50 0;
#X connect 34 0 7 0;
#X connect 35 0 0 0;
#X connect 36 0 1 0;
#X connect 38 0 78 0;
#X connect 39 0 11 0;
#X connect 41 0 42 0;
#X connect 41 0 50 1;
#X connect 42 0 41 1;
#X connect 43 0 46 0;
#X connect 43 1 47 0;
#X connect 45 0 43 0;
#X connect 45 1 46 1;
#X connect 45 1 31 1;
#X connect 45 1 53 0;
#X connect 45 1 72 0;
#X connect 46 0 49 0;
#X connect 47 0 31 0;
#X connect 47 1 41 0;
#X connect 48 0 12 0;
#X connect 49 0 12 0;
#X connect 50 0 48 0;
#X connect 51 0 52 0;
#X connect 51 1 53 1;
#X connect 52 0 41 1;
#X connect 53 1 51 0;
#X connect 56 0 3 0;
#X connect 57 0 34 0;
#X connect 58 0 33 0;
#X connect 59 0 60 0;
#X connect 60 0 66 0;
#X connect 60 1 62 0;
#X connect 63 0 21 0;
#X connect 64 0 22 0;
#X connect 65 0 66 1;
#X connect 66 0 61 0;
#X connect 67 0 68 0;
#X connect 69 0 71 0;
#X connect 70 0 69 0;
#X connect 76 0 74 0;
#X connect 77 0 75 0;
#X connect 78 0 76 0;
#X connect 78 1 45 0;
#X connect 78 2 11 0;
#X coords 0 -1 1 1 170 250 1 100 100;
