#N canvas -8 -8 1858 1037 12;
#X obj 502 424 *~;
#X obj 582 428 *~;
#X floatatom 642 288 5 0 0 0 - - -;
#X obj 638 195 f;
#X obj 638 244 spigot;
#X msg 797 243 0;
#X obj 753 125 sel 0 1;
#X obj 638 122 t b f;
#X text 25 60 MAIN OUTPUT (STEREO);
#X obj 517 377 line~;
#X obj 642 315 pack f 30;
#X msg 1178 568 stop;
#X obj 702 726 writesf~ 2;
#X obj 931 374 sel 1 0;
#X obj 161 159 vu 15 120 empty empty -1 -8 0 10 -66577 -1 1 0;
#X obj 112 159 vu 15 120 empty empty -1 -8 0 10 -66577 -1 1 0;
#X obj 517 607 *~;
#X obj 586 617 *~;
#X obj 555 540 limiter~ 50 1;
#X obj 584 583 z~ 64;
#X obj 494 541 z~ 64;
#X text 623 585 pequeñisimo delay de 64 samples;
#X floatatom 111 129 5 0 0 0 - - -;
#X floatatom 160 129 5 0 0 0 - - -;
#X obj 517 643 hip~ 1;
#X obj 587 645 hip~ 1;
#X obj 217 598 env~;
#X obj 389 669 env~;
#X text 233 566 antes colocaba 128;
#X obj 217 619 - 96;
#X obj 389 690 - 96;
#X obj 218 190 vsl 15 90 0 1 0 0 &0-mainoutput-volume &0-mainoutput-volume
Volume 0 -9 0 10 -262144 -1 -1 4800 1;
#X text 31 14 INPUTS: c-mainoutput-volume c-mainoutput-panning a-mainoutput-0
a-mainoutput-1;
#X obj 218 155 tgl 15 1 empty empty mute 18 7 0 10 -262144 -1 -1 0
1;
#X text 371 511 LIMITADOR GLOBAL USANDO ZEXY;
#X obj 1254 85 loadbang;
#X obj 1140 407 symbol;
#X obj 218 125 tgl 23 0 &0-mainoutput-dspswitch &0-mainoutput-dspswitch
DSP 25 10 0 10 -261234 -1 -1 1 1;
#X msg 218 780 \; pd dsp \$1;
#X obj 377 71 == 0;
#X obj 333 369 catch~ s-mainoutput-in0;
#X obj 616 366 catch~ s-mainoutput-in1;
#X text 1069 169 METHODS;
#X obj 931 348 tgl 15 0 empty empty empty 17 7 0 10 -262144 -1 -1 0
1;
#X obj 1117 219 r mainoutput.recording.start;
#X obj 1178 530 r mainoutput.recording.stop;
#X obj 1182 674 r mainoutput.reset;
#X msg 1253 113 \; mainoutput.reset bang \;;
#X obj 218 751 r &0-mainoutput-dspswitch;
#X msg 1182 718 \; &0-mainoutput-dspswitch 1 \; &0-mainoutput-volume
1 \;;
#X obj 529 31 r &0-mainoutput-volume;
#X obj 1193 378 i;
#X obj 1227 378 + 1;
#X obj 1117 313 sel 1 0;
#X text 1122 192 OVERWRITE \, FILENAME;
#X obj 1117 278 unpack f s;
#X obj 1117 248 t a b;
#X obj 931 463 symbol;
#X obj 1140 346 t b b;
#X msg 1140 473 open -bytes 3 ../\$1_\$2.wav \, start;
#X msg 931 500 open -bytes 3 ../\$1.wav \, start;
#X obj 1140 440 pack s f;
#X obj 1279 324 t b s;
#X msg 1279 347 0;
#X obj 1219 298 sel dummy;
#X msg 377 111 \; &0-mainoutput-mute \$1 \;;
#X obj 640 71 r &0-mainoutput-mute;
#X obj 554 719 dac~ 1 2;
#X connect 0 0 18 0;
#X connect 0 0 20 0;
#X connect 1 0 19 0;
#X connect 1 0 18 1;
#X connect 2 0 10 0;
#X connect 3 0 4 0;
#X connect 4 0 2 0;
#X connect 5 0 2 0;
#X connect 6 0 5 0;
#X connect 6 1 3 0;
#X connect 7 0 3 0;
#X connect 7 1 4 1;
#X connect 7 1 6 0;
#X connect 9 0 0 1;
#X connect 9 0 1 1;
#X connect 10 0 9 0;
#X connect 11 0 12 0;
#X connect 13 0 57 0;
#X connect 13 1 11 0;
#X connect 16 0 24 0;
#X connect 17 0 25 0;
#X connect 18 0 17 0;
#X connect 18 0 16 1;
#X connect 19 0 17 1;
#X connect 20 0 16 0;
#X connect 22 0 15 0;
#X connect 23 0 14 0;
#X connect 24 0 12 0;
#X connect 24 0 26 0;
#X connect 24 0 67 0;
#X connect 25 0 12 1;
#X connect 25 0 27 0;
#X connect 25 0 67 1;
#X connect 26 0 29 0;
#X connect 27 0 30 0;
#X connect 29 0 22 0;
#X connect 30 0 23 0;
#X connect 33 0 39 0;
#X connect 35 0 47 0;
#X connect 36 0 61 0;
#X connect 39 0 65 0;
#X connect 40 0 0 0;
#X connect 41 0 1 0;
#X connect 43 0 13 0;
#X connect 44 0 56 0;
#X connect 45 0 11 0;
#X connect 46 0 49 0;
#X connect 48 0 38 0;
#X connect 50 0 3 0;
#X connect 51 0 52 0;
#X connect 51 0 61 1;
#X connect 52 0 51 1;
#X connect 53 0 57 0;
#X connect 53 1 58 0;
#X connect 55 0 53 0;
#X connect 55 1 57 1;
#X connect 55 1 36 1;
#X connect 55 1 64 0;
#X connect 56 0 55 0;
#X connect 56 1 11 0;
#X connect 57 0 60 0;
#X connect 58 0 36 0;
#X connect 58 1 51 0;
#X connect 59 0 12 0;
#X connect 60 0 12 0;
#X connect 61 0 59 0;
#X connect 62 0 63 0;
#X connect 62 1 64 1;
#X connect 63 0 51 1;
#X connect 64 1 62 0;
#X connect 66 0 7 0;
#X coords 0 -1 1 1 170 190 1 100 100;
