#N canvas -8 -8 1920 1037 12;
#X obj 524 741 netsend -u;
#X msg 547 640 disconnect;
#X obj 162 139 tgl 25 0 empty empty Connect -5 35 0 10 -228856 -1 -1
0 1;
#X floatatom 396 142 6 0 0 2 Port: - -;
#X obj 35 498 inlet;
#X floatatom 206 141 5 0 0 2 Dirección_IP - -;
#X floatatom 250 141 5 0 0 0 - - -;
#X floatatom 293 141 5 0 0 0 - - -;
#X floatatom 335 141 5 0 0 0 - - -;
#X floatatom 262 170 5 0 0 0 Status: - -;
#X msg 250 436 connect 127.0.0.1 13000;
#X obj 250 367 pack f f f f f;
#X obj 399 323 t b f;
#X obj 351 323 t b f;
#X obj 301 323 t b f;
#X obj 250 323 t b f;
#X msg 250 403 set connect \$1.\$2.\$3.\$4 \$5;
#X symbolatom 366 171 10 0 0 0 User: - -;
#X msg 151 575 send \$1;
#X obj 313 123 bng 15 250 50 0 empty empty localhost 17 7 0 10 -262144
-1 -1;
#X obj 206 11 savestate;
#X obj 299 31 pack f f f f f s;
#X obj 206 70 unpack f f f f f s;
#X obj 299 7 f;
#X msg 215 42 127 0 0 1;
#X obj 31 77 sel 0;
#X msg 31 100 0;
#X obj 35 610 list prepend send;
#X obj 35 554 spigot;
#X obj 366 220 s \$0-netoutput-user;
#X obj 151 551 r \$0-netoutput-user;
#X obj 31 11 r \$0-netoutput-status;
#X obj 524 786 s \$0-netoutput-status;
#X obj 31 43 t f f;
#X obj 75 207 s \$0-netoutput-switch;
#X obj 524 461 spigot;
#X obj 563 427 r \$0-netoutput-status;
#X obj 524 271 r \$0-netoutput-switch;
#X obj 524 365 del 1000;
#X obj 524 334 t b b;
#X obj 524 308 sel 1 0;
#X text 18 471 messages;
#X obj 35 717 list split 1;
#X obj 35 646 t a a;
#X obj 67 674 list trim;
#X obj 75 943 print client;
#X obj 75 800 list trim;
#X obj 189 785 t b b;
#X obj 171 874 f;
#X obj 75 823 t a b;
#X obj 171 899 \$1 (ms);
#X obj 171 925 print client;
#X msg 524 397 conectado;
#X obj 74 525 r \$0-netoutput-status;
#X obj 524 529 list prepend send;
#X obj 524 557 list trim;
#X obj 35 582 t a b;
#X msg 640 492 send \$1;
#X obj 640 468 r \$0-netoutput-user;
#X obj 75 755 list prepend -->;
#X obj 524 595 t a b;
#X obj 189 811 timer;
#X connect 0 0 32 0;
#X connect 1 0 0 0;
#X connect 2 0 34 0;
#X connect 3 0 12 0;
#X connect 3 0 21 4;
#X connect 4 0 28 0;
#X connect 5 0 11 0;
#X connect 5 0 23 1;
#X connect 6 0 15 0;
#X connect 6 0 21 1;
#X connect 7 0 14 0;
#X connect 7 0 21 2;
#X connect 8 0 13 0;
#X connect 8 0 21 3;
#X connect 10 0 0 0;
#X connect 11 0 16 0;
#X connect 12 0 11 0;
#X connect 12 1 11 4;
#X connect 13 0 11 0;
#X connect 13 1 11 3;
#X connect 14 0 11 0;
#X connect 14 1 11 2;
#X connect 15 0 11 0;
#X connect 15 1 11 1;
#X connect 16 0 10 0;
#X connect 17 0 21 5;
#X connect 17 0 29 0;
#X connect 18 0 27 1;
#X connect 19 0 24 0;
#X connect 20 0 22 0;
#X connect 20 1 23 0;
#X connect 21 0 20 0;
#X connect 22 0 5 0;
#X connect 22 1 6 0;
#X connect 22 2 7 0;
#X connect 22 3 8 0;
#X connect 22 4 3 0;
#X connect 22 5 17 0;
#X connect 23 0 21 0;
#X connect 24 0 22 0;
#X connect 25 0 26 0;
#X connect 26 0 2 0;
#X connect 27 0 43 0;
#X connect 28 0 56 0;
#X connect 30 0 18 0;
#X connect 31 0 33 0;
#X connect 33 0 25 0;
#X connect 33 1 9 0;
#X connect 35 0 54 0;
#X connect 36 0 35 1;
#X connect 37 0 40 0;
#X connect 38 0 52 0;
#X connect 39 0 38 0;
#X connect 39 1 10 0;
#X connect 40 0 39 0;
#X connect 40 1 1 0;
#X connect 42 1 59 0;
#X connect 43 0 42 0;
#X connect 43 1 44 0;
#X connect 44 0 0 0;
#X connect 46 0 49 0;
#X connect 47 0 61 0;
#X connect 47 1 61 1;
#X connect 48 0 50 0;
#X connect 49 0 45 0;
#X connect 49 1 48 0;
#X connect 50 0 51 0;
#X connect 52 0 35 0;
#X connect 53 0 28 1;
#X connect 54 0 55 0;
#X connect 55 0 60 0;
#X connect 56 0 27 0;
#X connect 56 1 47 0;
#X connect 57 0 54 1;
#X connect 58 0 57 0;
#X connect 59 0 46 0;
#X connect 60 0 0 0;
#X connect 60 1 47 0;
#X connect 61 0 48 1;
#X coords 0 -1 1 1 300 100 1 150 100;
