#N canvas -8 -8 1858 1037 12;
#X obj 5 74 hradio 15 1 0 8 \$0-sampleselector-folderindex \$0-sampleselector-folderindex
empty 0 -8 0 10 -262144 -1 -1 0;
#N canvas 365 185 1920 1037 samplelist-\$1 0;
#X obj 5 5 vradio 15 1 0 7 \$0-sampleselector-fileindex \$0-sampleselector-fileindex
empty 0 -6 0 8 -262144 -1 -1 0;
#X text 24 2 0_saxo_melody.wav;
#X text 24 17 1_saxo_clicks.wav;
#X text 24 32 2_saxo_chordshort.wav;
#X text 24 47 3_saxo_chord.wav;
#X text 24 62 3_saxo_chordlarge.wav;
#X text 24 77 5_saxo_frull.wav;
#X text 24 92 sax_clicks.wav;
#X coords 0 -1 1 1 230 310 2 0 0;
#X restore 5 95 pd samplelist-\$1;
#X msg 1178 658 -1;
#X symbolatom 129 72 12 0 0 2 - - -;
#X msg 1178 691 set \$1;
#X obj 1406 243 f;
#X obj 1406 181 t b f;
#X msg 1505 146 -1;
#X obj 818 263 change -1;
#X obj 1406 212 del 10;
#X text 1542 144 revisar si debe ser -1;
#X msg 818 762 read \$1;
#X obj 818 727 symbol;
#X obj 818 460 route 0 1 2 3 4 5 6 7;
#X msg 980 797 close;
#N canvas -8 -8 1858 1037 sampleloader_methods 0;
#X obj 133 21 inlet;
#X obj 1228 328 t f f;
#X obj 1322 366 div 8;
#X obj 1228 290 t f f;
#X obj 1260 363 mod 8;
#X obj 1228 460 pack f f f;
#X obj 1228 220 until;
#X obj 1228 259 f;
#X obj 1266 259 + 1;
#X msg 1279 216 0;
#X obj 1228 185 t f b;
#X obj 1260 396 * 175;
#X obj 1228 81 t f b;
#X obj 1256 155 value samplerobjects;
#X obj 1496 175 until;
#X obj 1496 214 f;
#X obj 1534 214 + 1;
#X msg 1547 171 0;
#X obj 1496 140 t f b;
#X obj 1496 111 v samplerobjects;
#X obj 1496 82 bng 15 250 50 0 empty empty empty 17 7 0 10 -262144
-1 -1;
#X obj 1322 392 * 270;
#X msg 1496 249 \; c-play_sample-action-\$1 reset \;;
#X msg 1228 502 \; pd-sampler obj \$2 \$3 loadsample-mono-2 \$1 \;
c-play_sample-action-\$1 reset \;;
#X msg 1291 111 \; pd-sampler clear \;;
#X obj 1322 418 + 30;
#X obj 1260 422 + 240;
#X obj 156 456 f;
#X obj 197 456 + 1;
#X floatatom 174 429 5 0 0 0 - - -;
#X obj 133 287 else/dir -ext .wav;
#X obj 266 386 spigot;
#X obj 133 380 t a b b;
#X obj 156 482 * 15;
#X obj 156 508 + 2;
#X msg 212 497 24;
#X obj 133 344 spigot;
#X obj 133 559 pack s f f \$1;
#X msg 133 619 \; pd-samplelist-\$4 text \$3 \$2 \$1 \;;
#X obj 656 327 else/dir -ext .wav;
#X obj 656 367 spigot;
#X msg 656 287 seek \$1;
#X obj 656 252 + 1;
#X text 1209 49 creacion de objetos;
#X text 1478 47 limpiar lector de samples;
#X msg 170 248 reset \, open ../\$1;
#X text 222 212 ubica la carpeta en subdirectorio;
#X obj 133 118 symbol;
#X msg 850 259 \; c-play_sample-action-\$1 reset \;;
#X obj 850 184 \$1;
#X obj 656 216 spigot;
#X obj 389 392 \$1;
#X msg 389 427 \; pd-samplelist-\$1 clear \;, f 24;
#X obj 350 744 outlet;
#X obj 256 323 t f f f f b;
#X obj 133 211 t b 0 s s b;
#X obj 387 519 pack f \$1;
#X msg 387 639 \; pd-samplelist-\$2 obj 5 5 vradio 15 1 0 \$1 \\\$0-sampleselector-fileindex
\\\$0-sampleselector-fileindex empty 0 -6 0 8 -262144 -1 -1 0 \;,
f 132;
#X text 761 441 SE INVOCA A METHODO DE SAMPLEPLAYER;
#X obj 133 58 route read open close clear, f 33;
#X obj 357 163 t b b;
#X msg 357 248 0;
#X obj 744 416 v \$0-sampleselector-autoplay;
#X obj 656 441 pack s s \$1 f;
#X obj 656 390 t s b;
#X msg 656 471 \; sampleplayer-\$3.openfile ../\$2 \$1 \$4 \;;
#X connect 0 0 59 0;
#X connect 1 0 5 0;
#X connect 1 1 4 0;
#X connect 2 0 21 0;
#X connect 3 0 1 0;
#X connect 3 1 2 0;
#X connect 4 0 11 0;
#X connect 5 0 23 0;
#X connect 6 0 7 0;
#X connect 7 0 8 0;
#X connect 7 0 3 0;
#X connect 8 0 7 1;
#X connect 9 0 7 1;
#X connect 10 0 6 0;
#X connect 10 1 9 0;
#X connect 11 0 26 0;
#X connect 12 0 10 0;
#X connect 12 0 13 0;
#X connect 12 1 24 0;
#X connect 14 0 15 0;
#X connect 15 0 16 0;
#X connect 15 0 22 0;
#X connect 16 0 15 1;
#X connect 17 0 15 1;
#X connect 18 0 14 0;
#X connect 18 1 17 0;
#X connect 19 0 18 0;
#X connect 20 0 19 0;
#X connect 21 0 25 0;
#X connect 25 0 5 2;
#X connect 26 0 5 1;
#X connect 27 0 28 0;
#X connect 27 0 33 0;
#X connect 28 0 27 1;
#X connect 29 0 27 1;
#X connect 30 0 36 0;
#X connect 30 2 31 0;
#X connect 30 3 54 0;
#X connect 31 0 56 0;
#X connect 32 0 37 0;
#X connect 32 1 27 0;
#X connect 32 2 35 0;
#X connect 33 0 34 0;
#X connect 34 0 37 1;
#X connect 35 0 37 2;
#X connect 36 0 32 0;
#X connect 37 0 38 0;
#X connect 39 0 40 0;
#X connect 39 3 40 1;
#X connect 40 0 64 0;
#X connect 41 0 39 0;
#X connect 42 0 41 0;
#X connect 45 0 30 0;
#X connect 45 0 39 0;
#X connect 47 0 55 0;
#X connect 49 0 48 0;
#X connect 50 0 42 0;
#X connect 51 0 52 0;
#X connect 54 0 36 1;
#X connect 54 1 50 1;
#X connect 54 2 31 1;
#X connect 54 3 53 0;
#X connect 55 0 30 0;
#X connect 55 1 29 0;
#X connect 55 2 45 0;
#X connect 55 3 63 1;
#X connect 55 4 51 0;
#X connect 56 0 57 0;
#X connect 59 0 47 0;
#X connect 59 1 50 0;
#X connect 59 2 49 0;
#X connect 59 3 60 0;
#X connect 60 0 61 0;
#X connect 60 1 51 0;
#X connect 61 0 54 0;
#X connect 62 0 63 3;
#X connect 63 0 65 0;
#X connect 64 0 63 0;
#X connect 64 1 62 0;
#X restore 818 873 pd sampleloader_methods;
#X obj 387 577 savestate;
#X obj 341 509 symbol;
#X obj 387 544 pack s s s s s s s s;
#X obj 387 611 unpack s s s s s s s s;
#X obj 818 93 t f f;
#X obj 818 399 f;
#X obj 349 64 select dummy;
#X obj 398 20 t s s;
#X floatatom 818 912 5 0 0 0 - - -;
#X msg 358 750 set \$1;
#X msg 386 789 set \$1;
#X obj 388 458 route 0 1 2 3 4 5 6 7;
#X obj 548 142 f;
#X obj 527 174 pack f s;
#X msg 550 272 \$1 set \$2;
#X msg 412 823 set \$1;
#X msg 443 858 set \$1;
#X msg 470 891 set \$1;
#X msg 496 923 set \$1;
#X msg 525 957 set \$1;
#X msg 552 986 set \$1;
#X msg 388 419 \$1 symbol \$2;
#X obj 548 113 t b s;
#X msg 836 326 \$1;
#X obj 387 649 select symbol;
#X obj 408 676 select symbol;
#X obj 430 705 select symbol;
#X obj 451 732 select symbol;
#X obj 473 761 select symbol;
#X obj 494 788 select symbol;
#X obj 516 816 select symbol;
#X obj 538 843 select symbol;
#X msg 1007 679 samples6;
#X msg 1033 710 samples7;
#X text 1015 144 metodo interno para limpiar pantalla;
#X obj 1406 273 s \$0-sampleselector-fileindex;
#X obj 1438 314 s \$0-sampleselector-folderindex;
#X obj 527 70 r sampleselector-\$1.openfolder;
#X obj 1406 71 r sampleselector-\$1.selectfile;
#X obj 1219 718 r \$0-sampleselector-fileindex;
#X obj 1219 760 change -1;
#X obj 818 22 r \$0-sampleselector-folderindex;
#X obj 573 338 s \$0-sampleselector-folderindex;
#X obj 550 300 t b a;
#X obj 527 206 t a a a;
#X obj 573 236 unpack f;
#X obj 550 397 s \$0-sampleselector-fileindex;
#X msg 550 366 -1;
#X obj 938 235 \$0;
#X msg 818 501 samples0;
#X msg 851 530 samples1;
#X msg 886 559 samples2;
#X msg 923 591 samples3;
#X msg 954 621 samples4;
#X msg 978 650 samples5;
#X msg 1219 800 open \$1;
#X obj 938 107 r sampleselector-\$1.reset;
#X obj 41 437 loadbang;
#X obj 41 469 s sampleselector-\$1.reset;
#X text 942 73 METHODS;
#X msg 961 194 -1;
#X msg 1343 529 clear;
#X msg 1419 403 \; \$1-sampleselector-folderindex 0 \; \$1-sampleselector-fileindex
-1 \;;
#X obj 938 149 t b b b b;
#X msg 955 370 set samples0;
#X msg 975 397 set samples1;
#X msg 1000 428 set samples2;
#X msg 1026 456 set samples3;
#X msg 1060 483 set samples4;
#X msg 1082 510 set samples5;
#X msg 1116 537 set samples6;
#X msg 1139 563 set samples7;
#X obj 978 327 t b b b b b b b b b;
#X obj 219 74 tgl 15 0 \$0-sampleselector-autoplay \$0-sampleselector-autoplay
autoplay -25 -10 0 10 -262144 -1 -1 1 1;
#X obj 1406 148 unpack f f f;
#X obj 1487 233 s \$0-sampleselector-autoplay;
#X obj 1406 111 t a b b;
#X msg 1552 118 0;
#X obj 1487 186 t f b;
#X msg 938 267 \; \$1-sampleselector-folderindex 0 \; \$1-sampleselector-autoplay
0 \;;
#X connect 2 0 4 0;
#X connect 3 0 22 0;
#X connect 4 0 56 0;
#X connect 5 0 51 0;
#X connect 6 0 9 0;
#X connect 6 1 52 0;
#X connect 7 0 5 1;
#X connect 8 0 21 0;
#X connect 9 0 5 0;
#X connect 11 0 15 0;
#X connect 12 0 11 0;
#X connect 12 0 23 0;
#X connect 13 0 65 0;
#X connect 13 1 66 0;
#X connect 13 2 67 0;
#X connect 13 3 68 0;
#X connect 13 4 69 0;
#X connect 13 5 70 0;
#X connect 13 6 48 0;
#X connect 13 7 49 0;
#X connect 14 0 15 0;
#X connect 15 0 24 0;
#X connect 16 1 17 0;
#X connect 17 0 18 0;
#X connect 18 0 16 0;
#X connect 19 0 40 0;
#X connect 19 1 41 0;
#X connect 19 2 42 0;
#X connect 19 3 43 0;
#X connect 19 4 44 0;
#X connect 19 5 45 0;
#X connect 19 6 46 0;
#X connect 19 7 47 0;
#X connect 20 0 8 0;
#X connect 20 1 28 1;
#X connect 21 0 13 0;
#X connect 21 0 2 0;
#X connect 22 1 38 0;
#X connect 23 0 3 0;
#X connect 23 1 22 1;
#X connect 25 0 65 0;
#X connect 26 0 66 0;
#X connect 27 0 17 1;
#X connect 27 1 18 1;
#X connect 27 2 18 2;
#X connect 27 3 18 3;
#X connect 27 4 18 4;
#X connect 27 5 18 5;
#X connect 27 6 18 6;
#X connect 27 7 18 7;
#X connect 28 0 29 0;
#X connect 29 0 60 0;
#X connect 30 0 59 0;
#X connect 31 0 67 0;
#X connect 32 0 68 0;
#X connect 33 0 69 0;
#X connect 34 0 70 0;
#X connect 35 0 48 0;
#X connect 36 0 49 0;
#X connect 37 0 27 0;
#X connect 38 0 28 0;
#X connect 38 1 29 1;
#X connect 39 0 21 1;
#X connect 40 1 25 0;
#X connect 41 1 26 0;
#X connect 42 1 31 0;
#X connect 43 1 32 0;
#X connect 44 1 33 0;
#X connect 45 1 34 0;
#X connect 46 1 35 0;
#X connect 47 1 36 0;
#X connect 48 0 12 0;
#X connect 49 0 12 0;
#X connect 53 0 29 0;
#X connect 54 0 92 0;
#X connect 55 0 56 0;
#X connect 56 0 71 0;
#X connect 57 0 20 0;
#X connect 59 0 21 0;
#X connect 59 0 63 0;
#X connect 59 1 13 0;
#X connect 60 0 37 0;
#X connect 60 1 30 0;
#X connect 60 2 61 0;
#X connect 61 0 39 0;
#X connect 61 0 58 0;
#X connect 63 0 62 0;
#X connect 64 0 95 0;
#X connect 65 0 12 0;
#X connect 66 0 12 0;
#X connect 67 0 12 0;
#X connect 68 0 12 0;
#X connect 69 0 12 0;
#X connect 70 0 12 0;
#X connect 71 0 15 0;
#X connect 72 0 79 0;
#X connect 73 0 74 0;
#X connect 76 0 8 0;
#X connect 77 0 15 0;
#X connect 79 0 64 0;
#X connect 79 1 76 0;
#X connect 79 2 88 0;
#X connect 79 3 77 0;
#X connect 80 0 65 0;
#X connect 81 0 66 0;
#X connect 82 0 67 0;
#X connect 83 0 68 0;
#X connect 84 0 69 0;
#X connect 85 0 70 0;
#X connect 86 0 48 0;
#X connect 87 0 49 0;
#X connect 88 0 80 0;
#X connect 88 1 81 0;
#X connect 88 2 82 0;
#X connect 88 3 83 0;
#X connect 88 4 84 0;
#X connect 88 5 85 0;
#X connect 88 6 86 0;
#X connect 88 7 87 0;
#X connect 90 0 6 0;
#X connect 90 1 5 1;
#X connect 90 2 94 0;
#X connect 92 0 90 0;
#X connect 92 1 7 0;
#X connect 92 2 93 0;
#X connect 93 0 91 0;
#X connect 94 0 91 0;
#X connect 94 1 2 0;
#X coords 0 -1 1 1 240 360 1 0 50;
