#N struct 1076-g2 float x float y array tab 1076-g2b;
#N struct 1076-g2b float y;
#N canvas -8 -8 1858 1037 12;
#X obj 1331 566 phasor~;
#X obj 1369 846 - 3;
#X obj 1332 886 *~;
#X text 1368 878 rango de 1 a tamaño-2, f 12;
#X obj 1331 451 *;
#X obj 309 234 tgl 14 0 \$0-sampleplayer-play-in \$0-sampleplayer-play-in
play/pause 17 6 0 9 -204786 -1 -1 1 1;
#X obj 312 300 hsl 170 15 -2 2 0 0 c-sampleplayer-rate-\$1 c-sampleplayer-rate-\$1
rate_(-2:2) 0 8 0 9 -262130 -128992 -33289 8450 1;
#X obj 1590 849 snapshot~;
#X msg 1617 678 stop, f 5;
#X obj 312 216 hsl 215 14 0 1 0 0 \$0-sampleplayer-position \$0-sampleplayer-position
empty -2 -8 0 10 -262144 -1 -1 13438 1;
#X msg 414 602 1;
#X msg 334 602 -1;
#X obj 1331 487 sig~;
#X obj 312 267 hsl 170 15 0 1 0 0 c-sampleplayer-volume-\$1 c-sampleplayer-volume-\$1
volume_(0:1) 0 8 0 9 -261682 -128992 -33289 16900 1;
#X obj 309 247 tgl 14 0 c-sampleplayer-floop-\$1 c-sampleplayer-floop-\$1
loop 17 6 0 9 -262144 -1 -1 1 1;
#X floatatom 480 233 6 0 0 0 sec. #0-sampleplayer-relativelength -
;
#X obj 779 726 samphold~;
#X obj 1332 811 *~;
#X msg 961 998 0;
#X obj 779 633 sig~;
#X obj 1332 915 +~ 1;
#X obj 859 699 wrap~;
#X obj 859 673 *~;
#X msg 1061 461 reset 0;
#X obj 845 58 t f b;
#X msg 1439 392 1;
#X obj 383 235 bng 14 250 50 0 sampleplayer-\$1.stop empty stop 17
6 0 9 -204786 -1 -1;
#X msg 699 694 set 0;
#X obj 1506 232 /;
#X msg 1506 205 1;
#X obj 1506 178 t b f;
#X obj 1264 269 spigot;
#X obj 1361 394 f;
#X msg 1335 325 0, f 4;
#X obj 1335 299 t b b;
#X obj 1356 186 sel 0 1;
#X obj 1377 525 f;
#N canvas -8 -8 1858 1037 rate 0;
#X obj 48 28 inlet;
#X obj 56 80 moses;
#X msg 106 109 -1;
#X msg 138 109 1;
#X obj 56 56 t f b;
#X floatatom 107 142 5 0 0 0 - - -;
#X floatatom 51 144 5 0 0 0 - - -;
#X obj 51 205 outlet;
#X obj 183 208 outlet;
#X msg 37 109 1;
#X msg 72 110 0;
#X connect 0 0 4 0;
#X connect 1 0 2 0;
#X connect 1 0 9 0;
#X connect 1 1 3 0;
#X connect 1 1 10 0;
#X connect 2 0 5 0;
#X connect 3 0 5 0;
#X connect 4 0 1 0;
#X connect 5 0 8 0;
#X connect 6 0 7 0;
#X connect 9 0 6 0;
#X connect 10 0 6 0;
#X restore 845 89 pd rate;
#X text 1410 530 posicion de lectura de la muestra;
#X obj 383 249 bng 14 250 50 0 sampleplayer-\$1.replay empty replay
17 6 0 9 -204786 -1 -1;
#X text 1314 46 jlquispec 2020 *** https://github.com/jlquispec;
#X obj 1299 153 t b f f;
#X obj 1506 258 t b f;
#X obj 469 315 bng 15 250 50 0 empty empty 2 5 8 0 8 -262144 -1 -1
;
#X msg 377 602 0;
#X obj 309 315 bng 15 250 50 0 empty empty -2 3 8 0 8 -262144 -1 -1
;
#X obj 348 315 bng 15 250 50 0 empty empty -1 3 8 0 8 -262144 -1 -1
;
#X obj 389 315 bng 15 250 50 0 empty empty 0 5 8 0 8 -262144 -1 -1
;
#X obj 428 315 bng 15 250 50 0 empty empty 1 5 8 0 8 -262144 -66577
-1;
#X obj 309 282 bng 15 250 50 0 empty empty 0 5 8 0 8 -262144 -1 -1
;
#X obj 469 282 bng 15 250 50 0 empty empty 1 5 8 0 8 -262144 -1 -1
;
#X msg 510 409 0;
#X msg 541 409 1;
#X floatatom 488 300 5 0 0 0 - c-sampleplayer-rate-#1 -;
#X floatatom 488 267 5 0 1 0 - c-sampleplayer-volume-#1 -;
#X text 1029 1030 se detiene cuando acaba el ciclo o se presiona stop
, f 28;
#X text 844 209 primero pausar \, luego detener;
#X obj 1299 122 change 0;
#X obj 764 333 abs;
#X obj 764 383 f;
#X obj 764 357 t b f;
#X obj 764 404 /;
#X obj 510 441 t f b;
#X obj 510 490 pack f f;
#X obj 299 694 pack f f;
#X obj 299 641 t f b;
#X msg 449 602 2;
#X msg 299 602 -2;
#X obj 1506 150 r \$0-sampleplayer-length;
#X obj 764 427 s \$0-sampleplayer-relativelength;
#X obj 794 333 r \$0-sampleplayer-length;
#X obj 1369 802 r \$0-sampleplayer-samplesnumber;
#X obj 352 666 v \$0-sampleplayer-ramptime;
#X obj 1439 419 s \$0-sampleplayer-dspswitch;
#X obj 969 26 r c-sampleplayer-rate-\$1;
#X obj 1121 1009 s \$0-sampleplayer-playstatus;
#X obj 961 1066 s \$0-sampleplayer-dspswitch;
#X obj 563 462 v \$0-sampleplayer-ramptime;
#X obj 510 518 s sampleplayer-\$1.volume.ramp;
#X obj 779 600 r c-sampleplayer-floop-\$1;
#X obj 299 721 s sampleplayer-\$1.rate.ramp;
#X obj 845 129 s \$0-samplefile-startpos;
#X obj 18 16 loadbang;
#X obj 778 787 threshold~ 0.5 0 0.5 0;
#N canvas -8 -8 1858 1037 \$0-arraygraphic 0;
#X scalar 1076-g2 0 35 \; -0 \; 1.68558 \; -1.49286 \; -0.190282 \;
-0.772214 \; 6.49086 \; -8.39446 \; -8.34709 \; -1.01471 \; 12.6339
\; 14.9644 \; 5.01715 \; 0.490665 \; -29.4942 \; -11.877 \; 1.22715
\; 21.5717 \; 11.6972 \; 14.237 \; 4.69868 \; -32.1671 \; -38.8927
\; 0.927103 \; 23.4838 \; 21.5305 \; -5.07529 \; 22.9304 \; -28.9767
\; -45.4904 \; -5.08211 \; 9.97907 \; 30.0921 \; 15.1656 \; 49.2766
\; -5.20494 \; -46.8064 \; -42.7547 \; 0.0730872 \; 29.9228 \; -12.4996
\; 31.4791 \; 23.0517 \; -10.1932 \; -53.9004 \; -12.8953 \; 26.4037
\; 2.17599 \; 17.8159 \; 35.5104 \; 4.11659 \; -34.9778 \; -46.2401
\; 9.38764 \; 12.5148 \; 13.7292 \; 15.0251 \; 18.6872 \; 3.99549 \;
-39.28 \; -14.6495 \; -5.15909 \; 14.3086 \; 21.9642 \; 6.02118 \;
-0.716591 \; -22.6978 \; -1.39047 \; -6.52704 \; 17.7898 \; 12.8728
\; 8.01245 \; 16.1701 \; -28.1886 \; -5.91866 \; -5.02254 \; 8.87524
\; 3.79566 \; 22.5805 \; -2.09705 \; -32.2163 \; 9.72108 \; 1.00847
\; 0.223005 \; -3.04292 \; 16.984 \; 1.61237 \; -37.9027 \; 4.26557
\; 3.37657 \; 3.51565 \; -1.92016 \; 17.1356 \; 20.9587 \; -32.0968
\; -24.0478 \; -1.51658 \; 8.41215 \; 10.1247 \; 2.49201 \; 24.5076
\; -19.8911 \; -13.6795 \; -10.4323 \; -14.2525 \; 28.1889 \; 38.8854
\; 49.64 \; -49.4029 \; -20.9516 \; -48.6432 \; 10.9457 \; 45.2943
\; 47.7996 \; 12.6653 \; -74.7139 \; -33.7362 \; -34.269 \; -8.73294
\; 20.0244 \; 39.5584 \; 41.9987 \; -24.7256 \; -31.1797 \; -32.1754
\; 17.5029 \; 7.98842 \; 14.894 \; 16.999 \; 14.8526 \; -33.1765 \;
-21.1376 \; -7.34309 \; 9.80037 \; -1.26889 \; -3.20647 \; 4.48221
\; 10.1604 \; -16.3222 \; -10.0823 \; 4.73297 \; 14.5429 \; 7.28055
\; -6.25929 \; -2.58169 \; 0.176024 \; -8.40794 \; 6.65191 \; 2.24693
\; 11.9949 \; 2.82744 \; -10.3315 \; -0.29912 \; -22.805 \; 1.06964
\; 3.88796 \; 13.856 \; 15.9121 \; -7.77589 \; -12.0276 \; -20.6441
\; 7.42418 \; 12.464 \; 3.7425 \; 5.8753 \; -8.33377 \; -3.88885 \;
-17.0566 \; 5.00504 \; 12.0675 \; 9.62911 \; 1.61253 \; -7.00283 \;
-0.921953 \; -14.3997 \; -0.717747 \; 0.284576 \; 10.8913 \; 1.67544
\; -10.967 \; 0.156939 \; -1.33033 \; 6.16245 \; -1.40003 \; 1.18842
\; 7.20854 \; -5.00412 \; -5.29169 \; -13.2629 \; 4.03515 \; -2.4127
\; 3.58336 \; 3.61627 \; 1.27832 \; 4.49971 \; -7.25579 \; -0.777304
\; -3.13095 \; -1.74987 \; 1.53264 \; -0.198805 \; \;;
#X coords 0 -1 755 150 220 50 2 0 0;
#X restore 309 166 pd \$0-arraygraphic;
#X obj 1299 75 r \$0-sampleplayer-playstatus;
#X msg 1241 428 set 1;
#N canvas -8 -8 1858 1037 methods 0;
#X text 1223 73 VOLUME;
#X text 1217 474 RATE;
#X obj 1220 293 pack f f f, f 11;
#X msg 1220 327 \$3 \, \$1 \$2;
#X obj 1220 165 unpack f f;
#X obj 1220 140 t a b;
#X obj 1252 248 f;
#X obj 1227 676 pack f f f, f 11;
#X msg 1227 704 \$3 \, \$1 \$2;
#X obj 1227 565 unpack f f;
#X obj 1264 643 f;
#X obj 1227 596 t f b b;
#X obj 1227 540 t a b;
#X msg 1333 596 0;
#X msg 1328 185 0;
#X obj 1220 191 t f b b;
#X obj 1220 375 change -1;
#X obj 1228 757 change 0;
#X obj 1277 211 * 1;
#X obj 1294 596 * 1;
#X obj 1228 783 s c-sampleplayer-rate-\$1;
#X obj 1301 643 v c-sampleplayer-rate-\$1;
#X obj 1220 399 s c-sampleplayer-volume-\$1;
#X obj 1220 114 r sampleplayer-\$1.volume.ramp;
#X obj 1227 513 r sampleplayer-\$1.rate.ramp;
#X text 1212 35 RAMPA, f 6;
#X obj 1285 264 v c-sampleplayer-volume-\$1;
#X obj 396 246 t b b;
#X text 70 1854 PLAY;
#X obj 73 1888 r sampleplayer-\$1.play;
#X obj 765 2118 r sampleplayer-\$1.stop;
#X text 737 2095 STOP.;
#X obj 765 2172 s \$0-sampleplayer-stop;
#X obj 773 2011 \$0;
#X obj 773 1981 t b;
#X text 733 1879 PAUSE;
#X obj 773 1953 r sampleplayer-\$1.pause;
#X msg 774 2037 \; \$1-sampleplayer-playstatus 0 \;;
#X text 722 1896 inicia el proceso de stop \, se atenua y apaga el
dsp, f 20;
#X obj 98 1498 soundfiler;
#X obj 66 1342 symbol;
#X obj 66 746 t b a;
#X obj 159 1302 symbol;
#X obj 66 579 r sampleplayer-\$1.openfile;
#X msg 66 712 \$1/\$2;
#X obj 66 682 pack s s;
#X obj 66 610 t a b;
#X obj 403 1278 symbol;
#X msg 442 1247 symbol \$1;
#X obj 61 1668 r sampleplayer-\$1.playoneshot;
#X obj 93 1725 unpack f f f;
#X obj 61 1807 s sampleplayer-\$1.play;
#X msg 181 1764 \$1 0;
#X msg 453 1763 \$1 0;
#X obj 30 153 \$1;
#X obj 62 140 \$0;
#X obj 61 1697 t b a;
#X obj 61 1763 pack f f;
#X msg 61 1732 0;
#X obj 249 1805 s sampleplayer-\$1.rate.ramp;
#X obj 453 1806 s sampleplayer-\$1.volume.ramp;
#X text 297 1697 STARTPOS \, RATE \, VOLUME;
#X obj 186 1941 v \$0-sampleplayer-playstatus;
#X obj 73 1963 t a b;
#X obj 41 2071 unpack f f;
#X obj 111 1999 s c-sampleplayer-floop-\$1;
#X msg 185 2072 1;
#X obj 184 2033 sel 0 1;
#X obj 229 2354 s \$0-sampleplayer-position-input;
#X obj 41 2135 s \$0-sampleplayer-position-input;
#X text 64 1637 PLAY ONE SHOT;
#X obj 1542 126 t a b;
#X msg 1678 177 0, f 4;
#X obj 1542 100 r sampleplayer-\$1.volume.rampfromto;
#X obj 1542 151 unpack f f f;
#X obj 1224 959 unpack f f f;
#X obj 1224 1040 s sampleplayer-\$1.rate.ramp;
#X obj 1444 1037 s sampleplayer-\$1.volume.ramp;
#X obj 1224 999 pack f f;
#X obj 1407 998 pack f f;
#X text 1223 843 RAMPA RATE \, VOLUME;
#X obj 1221 881 r sampleplayer-\$1.values.ramp;
#X obj 1221 910 t a b;
#X msg 1336 931 0;
#X obj 30 58 r sampleplayer-\$1.reset;
#X obj 396 28 r sampleplayer-\$1.clear;
#X obj 480 685 s sampleplayer-\$1.clear;
#X obj 1574 324 s sampleplayer-\$1.volume.ramp;
#X obj 1574 275 pack f f;
#X obj 1678 266 pack f f;
#X obj 1542 227 f;
#X obj 1542 180 t b f;
#X obj 1533 554 t a b;
#X msg 1669 605 0, f 4;
#X obj 1533 579 unpack f f f;
#X obj 1565 703 pack f f;
#X obj 1669 694 pack f f;
#X obj 1533 655 f;
#X obj 1533 608 t b f;
#X obj 1565 752 s sampleplayer-\$1.rate.ramp;
#X obj 1533 528 r sampleplayer-\$1.rate.rampfromto;
#X obj 845 1813 f;
#X msg 768 1749 1;
#X text 888 1715 se almacena la pos de inicio de lectura;
#X obj 871 1735 r \$0-samplefile-startpos;
#X obj 768 1660 r sampleplayer-\$1.replay;
#X obj 768 1700 t b b;
#X obj 845 1861 s \$0-sampleplayer-position-input;
#X obj 768 1778 s \$0-sampleplayer-playstatus;
#X text 780 1632 REPLAY;
#X obj 398 2188 r \$0-sampleplayer-unlock_play;
#X obj 309 2252 s \$0-sampleplayer-playstatus;
#X obj 326 2132 ==;
#X obj 228 2067 v \$0-samplefile-startpos;
#X obj 501 140 t b b;
#X obj 500 260 s \$0-sampleplayer-unlock_play;
#X msg 587 187 0;
#X msg 500 212 1;
#X text 40 16 RESET;
#X obj 513 94 s sampleplayer-\$1.stop;
#X obj 396 71 t b b b;
#X obj 326 2160 t f b;
#X obj 364 2292 s \$0-sampleplayer-dsp_on;
#X obj 66 641 unpack s s f;
#X obj 318 685 sel 1;
#X obj 318 779 s \$0-sampleplayer-playstatus;
#X msg 318 742 1;
#X msg 62 175 \; \$1-sampleplayer-unlock_play 1 \; \$1-sampleplayer-ramptime
10 \;;
#X obj 810 106 \$0;
#X obj 66 930 soundfiler;
#X obj 133 1046 s \$0-sampleplayer-samplerate;
#X text 364 686 AUTOPLAY;
#X msg 133 962 \$1 \$3;
#X obj 133 986 unpack f f;
#X obj 200 1018 s \$0-sampleplayer-numchannels;
#X text 150 878 PERFIL DEL ARCHIVO;
#X obj 396 444 s sampleplayer-\$1.arraystructure.clear;
#X obj 810 72 r sampleplayer-\$1.arraystructure.clear;
#X obj 480 653 t b;
#X text 44 518 ABRIR ARCHIVO (LIMPIAR BUFFER \, BLOQUEAR PLAY \, CREAR
PERFIL \, CREAR BUFFER \, POBLAR), f 63;
#X obj 129 793 symbol;
#X obj 66 857 symbol;
#X msg 66 895 read \$1, f 8;
#X text 187 1122 tamaño en muestras;
#X obj 103 1226 /;
#X obj 103 1180 t f b;
#X obj 135 1205 v \$0-sampleplayer-samplerate;
#X obj 103 1267 s \$0-sampleplayer-length;
#X obj 121 1142 s \$0-sampleplayer-samplesnumber;
#X obj 172 1396 r \$0-sampleplayer-arraylist;
#X obj 98 1447 list append;
#X obj 98 1471 list trim;
#X obj 98 1423 list prepend read -resize;
#X obj 66 1369 t b s;
#X obj 66 1536 s sampleplayer-\$1.arraystructure.create;
#N canvas 763 207 1858 1037 draftbuffer 0;
#X obj 77 405 + 20;
#X obj 77 377 * 100;
#X obj 45 354 t f f;
#X obj 45 436 pack f f s f \$0;
#X text 42 50 CREACION DE BUFFER;
#X obj 45 156 until;
#X obj 45 105 v \$0-sampleplayer-numchannels;
#X obj 121 397 r \$0-sampleplayer-samplesnumber;
#X obj 45 182 f;
#X obj 84 182 + 1;
#X obj 45 129 t f 0;
#X msg 90 148 0;
#X obj 45 325 unpack f s;
#X obj 232 294 list prepend;
#X obj 232 317 list;
#X obj 232 349 s \$0-sampleplayer-arraylist;
#X obj 45 74 t b b;
#X obj 45 206 pack f \$0;
#X msg 232 272 \$2;
#X msg 45 245 \$1 \$2-sampleplayer-array\$1;
#X msg 45 486 \; pd-\$5-buffers obj 5 \$2 array define \$3 \;;
#X msg 358 103 \; pd-\$5-buffers obj 5 \$2 pd ch\$1_\$5 \; pd-ch\$1_\$5
array \$3 \$4 float 2 \, coords 0 1 \$4 -1 450 82 2 0 0 \, vis 0;
#X connect 0 0 3 1;
#X connect 1 0 0 0;
#X connect 2 0 3 0;
#X connect 2 1 1 0;
#X connect 3 0 20 0;
#X connect 5 0 8 0;
#X connect 6 0 10 0;
#X connect 7 0 3 3;
#X connect 8 0 9 0;
#X connect 8 0 17 0;
#X connect 9 0 8 1;
#X connect 10 0 5 0;
#X connect 10 1 11 0;
#X connect 11 0 8 1;
#X connect 12 0 2 0;
#X connect 12 1 3 2;
#X connect 13 0 14 0;
#X connect 14 0 13 1;
#X connect 14 0 15 0;
#X connect 16 0 6 0;
#X connect 16 1 13 1;
#X connect 17 0 19 0;
#X connect 18 0 13 0;
#X connect 19 0 12 0;
#X connect 19 0 18 0;
#X restore 510 943 pd draftbuffer;
#X obj 754 1080 until;
#X obj 754 1029 v \$0-sampleplayer-numchannels;
#X obj 753 1104 f;
#X obj 793 1106 + 1;
#X obj 754 1053 t f 0;
#X msg 799 1072 0;
#X obj 754 1215 list prepend;
#X obj 754 1238 list;
#X obj 754 1270 s \$0-sampleplayer-arraylist;
#X obj 754 1001 t b b;
#X obj 754 1130 pack f \$0;
#X msg 754 1193 \$2;
#X msg 754 1165 \$1 \$2-sampleplayer-array\$1;
#X obj 66 1085 t b b f f b;
#X text 751 977 CREACION DE LISTA DE ARRAYS;
#X obj 437 1306 r \$0-sampleplayer-numchannels;
#X obj 403 1371 s \$0-sampleplayer-label;
#X msg 810 147 \; pd-\$1-arraygraphic clear \; pd-\$1-label clear \;
;
#X obj 403 1337 pack s f f;
#X obj 470 1279 r \$0-sampleplayer-samplerate;
#X obj 30 92 t b b;
#X msg 428 305 \; \$1-sampleplayer-array0 resize 0 \; \$1-sampleplayer-array0
const 0 \; \$1-sampleplayer-array1 resize 0 \; \$1-sampleplayer-array1
const 0 \; \$1-sampleplayer-samplerate 0 \; \$1-sampleplayer-samplesnumber
0 \; \$1-sampleplayer-length 0 \;;
#X obj 428 275 \$0;
#X obj 1220 351 line 1 50;
#X obj 1227 734 line 1 50;
#X msg 765 2142 1;
#X obj 396 203 del 55;
#X msg 30 239 \; sampleplayer-\$1.volume.ramp 1 0 \; sampleplayer-\$1.rate.ramp
1 0 \; c-sampleplayer-floop-\$1 0 \;;
#X obj 66 824 del 70;
#X obj 318 709 del 85;
#X obj 501 183 delay 80;
#X connect 2 0 3 0;
#X connect 3 0 179 0;
#X connect 4 0 15 0;
#X connect 4 1 18 0;
#X connect 5 0 4 0;
#X connect 5 1 14 0;
#X connect 6 0 2 1;
#X connect 7 0 8 0;
#X connect 8 0 180 0;
#X connect 9 0 11 0;
#X connect 9 1 19 0;
#X connect 10 0 7 1;
#X connect 11 0 7 0;
#X connect 11 1 10 0;
#X connect 11 2 21 0;
#X connect 12 0 9 0;
#X connect 12 1 13 0;
#X connect 13 0 10 1;
#X connect 14 0 6 1;
#X connect 15 0 2 0;
#X connect 15 1 6 0;
#X connect 15 2 26 0;
#X connect 16 0 22 0;
#X connect 17 0 20 0;
#X connect 18 0 6 1;
#X connect 19 0 10 1;
#X connect 21 0 7 2;
#X connect 23 0 5 0;
#X connect 24 0 12 0;
#X connect 26 0 2 2;
#X connect 27 0 136 0;
#X connect 27 1 178 0;
#X connect 29 0 63 0;
#X connect 30 0 181 0;
#X connect 33 0 37 0;
#X connect 34 0 33 0;
#X connect 36 0 34 0;
#X connect 40 0 153 0;
#X connect 41 0 184 0;
#X connect 41 1 42 0;
#X connect 41 1 140 0;
#X connect 42 0 40 1;
#X connect 43 0 46 0;
#X connect 44 0 41 0;
#X connect 45 0 44 0;
#X connect 46 0 123 0;
#X connect 46 1 138 0;
#X connect 47 0 174 0;
#X connect 48 0 47 1;
#X connect 49 0 56 0;
#X connect 50 0 57 1;
#X connect 50 1 52 0;
#X connect 50 2 53 0;
#X connect 52 0 59 0;
#X connect 53 0 60 0;
#X connect 54 0 183 0;
#X connect 55 0 127 0;
#X connect 56 0 58 0;
#X connect 56 1 50 0;
#X connect 57 0 51 0;
#X connect 58 0 57 0;
#X connect 62 0 67 0;
#X connect 63 0 64 0;
#X connect 63 1 62 0;
#X connect 64 0 69 0;
#X connect 64 1 65 0;
#X connect 66 0 112 0;
#X connect 67 0 66 0;
#X connect 67 1 113 0;
#X connect 71 0 74 0;
#X connect 71 1 72 0;
#X connect 72 0 89 1;
#X connect 72 0 88 1;
#X connect 73 0 71 0;
#X connect 74 0 91 0;
#X connect 74 1 90 1;
#X connect 74 2 89 1;
#X connect 75 0 78 0;
#X connect 75 1 79 0;
#X connect 75 2 78 1;
#X connect 75 2 79 1;
#X connect 78 0 76 0;
#X connect 79 0 77 0;
#X connect 81 0 82 0;
#X connect 82 0 75 0;
#X connect 82 1 83 0;
#X connect 83 0 78 1;
#X connect 83 0 79 1;
#X connect 84 0 176 0;
#X connect 85 0 120 0;
#X connect 88 0 87 0;
#X connect 89 0 87 0;
#X connect 90 0 89 0;
#X connect 91 0 90 0;
#X connect 91 1 88 0;
#X connect 92 0 94 0;
#X connect 92 1 93 0;
#X connect 93 0 96 1;
#X connect 93 0 95 1;
#X connect 94 0 98 0;
#X connect 94 1 97 1;
#X connect 94 2 96 1;
#X connect 95 0 99 0;
#X connect 96 0 99 0;
#X connect 97 0 96 0;
#X connect 98 0 97 0;
#X connect 98 1 95 0;
#X connect 100 0 92 0;
#X connect 101 0 107 0;
#X connect 102 0 108 0;
#X connect 104 0 101 1;
#X connect 105 0 106 0;
#X connect 106 0 102 0;
#X connect 106 1 101 0;
#X connect 110 0 112 1;
#X connect 112 0 121 0;
#X connect 113 0 68 0;
#X connect 114 0 186 0;
#X connect 114 1 116 0;
#X connect 116 0 115 0;
#X connect 117 0 115 0;
#X connect 120 0 182 0;
#X connect 120 1 114 0;
#X connect 120 2 119 0;
#X connect 121 0 111 0;
#X connect 121 1 122 0;
#X connect 123 0 45 0;
#X connect 123 1 45 1;
#X connect 123 1 48 0;
#X connect 123 2 124 0;
#X connect 124 0 185 0;
#X connect 126 0 125 0;
#X connect 128 0 173 0;
#X connect 129 0 169 0;
#X connect 129 1 132 0;
#X connect 132 0 133 0;
#X connect 133 0 130 0;
#X connect 133 1 134 0;
#X connect 137 0 128 0;
#X connect 138 0 86 0;
#X connect 140 0 141 1;
#X connect 141 0 142 0;
#X connect 142 0 129 0;
#X connect 144 0 147 0;
#X connect 145 0 144 0;
#X connect 145 1 146 0;
#X connect 146 0 144 1;
#X connect 149 0 150 1;
#X connect 150 0 151 0;
#X connect 151 0 39 0;
#X connect 152 0 150 0;
#X connect 153 0 154 0;
#X connect 153 1 152 0;
#X connect 156 0 158 0;
#X connect 157 0 160 0;
#X connect 158 0 159 0;
#X connect 158 0 166 0;
#X connect 159 0 158 1;
#X connect 160 0 156 0;
#X connect 160 1 161 0;
#X connect 161 0 158 1;
#X connect 162 0 163 0;
#X connect 163 0 162 1;
#X connect 163 0 164 0;
#X connect 165 0 157 0;
#X connect 165 1 162 1;
#X connect 166 0 168 0;
#X connect 167 0 162 0;
#X connect 168 0 167 0;
#X connect 169 0 40 0;
#X connect 169 1 47 0;
#X connect 169 2 145 0;
#X connect 169 3 148 0;
#X connect 169 4 165 0;
#X connect 171 0 174 1;
#X connect 174 0 172 0;
#X connect 175 0 174 2;
#X connect 176 0 54 0;
#X connect 176 1 55 0;
#X connect 178 0 177 0;
#X connect 179 0 16 0;
#X connect 180 0 17 0;
#X connect 181 0 32 0;
#X connect 182 0 27 0;
#X connect 184 0 141 0;
#X connect 185 0 126 0;
#X connect 186 0 117 0;
#X restore 669 54 pd methods;
#X obj 667 551 r \$0-sampleplayer-stop;
#N canvas -8 -8 1858 1037 draft 0;
#X obj 94 131 sel 1;
#X obj 94 187 \$0;
#X obj 94 103 v \$0-sampleplayer-playstatus;
#X msg 93 215 \; \$1-sampleplayer-playstatus 1 \;;
#X text 94 66 EN CASO SE ESTÉ EJECUTANDO \, RETOMA LA REPRODUCCIÓN
;
#X obj 94 160 del 150;
#X text 158 156 DEBE SUPERAR AL TIEMPO DE CARGA (100) Y PROCESO DE
APAGADO + DSPSWITCH OFF(140);
#X obj 719 204 sel 0;
#X obj 719 160 t f f;
#X obj 719 276 f;
#X obj 978 205 metro 250;
#X obj 978 232 random 200;
#X obj 978 259 - 100;
#X obj 978 287 / 100;
#X text 711 79 randomizer;
#X text 715 44 RANDOMIZADOR;
#X obj 719 127 r sampleplayer-\$1.rate.randomizer;
#X obj 719 313 s c-sampleplayer-rate-\$1;
#X obj 978 324 s c-sampleplayer-rate-\$1;
#X obj 719 245 v c-sampleplayer-rate-\$1;
#X obj 120 308 hsl 160 15 0 10000 0 0 \$0-sampleplayer-ramptime \$0-sampleplayer-ramptime
ramp_time_(0:10000)_sec 0 8 0 9 -228856 -128992 -33289 16 1;
#X floatatom 286 308 5 0 0 0 - #0-sampleplayer-ramptime -;
#X connect 0 0 5 0;
#X connect 1 0 3 0;
#X connect 2 0 0 0;
#X connect 5 0 1 0;
#X connect 7 0 19 0;
#X connect 8 0 7 0;
#X connect 8 1 10 0;
#X connect 9 0 17 0;
#X connect 10 0 11 0;
#X connect 11 0 12 0;
#X connect 12 0 13 0;
#X connect 13 0 18 0;
#X connect 16 0 8 0;
#X connect 19 0 9 0;
#X restore 556 60 pd draft;
#X obj 964 313 t f b b;
#X obj 1590 885 s \$0-sampleplayer-position;
#X obj 1582 282 r \$0-sampleplayer-position;
#X obj 1582 308 s c-sampleplayer-position-\$1;
#X obj 1395 490 r \$0-sampleplayer-position;
#X obj 930 1157 s \$0-sampleplayer-position;
#X obj 930 1134 f;
#X obj 948 1103 r \$0-samplefile-startpos;
#X text 1592 492 recibe cambios de posicion del dial;
#X obj 63 407 sel 0 1;
#X obj 86 442 s sampleplayer-\$1.play;
#X obj 63 474 s sampleplayer-\$1.pause;
#X obj 83 177 r \$0-sampleplayer-playstatus;
#X obj 964 271 r \$0-sampleplayer-position-input;
#X msg 1096 930 clear;
#X text 1096 814 CUANDO HAY OTRO REQUEST DE PLAY \, DESACTIVAR DSP
OFF, f 24;
#X obj 1096 877 r \$0-sampleplayer-dsp_on;
#X msg 1160 929 1;
#X obj 483 110 bng 15 250 50 0 sampleplayer-\$1.reset sampleplayer-\$1.reset
reset 18 7 0 10 -261234 -1 -1;
#N canvas -8 -8 1858 1037 \$0-audio 0;
#X text 45 18 AUDIO;
#X obj 125 70 r~ \$0-sampleplayer-phasor~;
#X obj 57 382 line~;
#X obj 38 414 *~;
#X obj 649 533 tgl 15 0 empty empty empty 17 7 0 10 -262144 -1 -1 1
1;
#X text 607 447 libera el procesamiento cuando se termina la lectura
del sample, f 37;
#X obj 38 517 *~;
#X obj 94 475 line~;
#X obj 598 495 r \$0-sampleplayer-dspswitch;
#X obj 94 419 r c-sampleplayer-volume-\$1;
#X obj 57 324 r \$0-sampleplayer-playstatus;
#X obj 598 558 switch~;
#X obj 333 383 line~;
#X obj 314 415 *~;
#X obj 314 518 *~;
#X obj 370 476 line~;
#X obj 370 420 r c-sampleplayer-volume-\$1;
#X obj 333 325 r \$0-sampleplayer-playstatus;
#X obj 38 215 tabread4~;
#X obj 314 223 tabread4~;
#X obj 436 16 r \$0-sampleplayer-numchannels;
#X obj 436 40 sel 1 2;
#X obj 356 101 pack f \$0;
#X msg 275 149 set \$2-sampleplayer-array\$1;
#X msg 494 149 set \$2-sampleplayer-array\$1;
#X obj 500 103 pack f \$0;
#X msg 410 69 0;
#X msg 521 70 1;
#X msg 469 69 0;
#X text 173 856 canal comün;
#X obj 174 831 throw~ s-sampleplayer-out0;
#X obj 376 831 throw~ s-sampleplayer-out1;
#X obj 47 767 s~ s-sampleplayer-out0-\$1;
#X obj 169 739 s~ s-sampleplayer-out1-\$1;
#X obj 94 448 pack f 50;
#X obj 370 449 pack f 50;
#X obj 57 351 pack f 50;
#X obj 333 352 pack f 50;
#X connect 1 0 18 0;
#X connect 1 0 19 0;
#X connect 2 0 3 1;
#X connect 3 0 6 0;
#X connect 6 0 32 0;
#X connect 6 0 30 0;
#X connect 7 0 6 1;
#X connect 8 0 4 0;
#X connect 8 0 11 0;
#X connect 9 0 34 0;
#X connect 10 0 36 0;
#X connect 12 0 13 1;
#X connect 13 0 14 0;
#X connect 14 0 33 0;
#X connect 14 0 31 0;
#X connect 15 0 14 1;
#X connect 16 0 35 0;
#X connect 17 0 37 0;
#X connect 18 0 3 0;
#X connect 19 0 13 0;
#X connect 20 0 21 0;
#X connect 21 0 26 0;
#X connect 21 1 27 0;
#X connect 21 1 28 0;
#X connect 22 0 23 0;
#X connect 23 0 18 0;
#X connect 24 0 19 0;
#X connect 25 0 24 0;
#X connect 26 0 22 0;
#X connect 26 0 25 0;
#X connect 27 0 25 0;
#X connect 28 0 22 0;
#X connect 34 0 7 0;
#X connect 35 0 15 0;
#X connect 36 0 2 0;
#X connect 37 0 12 0;
#X restore 657 80 pd \$0-audio;
#N canvas -8 -8 1858 1037 \$0-buffers 0;
#X obj 5 20 array define \$0-sampleplayer-array0;
#X obj 6 55 array define \$0-sampleplayer-array1;
#X restore 654 148 pd \$0-buffers;
#X obj 1333 953 s~ \$0-sampleplayer-phasor~;
#N canvas 60 176 450 300 \$0-label 0;
#X text 1 0 ritmico_3_b.wav;
#X text 1 16 48000Hz-(stereo);
#X coords 0 -1 1 1 220 35 2 0 0;
#X restore 309 128 pd \$0-label;
#N canvas -8 -8 1858 1037 label-structure_array 0;
#X obj 383 312 pointer;
#X obj 295 218 t b b b;
#X obj 140 238 t b b;
#X obj 140 401 *;
#X obj 140 427 + 0.5;
#X obj 140 453 int;
#X obj 140 375 t f f;
#X obj 482 92 table \$0.mem;
#N canvas 1009 704 450 300 g2b 0;
#X obj 18 1 struct \$0-g2b float y;
#X restore 429 88 pd g2b;
#X obj 140 292 until;
#X obj 140 319 f;
#X obj 171 319 + 1;
#X msg 172 266 0;
#X msg 295 321 0 35;
#X obj 140 265 f;
#X obj 214 328 /;
#X obj 140 208 t b f b b;
#X obj 140 347 mod;
#X obj 140 479 tabread \$0-sampleplayer-array0;
#X obj 247 427 setsize \$0-g2 tab;
#X obj 295 345 append \$0-g2 x y;
#X obj 200 506 element \$0-g2 tab;
#X obj 140 533 set \$0-g2b y;
#X obj 329 251 \$0;
#X msg 383 287 traverse pd-\$1-arraygraphic \, bang;
#X obj 140 506 * -100;
#X obj 87 54 struct \$0-g2 float x float y array tab \$0-g2b;
#X msg 247 276 200;
#X obj 87 80 plot curve tab 0 1 0 40 3.8;
#X obj 410 231 s sampleplayer-\$1.arraystructure.clear;
#X obj 140 169 v \$0-sampleplayer-samplesnumber;
#X obj 140 126 r sampleplayer-\$1.arraystructure.create;
#X obj 123 598 r \$0-sampleplayer-label;
#X obj 162 648 sel 1 2;
#X obj 185 698 symbol (stereo);
#X obj 162 678 symbol (mono);
#X obj 123 799 s pd-\$0-label;
#X obj 123 622 unpack s f f;
#X obj 123 728 pack s s f;
#X msg 123 771 text 1 0 \$1 \, text 1 16 \$3Hz-\$2;
#X connect 0 0 20 2;
#X connect 1 0 13 0;
#X connect 1 1 23 0;
#X connect 2 0 14 0;
#X connect 2 1 12 0;
#X connect 3 0 4 0;
#X connect 4 0 5 0;
#X connect 5 0 18 0;
#X connect 6 0 3 0;
#X connect 6 1 21 0;
#X connect 9 0 10 0;
#X connect 10 0 11 0;
#X connect 10 0 17 0;
#X connect 11 0 10 1;
#X connect 12 0 10 1;
#X connect 13 0 20 0;
#X connect 14 0 9 0;
#X connect 15 0 3 1;
#X connect 16 0 2 0;
#X connect 16 1 15 0;
#X connect 16 2 27 0;
#X connect 16 3 1 0;
#X connect 17 0 6 0;
#X connect 18 0 25 0;
#X connect 20 0 19 1;
#X connect 20 0 21 1;
#X connect 21 0 22 1;
#X connect 23 0 24 0;
#X connect 24 0 0 0;
#X connect 25 0 22 0;
#X connect 27 0 15 1;
#X connect 27 0 14 1;
#X connect 27 0 17 1;
#X connect 27 0 19 0;
#X connect 30 0 16 0;
#X connect 31 0 30 0;
#X connect 32 0 37 0;
#X connect 33 0 35 0;
#X connect 33 1 34 0;
#X connect 34 0 38 1;
#X connect 35 0 38 1;
#X connect 37 0 38 0;
#X connect 37 1 33 0;
#X connect 37 2 38 2;
#X connect 38 0 39 0;
#X connect 39 0 36 0;
#X restore 571 116 pd label-structure_array;
#X obj 18 41 \$1;
#X msg 18 68 \; sampleplayer-\$1.reset \; sampleplayer-\$1.clear \;
;
#X obj 63 376 r \$0-sampleplayer-play-in;
#X obj 667 644 del 55;
#X obj 667 587 sel 1;
#X obj 1096 903 t b b b;
#X obj 929 852 spigot;
#X obj 968 789 r \$0-sampleplayer-stop;
#X obj 968 813 == 0;
#X obj 768 886 s \$0-sampleplayer-stop;
#X obj 667 668 t b b;
#X msg 768 856 0;
#X obj 897 818 t b b;
#X msg 428 966 0;
#X text 495 989 se detiene cuando acaba el ciclo o se presiona stop
, f 28;
#X obj 428 1034 s \$0-sampleplayer-dspswitch;
#X obj 397 1148 s \$0-sampleplayer-position;
#X obj 397 1125 f;
#X obj 415 1094 r \$0-samplefile-startpos;
#X obj 396 920 t b b;
#X msg 549 924 clear;
#X text 549 808 CUANDO HAY OTRO REQUEST DE PLAY \, DESACTIVAR DSP OFF
, f 24;
#X obj 549 871 r \$0-sampleplayer-dsp_on;
#X msg 613 923 1;
#X obj 549 897 t b b b;
#X obj 667 611 t b b;
#X obj 546 760 s \$0-sampleplayer-playstatus;
#X msg 552 724 0;
#X obj 961 1033 pipe 55;
#X obj 1398 311 t b b b b b;
#X obj 1527 383 s \$0-sampleplayer-stop;
#X msg 1527 359 0;
#X obj 1521 716 del 20;
#X obj 428 1001 pipe 0;
#X obj 929 929 t b b b;
#X msg 1121 982 0;
#X obj 1590 820 metro 100;
#X text 421 15 Jorge Quispe (2020) https://github.com/jlquispec;
#X connect 0 0 17 0;
#X connect 0 0 22 0;
#X connect 1 0 2 1;
#X connect 2 0 20 0;
#X connect 4 0 12 0;
#X connect 7 0 91 0;
#X connect 8 0 150 0;
#X connect 10 0 65 0;
#X connect 11 0 65 0;
#X connect 12 0 0 0;
#X connect 16 0 83 0;
#X connect 16 0 17 1;
#X connect 17 0 2 0;
#X connect 17 0 7 0;
#X connect 18 0 142 0;
#X connect 19 0 16 0;
#X connect 20 0 111 0;
#X connect 21 0 16 1;
#X connect 22 0 21 0;
#X connect 23 0 16 0;
#X connect 24 0 37 0;
#X connect 24 1 23 0;
#X connect 25 0 73 0;
#X connect 27 0 16 0;
#X connect 28 0 42 0;
#X connect 29 0 28 0;
#X connect 30 0 29 0;
#X connect 30 1 28 1;
#X connect 31 0 4 0;
#X connect 32 0 4 0;
#X connect 33 0 4 0;
#X connect 34 0 33 0;
#X connect 34 1 8 0;
#X connect 35 0 34 0;
#X connect 35 1 86 0;
#X connect 35 1 143 0;
#X connect 36 0 0 1;
#X connect 37 0 81 0;
#X connect 37 1 22 1;
#X connect 41 0 23 0;
#X connect 41 1 31 1;
#X connect 41 2 35 0;
#X connect 42 0 32 0;
#X connect 42 1 4 1;
#X connect 43 0 66 0;
#X connect 44 0 65 0;
#X connect 45 0 67 0;
#X connect 46 0 11 0;
#X connect 47 0 44 0;
#X connect 48 0 10 0;
#X connect 49 0 51 0;
#X connect 50 0 52 0;
#X connect 51 0 62 0;
#X connect 52 0 62 0;
#X connect 57 0 41 0;
#X connect 58 0 60 0;
#X connect 59 0 61 0;
#X connect 60 0 59 0;
#X connect 60 1 61 1;
#X connect 61 0 69 0;
#X connect 62 0 63 0;
#X connect 62 1 77 0;
#X connect 63 0 78 0;
#X connect 64 0 80 0;
#X connect 65 0 64 0;
#X connect 65 1 72 0;
#X connect 66 0 65 0;
#X connect 67 0 65 0;
#X connect 68 0 30 0;
#X connect 70 0 59 0;
#X connect 71 0 1 0;
#X connect 72 0 64 1;
#X connect 74 0 24 0;
#X connect 74 0 31 0;
#X connect 74 0 32 1;
#X connect 74 0 58 0;
#X connect 77 0 63 1;
#X connect 79 0 19 0;
#X connect 82 0 114 0;
#X connect 83 1 126 0;
#X connect 85 0 57 0;
#X connect 86 0 16 0;
#X connect 88 0 118 0;
#X connect 90 0 36 0;
#X connect 90 1 23 0;
#X connect 90 2 150 0;
#X connect 92 0 93 0;
#X connect 94 0 36 1;
#X connect 96 0 95 0;
#X connect 97 0 96 1;
#X connect 99 0 101 0;
#X connect 99 1 100 0;
#X connect 102 0 5 0;
#X connect 103 0 90 0;
#X connect 104 0 142 0;
#X connect 106 0 119 0;
#X connect 107 0 76 0;
#X connect 114 0 115 0;
#X connect 116 0 99 0;
#X connect 117 0 124 0;
#X connect 118 0 139 0;
#X connect 119 0 104 0;
#X connect 119 1 107 0;
#X connect 120 0 148 0;
#X connect 121 0 122 0;
#X connect 122 0 120 1;
#X connect 124 0 133 0;
#X connect 124 1 27 0;
#X connect 125 0 123 0;
#X connect 126 0 125 0;
#X connect 126 1 120 0;
#X connect 127 0 147 0;
#X connect 131 0 130 0;
#X connect 132 0 131 1;
#X connect 133 0 131 0;
#X connect 133 1 127 0;
#X connect 134 0 147 0;
#X connect 136 0 138 0;
#X connect 137 0 129 0;
#X connect 138 0 134 0;
#X connect 138 1 137 0;
#X connect 139 0 117 0;
#X connect 139 1 141 0;
#X connect 141 0 140 0;
#X connect 142 0 76 0;
#X connect 143 0 146 0;
#X connect 143 1 32 0;
#X connect 143 2 36 0;
#X connect 143 3 25 0;
#X connect 143 4 145 0;
#X connect 145 0 144 0;
#X connect 146 0 150 0;
#X connect 147 0 129 0;
#X connect 148 0 96 0;
#X connect 148 1 18 0;
#X connect 148 2 149 0;
#X connect 149 0 75 0;
#X connect 150 0 7 0;
#X coords 0 -1 1 1 240 240 1 300 100;
