#N struct 1085-g2 float x float y array tab 1085-g2b;
#N struct 1085-g2b float y;
#N canvas -8 -8 1858 1037 12;
#X obj 1271 536 phasor~;
#X obj 1309 816 - 3;
#X obj 1272 856 *~;
#X text 1308 848 rango de 1 a tamaño-2, f 12;
#X obj 1271 421 *;
#X obj 310 227 tgl 14 0 \$0-sampleplayer-playstatus \$0-sampleplayer-playstatus
play/pause 17 6 0 8 -204786 -1 -1 0 1;
#X obj 313 296 hsl 160 15 -2 2 0 0 c-sampleplayer-rate-\$1 c-sampleplayer-rate-\$1
rate_(-2:2) 0 7 0 9 -262130 -128992 -33289 11925 1;
#X obj 1552 856 snapshot~;
#X msg 1548 742 stop, f 5;
#X obj 313 209 hsl 205 14 0 1 0 0 empty \$0-sampleplayer-position empty
-2 -8 0 10 -228856 -1 -1 2230 1;
#X symbolatom 310 133 28 0 0 2 Filename: - -;
#X msg 438 376 1;
#X msg 355 376 -1;
#X obj 1271 457 sig~;
#X obj 313 260 hsl 160 15 0 1 0 0 c-sampleplayer-volume-\$1 c-sampleplayer-volume-\$1
volume_(0:1) 0 7 0 9 -261682 -128992 -33289 15900 1;
#X obj 310 240 tgl 14 0 c-sampleplayer-floop-\$1 c-sampleplayer-floop-\$1
loop 17 6 0 8 -262144 -1 -1 0 1;
#X floatatom 471 226 6 0 0 0 sec. #0-sampleplayer-relativelength -
;
#X obj 843 702 samphold~;
#X obj 1272 781 *~;
#X msg 1025 846 0;
#X obj 843 609 sig~;
#X obj 1272 885 +~ 1;
#X obj 1349 999 line~;
#X obj 1271 1027 *~;
#X obj 923 675 wrap~;
#X obj 923 649 *~;
#X msg 1089 521 reset 0;
#X obj 921 104 t f b;
#X obj 436 817 tgl 15 0 empty empty empty 17 7 0 10 -262144 -1 -1 1
1;
#X text 394 731 libera el procesamiento cuando se termina la lectura
del sample, f 37;
#X msg 1477 367 1;
#X obj 375 226 bng 14 250 50 0 sampleplayer-\$1.stop empty stop 17
6 0 8 -204786 -1 -1;
#X msg 754 612 set 0;
#X obj 1415 176 /;
#X msg 1415 149 1;
#X obj 1415 122 t b f;
#X obj 1222 226 spigot;
#X obj 1271 385 f;
#X msg 1296 254 0, f 4;
#X obj 1296 228 t b b;
#X obj 1296 156 sel 0 1;
#X obj 1363 498 f;
#N canvas -8 -8 1858 1037 rate 0;
#X obj 48 28 inlet;
#X obj 56 80 moses;
#X msg 106 109 -1;
#X msg 138 109 1;
#X obj 56 56 t f b;
#X floatatom 107 142 5 0 0 0 - - -;
#X floatatom 51 144 5 0 0 0 - - -;
#X obj 51 205 outlet;
#X obj 183 208 outlet;
#X msg 37 109 1;
#X msg 72 110 0;
#X connect 0 0 4 0;
#X connect 1 0 2 0;
#X connect 1 0 9 0;
#X connect 1 1 3 0;
#X connect 1 1 10 0;
#X connect 2 0 5 0;
#X connect 3 0 5 0;
#X connect 4 0 1 0;
#X connect 5 0 8 0;
#X connect 6 0 7 0;
#X connect 9 0 6 0;
#X connect 10 0 6 0;
#X restore 921 128 pd rate;
#X obj 1741 343 f;
#X text 1396 503 posicion de lectura de la muestra;
#X obj 375 239 bng 14 250 50 0 sampleplayer-\$1.replay empty replay
17 6 0 8 -204786 -1 -1;
#X obj 1566 295 s c-play_sample-status-\$1;
#X msg 1566 266 1;
#X text 1254 16 jlquispec 2020 *** https://github.com/jlquispec;
#X text 1710 404 se almacena la pos de inicio de lectura;
#X obj 1239 123 t b f f;
#X obj 1403 318 t b b b b b;
#X obj 1415 198 t b f;
#X obj 132 799 *~;
#X obj 460 311 bng 15 250 50 0 empty empty 2 5 8 0 8 -262144 -1 -1
;
#X msg 398 376 0;
#X obj 310 311 bng 15 250 50 0 empty empty -2 4 8 0 8 -262144 -1 -1
;
#X obj 345 311 bng 15 250 50 0 empty empty -1 4 8 0 8 -262144 -1 -1
;
#X obj 385 311 bng 15 250 50 0 empty empty 0 5 8 0 8 -262144 -1 -1
;
#X obj 425 311 bng 15 250 50 0 empty empty 1 5 8 0 8 -262144 -1 -1
;
#X obj 310 275 bng 15 250 50 0 empty empty 0 5 8 0 8 -262144 -1 -1
;
#X obj 460 275 bng 15 250 50 0 empty empty 1 5 8 0 8 -262144 -1 -1
;
#X msg 47 313 0;
#X msg 78 313 1;
#X floatatom 479 296 5 0 0 0 - c-sampleplayer-rate-#1 -;
#X floatatom 479 257 5 0 1 0 - c-sampleplayer-volume-#1 -;
#X text 1088 845 se detiene cuando acaba el ciclo o se presiona stop
, f 24;
#X text 920 255 primero pausar \, luego detener;
#X obj 479 344 tgl 15 0 sampleplayer-\$1.rate.randomizer sampleplayer-\$1.rate.randomizer
rand. 18 8 0 10 -262144 -1 -1 0 1;
#X obj 1239 92 change 0;
#X obj 385 836 switch~;
#X obj 677 139 abs;
#X obj 677 189 f;
#X obj 677 163 t b f;
#X obj 677 210 /;
#X obj 47 345 t f b;
#X obj 47 403 pack f f;
#X obj 310 481 pack f f;
#X obj 310 415 t f b;
#X obj 148 769 line~;
#X obj 148 742 pack f 30;
#X msg 478 376 2;
#X msg 310 376 -2;
#X obj 131 870 s~ s-sampleplayer-out0-\$1;
#X obj 175 912 throw~ s-sampleplayer-out0;
#X obj 385 779 r \$0-sampleplayer-dspswitch;
#X obj 1415 94 r \$0-sampleplayer-length;
#X obj 677 233 s \$0-sampleplayer-relativelength;
#X obj 707 139 r \$0-sampleplayer-length;
#X obj 1309 772 r \$0-sampleplayer-samplesnumber;
#X obj 310 40 r \$0-sampleplayer-filename;
#X obj 342 446 v \$0-sampleplayer-ramptime;
#X obj 148 713 r c-sampleplayer-volume-\$1;
#X obj 1477 394 s \$0-sampleplayer-dspswitch;
#X obj 921 40 r c-sampleplayer-rate-\$1;
#X obj 996 984 s \$0-sampleplayer-playstatus;
#X obj 1025 907 s \$0-sampleplayer-dspswitch;
#X obj 1349 951 r \$0-sampleplayer-playstatus;
#X obj 79 371 v \$0-sampleplayer-ramptime;
#X obj 47 431 s sampleplayer-\$1.volume.ramp;
#X obj 843 576 r c-sampleplayer-floop-\$1;
#X obj 1271 917 tabread4~ \$0-sampleplayer-array0;
#X obj 1271 1070 s~ \$0-sampleplayer-tabread4~;
#X obj 132 685 r~ \$0-sampleplayer-tabread4~;
#X obj 310 508 s sampleplayer-\$1.rate.ramp;
#X obj 993 799 t b b;
#X obj 1759 306 r \$0-samplefile-startpos;
#X obj 921 175 s \$0-samplefile-startpos;
#X obj 38 19 loadbang;
#X obj 1566 165 r sampleplayer-\$1.replay;
#X obj 1566 217 t b b;
#X obj 1552 827 metro 100;
#X obj 842 763 threshold~ 0.5 0 0.5 0;
#N canvas -8 -8 1858 1037 \$0-arraygraphic 0;
#X scalar 1085-g2 0 35 \; -0 \; 12.4323 \; 5.16667 \; -2.90625 \; -1.13021
\; 9.9297 \; -7.66928 \; 2.74479 \; 3.47136 \; 4.84375 \; -0.807292
\; 4.52084 \; -4.19792 \; 4.03646 \; -1.77604 \; 1.3724 \; 4.92448
\; -0.726563 \; 0.888022 \; 5.57032 \; -3.875 \; -0.0807292 \; 0.322917
\; -2.82552 \; -4.11719 \; 2.66407 \; 1.3724 \; 8.88022 \; 1.77604
\; 11.1406 \; -2.50261 \; 4.35938 \; 9.76824 \; 3.875 \; -7.91147 \;
4.60157 \; 3.39063 \; -5.00521 \; -0.645834 \; -19.9401 \; -7.02344
\; 9.76824 \; -3.71355 \; 1.3724 \; -0.726563 \; 0.565105 \; -2.98698
\; -4.35938 \; -0.888022 \; -2.17969 \; 12.7552 \; 6.29688 \; -0.484375
\; 8.39584 \; 1.29167 \; 3.39063 \; -3.14844 \; -9.68751 \; -2.90625
\; 0.403646 \; 5.57032 \; -11.8672 \; -2.01823 \; -0.565105 \; 1.85677
\; -3.55209 \; 2.98698 \; 8.47657 \; -5.16667 \; -6.6198 \; -1.69531
\; 14.1276 \; 2.66407 \; 0.565105 \; 12.6745 \; -4.27865 \; -0.807292
\; -7.42709 \; -2.66407 \; -9.76824 \; -19.2943 \; 9.12241 \; -12.1094
\; -1.85677 \; -5.2474 \; 23.0078 \; 4.19792 \; -5.00521 \; 3.71355
\; -22.1198 \; 1.21094 \; 10.0104 \; 4.84375 \; 2.98698 \; 2.82552
\; -3.95573 \; 0.322917 \; -6.13542 \; 7.26563 \; 0.242188 \; 4.03646
\; -1.21094 \; 7.42709 \; 11.8672 \; 0.888022 \; -11.7057 \; -9.44532
\; 4.11719 \; 3.22917 \; 3.875 \; 2.50261 \; -4.84375 \; -2.17969 \;
-6.86199 \; -8.5573 \; 5.16667 \; -7.66928 \; -6.6198 \; -3.63282 \;
0.888022 \; -3.55209 \; 8.31511 \; -16.711 \; 4.11719 \; 8.71876 \;
-1.69531 \; -18.4063 \; -5.2474 \; 5.08594 \; 8.71876 \; -6.70053 \;
5.48959 \; 5.32813 \; 13.9662 \; 15.0964 \; 13.2396 \; -16.1458 \;
-1.77604 \; 5.2474 \; -4.60157 \; 5.89323 \; -7.75001 \; 5.48959 \;
0.968751 \; 2.98698 \; 10.5755 \; -8.15365 \; 6.70053 \; -1.85677 \;
12.9974 \; 11.0599 \; 7.1849 \; -7.26563 \; -2.17969 \; 2.34115 \;
-11.9479 \; 0.888022 \; -21.0703 \; 3.95573 \; -7.02344 \; 2.66407
\; -22.1198 \; 21.8776 \; 12.4323 \; -3.875 \; -11.4636 \; 7.83074
\; -26.9636 \; 19.2943 \; 4.44011 \; -9.60678 \; -5.40886 \; -12.7552
\; -13.4818 \; 3.79427 \; 0.888022 \; -28.4974 \; 16.388 \; 14.7735
\; -6.53907 \; -11.3828 \; -19.2943 \; -8.15365 \; -20.1016 \; -23.0078
\; 0.322917 \; -10.737 \; 7.75001 \; 13.2396 \; 9.84897 \; -5.65105
\; 3.55209 \; -11.1406 \; 0.161458 \; 2.46122 \; -13.0905 \; 0.144783
\; -0.832414 \; -1.73721 \; 1.12148 \; \;;
#X coords 0 -1 755 150 210 50 2 0 0;
#X restore 310 159 pd \$0-arraygraphic;
#X obj 38 231 array define \$0-sampleplayer-array0;
#N canvas 426 232 1858 1037 structure_array 0;
#X obj 383 312 pointer;
#X obj 295 218 t b b b;
#X obj 140 238 t b b;
#X obj 140 401 *;
#X obj 140 427 + 0.5;
#X obj 140 453 int;
#X obj 140 375 t f f;
#X obj 482 92 table \$0.mem;
#N canvas 1009 704 450 300 g2b 0;
#X obj 18 1 struct \$0-g2b float y;
#X restore 429 88 pd g2b;
#X obj 140 292 until;
#X obj 140 319 f;
#X obj 171 319 + 1;
#X msg 172 266 0;
#X msg 295 321 0 35;
#X obj 140 265 f;
#X obj 214 328 /;
#X obj 140 208 t b f b b;
#X obj 140 347 mod;
#X obj 140 147 r \$0-sampleplayer-samplesnumber;
#X obj 140 479 tabread \$0-sampleplayer-array0;
#X obj 247 427 setsize \$0-g2 tab;
#X obj 295 345 append \$0-g2 x y;
#X obj 200 506 element \$0-g2 tab;
#X obj 140 533 set \$0-g2b y;
#X obj 329 251 \$0;
#X msg 383 287 traverse pd-\$1-arraygraphic \, bang;
#X obj 140 506 * -100;
#X obj 87 54 struct \$0-g2 float x float y array tab \$0-g2b;
#X msg 247 276 200;
#X obj 87 80 plot curve tab 0 1 0 40 3.8;
#X msg 806 277 \; pd-\$1-arraygraphic clear;
#X text 798 146 METHOD;
#X obj 806 202 r sampleplayer-\$1.array.clear;
#X obj 410 231 s sampleplayer-\$1.array.clear;
#X obj 806 246 \$0;
#X connect 0 0 21 2;
#X connect 1 0 13 0;
#X connect 1 1 24 0;
#X connect 1 2 33 0;
#X connect 2 0 14 0;
#X connect 2 1 12 0;
#X connect 3 0 4 0;
#X connect 4 0 5 0;
#X connect 5 0 19 0;
#X connect 6 0 3 0;
#X connect 6 1 22 0;
#X connect 9 0 10 0;
#X connect 10 0 11 0;
#X connect 10 0 17 0;
#X connect 11 0 10 1;
#X connect 12 0 10 1;
#X connect 13 0 21 0;
#X connect 14 0 9 0;
#X connect 15 0 3 1;
#X connect 16 0 2 0;
#X connect 16 1 15 0;
#X connect 16 2 28 0;
#X connect 16 3 1 0;
#X connect 17 0 6 0;
#X connect 18 0 16 0;
#X connect 19 0 26 0;
#X connect 21 0 20 1;
#X connect 21 0 22 1;
#X connect 22 0 23 1;
#X connect 24 0 25 0;
#X connect 25 0 0 0;
#X connect 26 0 23 0;
#X connect 28 0 15 1;
#X connect 28 0 14 1;
#X connect 28 0 17 1;
#X connect 28 0 20 0;
#X connect 32 0 34 0;
#X connect 34 0 30 0;
#X restore 38 197 pd structure_array;
#X obj 56 884 outlet~;
#X text 41 168 array;
#X obj 1239 62 r \$0-sampleplayer-playstatus;
#X obj 38 65 s sampleplayer-\$1.clean;
#X obj 1025 878 pipe 110;
#X obj 964 1019 t b b;
#X obj 964 885 t b f;
#X obj 964 1139 s \$0-sampleplayer-unlock_play;
#X msg 1051 1066 0;
#X msg 964 1091 1;
#X obj 964 1063 delay 110;
#X msg 1152 375 set 1;
#N canvas -8 -8 1858 1037 methods 0;
#X text 1014 93 VOLUME;
#X text 1288 93 RATE;
#X obj 1011 313 pack f f f, f 11;
#X msg 1011 347 \$3 \, \$1 \$2;
#X obj 1011 190 unpack f f;
#X obj 1011 165 t a b;
#X obj 1043 268 f;
#X obj 1298 295 pack f f f, f 11;
#X msg 1298 323 \$3 \, \$1 \$2;
#X obj 1298 184 unpack f f;
#X obj 1335 262 f;
#X obj 1298 215 t f b b;
#X obj 1298 159 t a b;
#X msg 1404 215 0;
#X msg 1119 205 0;
#X obj 1011 211 t f b b;
#X obj 1011 389 change -1;
#X obj 1299 376 change 0;
#X obj 1068 231 * 1;
#X obj 1365 215 * 1;
#X obj 1299 402 s c-sampleplayer-rate-\$1;
#X obj 1372 262 v c-sampleplayer-rate-\$1;
#X obj 1011 411 s c-sampleplayer-volume-\$1;
#X obj 1011 139 r sampleplayer-\$1.volume.ramp;
#X obj 1298 133 r sampleplayer-\$1.rate.ramp;
#X text 1003 55 RAMPA, f 6;
#X obj 1076 284 v c-sampleplayer-volume-\$1;
#X obj 1011 368 line 1 30;
#X obj 1298 353 line 1 40;
#X obj 39 113 r sampleplayer-\$1.reset;
#X obj 102 203 s sampleplayer-\$1.stop;
#X obj 351 114 r sampleplayer-\$1.clean;
#X text 57 61 RESET/CLEAN;
#X obj 383 213 s sampleplayer-\$1.reset;
#X obj 351 156 t b b;
#X msg 383 354 \; \$1-sampleplayer-array0 resize 0 \; \$1-sampleplayer-array0
const 0 \; \$1-sampleplayer-samplerate 0 \; \$1-sampleplayer-samplesnumber
0 \; \$1-sampleplayer-length 0 \; \$1-sampleplayer-filename symbol
\;;
#X obj 383 324 \$0;
#X obj 351 295 t b b;
#X obj 351 488 s sampleplayer-\$1.array.clear;
#X obj 351 269 del 80;
#X text 823 512 PLAY;
#X obj 814 538 r sampleplayer-\$1.play;
#X obj 814 588 spigot;
#X obj 853 563 r \$0-sampleplayer-unlock_play;
#X obj 1475 635 t b b;
#X obj 1475 596 r sampleplayer-\$1.stop;
#X text 1451 564 STOP.;
#X obj 1475 701 del 30;
#X obj 1507 667 s \$0-sampleplayer-turn_dsp_off;
#X obj 1475 746 s \$0-sampleplayer-stop;
#X obj 1500 945 \$0;
#X obj 1500 911 t b;
#X text 1486 842 PAUSE;
#X obj 1500 883 r sampleplayer-\$1.pause;
#X msg 1501 971 \; \$1-sampleplayer-playstatus 0 \;;
#X text 1508 522 inicia el proceso de stop \, se atenua y apaga el
dsp, f 20;
#X obj 114 902 soundfiler;
#X text 226 1004 tamaño en muestras;
#X obj 114 821 symbol;
#X obj 137 1107 /;
#X obj 137 1053 t f b;
#X obj 114 848 pack s \$0;
#X obj 114 758 t b a;
#X obj 174 792 symbol;
#X obj 181 933 list split 1;
#X obj 169 1083 v \$0-sampleplayer-samplerate;
#X obj 181 958 s \$0-sampleplayer-samplerate;
#X obj 114 595 r sampleplayer-\$1.openfile;
#X msg 114 723 \$1/\$2;
#X obj 286 850 s \$0-sampleplayer-filename;
#X obj 137 1139 s \$0-sampleplayer-length;
#X obj 160 1024 s \$0-sampleplayer-samplesnumber;
#X text 92 567 ABRIR ARCHIVO;
#X obj 114 693 pack s s;
#X obj 114 621 t a b;
#X msg 114 875 read -resize \$1 \$2-sampleplayer-array0, f 39;
#X obj 446 748 s sampleplayer-\$1.clean;
#X obj 446 650 t b b;
#X obj 286 824 symbol;
#X obj 114 652 unpack s s;
#X msg 325 795 symbol \$1;
#X obj 114 965 t b f f;
#X obj 114 1233 s \$0-sampleplayer-unlock_play;
#X msg 114 1196 1;
#X text 820 1156 PLAY;
#X obj 811 1184 r sampleplayer-\$1.playoneshot;
#X obj 843 1241 unpack f f f;
#X obj 811 1323 s sampleplayer-\$1.play;
#X msg 931 1280 \$1 0;
#X msg 1203 1279 \$1 0;
#X obj 39 161 t b b b;
#X obj 39 210 \$1;
#X obj 72 231 \$0;
#X msg 72 266 \; \$1-sampleplayer-unlock_play 0 \; \$1-sampleplayer-ramptime
3000 \;;
#X msg 39 332 \; sampleplayer-\$1.volume.ramp 1 0 \; sampleplayer-\$1.rate.ramp
1 0 \; c-sampleplayer-floop-\$1 0 \;;
#X obj 811 1213 t b a;
#X obj 811 1279 pack f f;
#X msg 811 1248 0;
#X obj 999 1321 s sampleplayer-\$1.rate.ramp;
#X obj 1203 1322 s sampleplayer-\$1.volume.ramp;
#X text 1047 1213 STARTPOS \, RATE \, VOLUME;
#X obj 926 637 v \$0-sampleplayer-playstatus;
#X obj 814 613 t a b;
#X obj 814 718 unpack f f;
#X obj 814 814 s c-sampleplayer-floop-\$1;
#X obj 926 748 s \$0-sampleplayer-playstatus;
#X msg 926 720 1;
#X obj 926 660 sel 0 1;
#X obj 993 671 r \$0-samplefile-startpos;
#X obj 975 697 f;
#X obj 114 788 del 100;
#X obj 975 723 s \$0-sampleplayer-position-input;
#X obj 881 776 s \$0-sampleplayer-position-input;
#X obj 114 1167 del 40;
#X connect 2 0 3 0;
#X connect 3 0 27 0;
#X connect 4 0 15 0;
#X connect 4 1 18 0;
#X connect 5 0 4 0;
#X connect 5 1 14 0;
#X connect 6 0 2 1;
#X connect 7 0 8 0;
#X connect 8 0 28 0;
#X connect 9 0 11 0;
#X connect 9 1 19 0;
#X connect 10 0 7 1;
#X connect 11 0 7 0;
#X connect 11 1 10 0;
#X connect 11 2 21 0;
#X connect 12 0 9 0;
#X connect 12 1 13 0;
#X connect 13 0 10 1;
#X connect 14 0 6 1;
#X connect 15 0 2 0;
#X connect 15 1 6 0;
#X connect 15 2 26 0;
#X connect 16 0 22 0;
#X connect 17 0 20 0;
#X connect 18 0 6 1;
#X connect 19 0 10 1;
#X connect 21 0 7 2;
#X connect 23 0 5 0;
#X connect 24 0 12 0;
#X connect 26 0 2 2;
#X connect 27 0 16 0;
#X connect 28 0 17 0;
#X connect 29 0 90 0;
#X connect 31 0 34 0;
#X connect 34 0 39 0;
#X connect 34 1 33 0;
#X connect 36 0 35 0;
#X connect 37 0 38 0;
#X connect 37 1 36 0;
#X connect 39 0 37 0;
#X connect 41 0 42 0;
#X connect 42 0 102 0;
#X connect 43 0 42 1;
#X connect 44 0 47 0;
#X connect 44 1 48 0;
#X connect 45 0 44 0;
#X connect 47 0 49 0;
#X connect 50 0 54 0;
#X connect 51 0 50 0;
#X connect 53 0 51 0;
#X connect 56 0 81 0;
#X connect 56 1 64 0;
#X connect 58 0 61 0;
#X connect 59 0 70 0;
#X connect 60 0 59 0;
#X connect 60 1 65 0;
#X connect 61 0 75 0;
#X connect 62 0 110 0;
#X connect 62 1 63 0;
#X connect 63 0 58 1;
#X connect 64 0 66 0;
#X connect 65 0 59 1;
#X connect 67 0 74 0;
#X connect 68 0 62 0;
#X connect 73 0 68 0;
#X connect 74 0 79 0;
#X connect 74 1 77 0;
#X connect 75 0 56 0;
#X connect 77 0 76 0;
#X connect 78 0 69 0;
#X connect 79 0 73 0;
#X connect 79 1 73 1;
#X connect 79 1 80 0;
#X connect 80 0 78 1;
#X connect 81 0 113 0;
#X connect 81 1 60 0;
#X connect 81 2 71 0;
#X connect 83 0 82 0;
#X connect 85 0 95 0;
#X connect 86 0 96 1;
#X connect 86 1 88 0;
#X connect 86 2 89 0;
#X connect 88 0 98 0;
#X connect 89 0 99 0;
#X connect 90 0 91 0;
#X connect 90 1 92 0;
#X connect 90 2 30 0;
#X connect 91 0 94 0;
#X connect 92 0 93 0;
#X connect 95 0 97 0;
#X connect 95 1 86 0;
#X connect 96 0 87 0;
#X connect 97 0 96 0;
#X connect 101 0 107 0;
#X connect 102 0 103 0;
#X connect 102 1 101 0;
#X connect 103 0 104 0;
#X connect 103 1 112 0;
#X connect 106 0 105 0;
#X connect 107 0 106 0;
#X connect 107 1 109 0;
#X connect 108 0 109 1;
#X connect 109 0 111 0;
#X connect 110 0 58 0;
#X connect 110 0 78 0;
#X connect 113 0 83 0;
#X restore 66 528 pd methods;
#X obj 1042 811 r \$0-sampleplayer-turn_dsp_off;
#X obj 754 534 r \$0-sampleplayer-stop;
#X text 1021 1106 bloqueo de reproduccion en apagado;
#X text 135 651 AUDIO;
#N canvas -8 -8 1858 1037 draft 0;
#X obj 94 131 sel 1;
#X obj 94 187 \$0;
#X obj 94 103 v \$0-sampleplayer-playstatus;
#X msg 93 215 \; \$1-sampleplayer-playstatus 1 \;;
#X text 94 66 EN CASO SE ESTÉ EJECUTANDO \, RETOMA LA REPRODUCCIÓN
;
#X obj 94 160 del 150;
#X text 158 156 DEBE SUPERAR AL TIEMPO DE CARGA (100) Y PROCESO DE
APAGADO + DSPSWITCH OFF(140);
#X obj 719 204 sel 0;
#X obj 719 160 t f f;
#X obj 719 276 f;
#X obj 978 205 metro 250;
#X obj 978 232 random 200;
#X obj 978 259 - 100;
#X obj 978 287 / 100;
#X text 711 79 randomizer;
#X text 715 44 RANDOMIZADOR;
#X obj 719 127 r sampleplayer-\$1.rate.randomizer;
#X obj 719 313 s c-sampleplayer-rate-\$1;
#X obj 978 324 s c-sampleplayer-rate-\$1;
#X obj 719 245 v c-sampleplayer-rate-\$1;
#X obj 120 308 hsl 160 15 0 10000 0 0 \$0-sampleplayer-ramptime \$0-sampleplayer-ramptime
ramp_time_(0:10000)_sec 0 8 0 9 -228856 -128992 -33289 4770 1;
#X floatatom 286 308 5 0 0 0 - #0-sampleplayer-ramptime -;
#X connect 0 0 5 0;
#X connect 1 0 3 0;
#X connect 2 0 0 0;
#X connect 5 0 1 0;
#X connect 7 0 19 0;
#X connect 8 0 7 0;
#X connect 8 1 10 0;
#X connect 9 0 17 0;
#X connect 10 0 11 0;
#X connect 11 0 12 0;
#X connect 12 0 13 0;
#X connect 13 0 18 0;
#X connect 16 0 8 0;
#X connect 19 0 9 0;
#X restore 61 575 pd draft;
#X obj 1625 749 del 100;
#X obj 1066 358 t f b b;
#X obj 1552 892 s \$0-sampleplayer-position;
#X obj 1741 379 s \$0-sampleplayer-position-input;
#X obj 1066 316 r \$0-sampleplayer-position-input;
#X obj 1634 953 r \$0-sampleplayer-position;
#X obj 1634 979 s c-sampleplayer-position-\$1;
#X obj 1349 978 pack f 30;
#X connect 0 0 18 0;
#X connect 0 0 25 0;
#X connect 1 0 2 1;
#X connect 2 0 21 0;
#X connect 4 0 13 0;
#X connect 7 0 136 0;
#X connect 8 0 111 0;
#X connect 11 0 78 0;
#X connect 12 0 78 0;
#X connect 13 0 0 0;
#X connect 17 0 112 0;
#X connect 17 0 18 1;
#X connect 18 0 2 0;
#X connect 18 0 7 0;
#X connect 19 0 120 0;
#X connect 19 0 122 0;
#X connect 20 0 17 0;
#X connect 21 0 101 0;
#X connect 22 0 23 1;
#X connect 23 0 102 0;
#X connect 24 0 17 1;
#X connect 25 0 24 0;
#X connect 26 0 17 0;
#X connect 27 0 42 0;
#X connect 27 1 26 0;
#X connect 30 0 93 0;
#X connect 32 0 17 0;
#X connect 33 0 52 0;
#X connect 34 0 33 0;
#X connect 35 0 34 0;
#X connect 35 1 33 1;
#X connect 36 0 4 0;
#X connect 37 0 4 0;
#X connect 38 0 4 0;
#X connect 39 0 38 0;
#X connect 39 1 8 0;
#X connect 40 0 39 0;
#X connect 40 1 127 0;
#X connect 40 1 51 0;
#X connect 41 0 0 1;
#X connect 42 0 107 0;
#X connect 42 1 25 1;
#X connect 43 0 41 1;
#X connect 43 0 137 0;
#X connect 47 0 46 0;
#X connect 50 0 26 0;
#X connect 50 1 36 1;
#X connect 50 2 40 0;
#X connect 51 0 134 0;
#X connect 51 1 37 0;
#X connect 51 3 41 0;
#X connect 51 4 30 0;
#X connect 52 0 37 0;
#X connect 52 1 4 1;
#X connect 53 0 116 0;
#X connect 53 0 83 0;
#X connect 53 0 84 0;
#X connect 54 0 81 0;
#X connect 55 0 78 0;
#X connect 56 0 82 0;
#X connect 57 0 12 0;
#X connect 58 0 55 0;
#X connect 59 0 11 0;
#X connect 60 0 62 0;
#X connect 61 0 63 0;
#X connect 62 0 75 0;
#X connect 63 0 75 0;
#X connect 69 0 50 0;
#X connect 71 0 73 0;
#X connect 72 0 74 0;
#X connect 73 0 72 0;
#X connect 73 1 74 1;
#X connect 74 0 87 0;
#X connect 75 0 76 0;
#X connect 75 1 98 0;
#X connect 76 0 99 0;
#X connect 77 0 104 0;
#X connect 78 0 77 0;
#X connect 78 1 91 0;
#X connect 79 0 53 1;
#X connect 80 0 79 0;
#X connect 81 0 78 0;
#X connect 82 0 78 0;
#X connect 85 0 28 0;
#X connect 85 0 70 0;
#X connect 86 0 35 0;
#X connect 88 0 72 0;
#X connect 89 0 1 0;
#X connect 90 0 10 0;
#X connect 91 0 77 1;
#X connect 92 0 80 0;
#X connect 94 0 27 0;
#X connect 94 0 36 0;
#X connect 94 0 37 1;
#X connect 94 0 71 0;
#X connect 97 0 141 0;
#X connect 98 0 76 1;
#X connect 100 0 20 0;
#X connect 101 0 23 0;
#X connect 103 0 53 0;
#X connect 105 0 43 0;
#X connect 105 1 19 0;
#X connect 106 0 43 1;
#X connect 108 0 119 0;
#X connect 109 0 110 0;
#X connect 110 0 47 0;
#X connect 110 1 43 0;
#X connect 111 0 7 0;
#X connect 112 1 105 0;
#X connect 118 0 69 0;
#X connect 120 0 96 0;
#X connect 121 0 126 0;
#X connect 121 1 124 0;
#X connect 122 0 121 0;
#X connect 122 1 95 0;
#X connect 124 0 123 0;
#X connect 125 0 123 0;
#X connect 126 0 125 0;
#X connect 127 0 17 0;
#X connect 129 0 19 0;
#X connect 130 0 32 0;
#X connect 134 0 111 0;
#X connect 135 0 41 0;
#X connect 135 1 26 0;
#X connect 135 2 111 0;
#X connect 138 0 135 0;
#X connect 139 0 140 0;
#X connect 141 0 22 0;
#X coords 0 -1 1 1 230 235 1 300 100;
