#N struct 1533-g2 float x float y array tab 1533-g2b;
#N struct 1533-g2b float y;
#N canvas -8 -8 1858 1037 12;
#X obj 1271 536 phasor~;
#X obj 1309 816 - 3;
#X obj 1272 856 *~;
#X text 1308 848 rango de 1 a tamaño-2, f 12;
#X obj 1271 421 *;
#X obj 313 232 tgl 14 0 \$0-sampleplayer-play-input \$0-sampleplayer-play-input
play/pause 17 6 0 8 -204786 -1 -1 0 1;
#X obj 316 301 hsl 160 15 -2 2 0 0 c-sampleplayer-rate-\$1 c-sampleplayer-rate-\$1
rate_(-2:2) 0 7 0 9 -262130 -128992 -33289 11925 1;
#X obj 1552 856 snapshot~;
#X msg 1552 746 stop, f 5;
#X obj 316 214 hsl 205 14 0 1 0 0 \$0-sampleplayer-position \$0-sampleplayer-position
empty -2 -8 0 10 -228856 -1 -1 0 1;
#X symbolatom 313 138 29 0 0 2 Filename: - -;
#X msg 428 381 1;
#X msg 348 381 -1;
#X obj 1271 457 sig~;
#X obj 316 265 hsl 160 15 0 1 0 0 c-sampleplayer-volume-\$1 c-sampleplayer-volume-\$1
volume_(0:1) 0 7 0 9 -261682 -128992 -33289 15900 1;
#X obj 313 245 tgl 14 0 c-sampleplayer-floop-\$1 c-sampleplayer-floop-\$1
loop 17 6 0 8 -262144 -1 -1 0 1;
#X floatatom 474 231 6 0 0 0 sec. #0-sampleplayer-relativelength -
;
#X obj 842 703 samphold~;
#X obj 1272 781 *~;
#X msg 1024 846 0;
#X obj 842 610 sig~;
#X obj 1272 885 +~ 1;
#X obj 1319 1016 line~;
#X obj 1271 1027 *~;
#X obj 922 676 wrap~;
#X obj 922 650 *~;
#X msg 1063 408 reset 0;
#X obj 921 104 t f b;
#X obj 380 941 tgl 15 0 empty empty empty 17 7 0 10 -262144 -1 -1 0
1;
#X text 338 855 libera el procesamiento cuando se termina la lectura
del sample, f 37;
#X msg 1379 362 1;
#X obj 378 231 bng 14 250 50 0 sampleplayer-\$1.stop empty stop 17
6 0 8 -204786 -1 -1;
#X msg 642 652 set 0;
#X obj 1429 248 /;
#X msg 1429 221 1;
#X obj 1429 194 t b f;
#X obj 1222 226 spigot;
#X obj 1271 385 f;
#X msg 1296 254 0, f 4;
#X obj 1296 228 t b b;
#X obj 1296 156 sel 0 1;
#X obj 1317 495 f;
#N canvas -8 -8 1858 1037 rate 0;
#X obj 48 28 inlet;
#X obj 56 80 moses;
#X msg 106 109 -1;
#X msg 138 109 1;
#X obj 56 56 t f b;
#X floatatom 107 142 5 0 0 0 - - -;
#X floatatom 51 144 5 0 0 0 - - -;
#X obj 51 205 outlet;
#X obj 183 208 outlet;
#X msg 37 109 1;
#X msg 72 110 0;
#X connect 0 0 4 0;
#X connect 1 0 2 0;
#X connect 1 0 9 0;
#X connect 1 1 3 0;
#X connect 1 1 10 0;
#X connect 2 0 5 0;
#X connect 3 0 5 0;
#X connect 4 0 1 0;
#X connect 5 0 8 0;
#X connect 6 0 7 0;
#X connect 9 0 6 0;
#X connect 10 0 6 0;
#X restore 921 135 pd rate;
#X text 1350 500 posicion de lectura de la muestra;
#X obj 378 244 bng 14 250 50 0 sampleplayer-\$1.replay empty replay
17 6 0 8 -204786 -1 -1;
#X text 1254 16 jlquispec 2020 *** https://github.com/jlquispec;
#X obj 1239 123 t b f f;
#X obj 1429 274 t b f;
#X obj 76 923 *~;
#X obj 463 316 bng 15 250 50 0 empty empty 2 5 8 0 8 -262144 -1 -1
;
#X msg 388 381 0;
#X obj 313 316 bng 15 250 50 0 empty empty -2 4 8 0 8 -262144 -1 -1
;
#X obj 348 316 bng 15 250 50 0 empty empty -1 4 8 0 8 -262144 -1 -1
;
#X obj 388 316 bng 15 250 50 0 empty empty 0 5 8 0 8 -262144 -1 -1
;
#X obj 428 316 bng 15 250 50 0 empty empty 1 5 8 0 8 -262144 -1 -1
;
#X obj 313 280 bng 15 250 50 0 empty empty 0 5 8 0 8 -262144 -1 -1
;
#X obj 463 280 bng 15 250 50 0 empty empty 1 5 8 0 8 -262144 -1 -1
;
#X msg 47 313 0;
#X msg 78 313 1;
#X floatatom 482 301 5 0 0 0 - c-sampleplayer-rate-#1 -;
#X floatatom 482 262 5 0 1 0 - c-sampleplayer-volume-#1 -;
#X text 1087 845 se detiene cuando acaba el ciclo o se presiona stop
, f 24;
#X text 920 255 primero pausar \, luego detener;
#X obj 482 349 tgl 15 0 sampleplayer-\$1.rate.randomizer sampleplayer-\$1.rate.randomizer
rand. 18 8 0 10 -262144 -1 -1 0 1;
#X obj 1239 92 change 0;
#X obj 677 139 abs;
#X obj 677 189 f;
#X obj 677 163 t b f;
#X obj 677 210 /;
#X obj 47 345 t f b;
#X obj 47 403 pack f f;
#X obj 313 486 pack f f;
#X obj 313 420 t f b;
#X obj 92 893 line~;
#X obj 92 866 pack f 30;
#X msg 463 381 2;
#X msg 313 381 -2;
#X obj 75 994 s~ s-sampleplayer-out0-\$1;
#X obj 119 1036 throw~ s-sampleplayer-out0;
#X obj 329 903 r \$0-sampleplayer-dspswitch;
#X obj 1429 166 r \$0-sampleplayer-length;
#X obj 677 233 s \$0-sampleplayer-relativelength;
#X obj 707 139 r \$0-sampleplayer-length;
#X obj 1309 772 r \$0-sampleplayer-samplesnumber;
#X obj 313 44 r \$0-sampleplayer-filename;
#X obj 345 451 v \$0-sampleplayer-ramptime;
#X obj 92 837 r c-sampleplayer-volume-\$1;
#X obj 1379 389 s \$0-sampleplayer-dspswitch;
#X obj 921 40 r c-sampleplayer-rate-\$1;
#X obj 995 952 s \$0-sampleplayer-playstatus;
#X obj 1024 907 s \$0-sampleplayer-dspswitch;
#X obj 1349 951 r \$0-sampleplayer-playstatus;
#X obj 79 371 v \$0-sampleplayer-ramptime;
#X obj 47 431 s sampleplayer-\$1.volume.ramp;
#X obj 842 577 r c-sampleplayer-floop-\$1;
#X obj 1271 917 tabread4~ \$0-sampleplayer-array0;
#X obj 1271 1070 s~ \$0-sampleplayer-tabread4~;
#X obj 76 809 r~ \$0-sampleplayer-tabread4~;
#X obj 313 513 s sampleplayer-\$1.rate.ramp;
#X obj 921 175 s \$0-samplefile-startpos;
#X obj 38 19 loadbang;
#X obj 841 764 threshold~ 0.5 0 0.5 0;
#N canvas -8 -8 1858 1037 \$0-arraygraphic 0;
#X scalar 1533-g2 0 35 \; 0.00610352 \; 0.0183105 \; 0.0274658 \; -0.0427246
\; -0.0518799 \; -0.0457764 \; -0.164795 \; -0.152588 \; -0.262451
\; -0.338745 \; -0.439453 \; -0.564575 \; -0.62561 \; -0.701904 \;
-0.653076 \; -1.98059 \; 4.29993 \; -37.0453 \; -3.87573 \; -45.9076
\; 54.5258 \; 53.1372 \; 13.5712 \; -15.5243 \; -7.64465 \; 3.24097
\; -6.23474 \; -7.91626 \; -9.80225 \; 6.08521 \; -9.13696 \; -17.1539
\; 2.76184 \; -1.70288 \; -0.683594 \; 1.10779 \; -13.3911 \; -20.3339
\; -12.4481 \; -1.23901 \; -12.973 \; 6.073 \; 13.8519 \; 37.8937 \;
22.9736 \; -14.1205 \; -24.5056 \; -41.9128 \; 12.0483 \; 29.2175 \;
17.0288 \; 46.3837 \; 23.5596 \; -10.5286 \; -22.6959 \; -24.0784 \;
11.0687 \; -24.9329 \; 13.8153 \; 63.2355 \; 42.9443 \; 6.23474 \;
-11.5265 \; -5.52979 \; -8.57849 \; -8.60291 \; -6.51855 \; -9.68018
\; -3.74146 \; 3.46375 \; -8.29773 \; -14.6759 \; 12.3169 \; 15.4907
\; 10.8154 \; -0.259399 \; -7.60498 \; 9.11865 \; 12.4207 \; -2.20642
\; -3.00293 \; 3.34473 \; 5.51758 \; -7.57751 \; 17.1356 \; 6.24084
\; 0.976563 \; -1.3916 \; -3.32642 \; -3.60413 \; -4.00696 \; -6.7688
\; -13.1042 \; -4.01001 \; -1.11694 \; 3.18604 \; -3.0365 \; 3.7384
\; -6.51855 \; -3.7323 \; -2.08435 \; 3.05786 \; 8.84399 \; 3.76282
\; 0.271606 \; -6.07605 \; 2.06299 \; -2.6123 \; -6.0791 \; 1.53198
\; 2.21252 \; 1.68152 \; 0.561523 \; -3.02124 \; -1.13525 \; -0.717163
\; 2.03857 \; 3.18604 \; -4.84924 \; -3.16162 \; 0.860596 \; 3.47595
\; -0.71106 \; -5.24597 \; 2.80457 \; 7.49512 \; 0.98877 \; -3.45154
\; -1.07727 \; 0.592041 \; 1.95007 \; 5.25818 \; 3.42712 \; 1.81885
\; 0.170898 \; -1.66321 \; 1.24207 \; 3.17688 \; -0.836182 \; -0.55542
\; -1.50452 \; 1.36108 \; 0.00610352 \; -0.9552 \; -3.06091 \; -3.28369
\; -0.158691 \; 0.274658 \; 0.259399 \; -3.02734 \; -3.03955 \; -1.92871
\; 0.964355 \; -1.39771 \; 2.33765 \; -0.250244 \; 0.274658 \; 1.51062
\; -0.83313 \; -0.408936 \; -0.146484 \; 0.445557 \; -0.939941 \; 1.53503
\; 1.37329 \; 1.10168 \; -0.161743 \; 1.08337 \; 2.10571 \; 0.634766
\; 0.268555 \; -0.820923 \; -1.02234 \; -0.869751 \; -0.402832 \; 0.741577
\; 0.384521 \; -0.390625 \; -0.924683 \; -1.03149 \; -1.07117 \; -1.01013
\; -0.466919 \; 0.0183105 \; 0.164795 \; 0.460815 \; 0.20752 \; 0.0915527
\; -0.0488281 \; -0.109863 \; -0.231934 \; 0.183105 \; 0.265503 \;
0.161743 \; 0.27771 \; 0.131226 \; 0.0854492 \; -0.0610352 \; -0.0366211
\; -0.00305176 \; \;;
#X coords 0 -1 755 150 210 50 2 0 0;
#X restore 313 164 pd \$0-arraygraphic;
#N canvas 426 232 1858 1037 structure_array 0;
#X obj 383 312 pointer;
#X obj 295 218 t b b b;
#X obj 140 238 t b b;
#X obj 140 401 *;
#X obj 140 427 + 0.5;
#X obj 140 453 int;
#X obj 140 375 t f f;
#X obj 482 92 table \$0.mem;
#N canvas 1009 704 450 300 g2b 0;
#X obj 18 1 struct \$0-g2b float y;
#X restore 429 88 pd g2b;
#X obj 140 292 until;
#X obj 140 319 f;
#X obj 171 319 + 1;
#X msg 172 266 0;
#X msg 295 321 0 35;
#X obj 140 265 f;
#X obj 214 328 /;
#X obj 140 208 t b f b b;
#X obj 140 347 mod;
#X obj 140 147 r \$0-sampleplayer-samplesnumber;
#X obj 140 479 tabread \$0-sampleplayer-array0;
#X obj 247 427 setsize \$0-g2 tab;
#X obj 295 345 append \$0-g2 x y;
#X obj 200 506 element \$0-g2 tab;
#X obj 140 533 set \$0-g2b y;
#X obj 329 251 \$0;
#X msg 383 287 traverse pd-\$1-arraygraphic \, bang;
#X obj 140 506 * -100;
#X obj 87 54 struct \$0-g2 float x float y array tab \$0-g2b;
#X msg 247 276 200;
#X obj 87 80 plot curve tab 0 1 0 40 3.8;
#X msg 806 277 \; pd-\$1-arraygraphic clear;
#X text 798 146 METHOD;
#X obj 806 202 r sampleplayer-\$1.array.clear;
#X obj 410 231 s sampleplayer-\$1.array.clear;
#X obj 806 246 \$0;
#X connect 0 0 21 2;
#X connect 1 0 13 0;
#X connect 1 1 24 0;
#X connect 1 2 33 0;
#X connect 2 0 14 0;
#X connect 2 1 12 0;
#X connect 3 0 4 0;
#X connect 4 0 5 0;
#X connect 5 0 19 0;
#X connect 6 0 3 0;
#X connect 6 1 22 0;
#X connect 9 0 10 0;
#X connect 10 0 11 0;
#X connect 10 0 17 0;
#X connect 11 0 10 1;
#X connect 12 0 10 1;
#X connect 13 0 21 0;
#X connect 14 0 9 0;
#X connect 15 0 3 1;
#X connect 16 0 2 0;
#X connect 16 1 15 0;
#X connect 16 2 28 0;
#X connect 16 3 1 0;
#X connect 17 0 6 0;
#X connect 18 0 16 0;
#X connect 19 0 26 0;
#X connect 21 0 20 1;
#X connect 21 0 22 1;
#X connect 22 0 23 1;
#X connect 24 0 25 0;
#X connect 25 0 0 0;
#X connect 26 0 23 0;
#X connect 28 0 15 1;
#X connect 28 0 14 1;
#X connect 28 0 17 1;
#X connect 28 0 20 0;
#X connect 32 0 34 0;
#X connect 34 0 30 0;
#X restore 38 197 pd structure_array;
#X text 41 168 array;
#X obj 1239 45 r \$0-sampleplayer-playstatus;
#X msg 1163 279 set 1;
#N canvas -8 -8 1858 1037 methods 0;
#X text 993 83 VOLUME;
#X text 987 484 RATE;
#X obj 990 303 pack f f f, f 11;
#X msg 990 337 \$3 \, \$1 \$2;
#X obj 990 175 unpack f f;
#X obj 990 150 t a b;
#X obj 1022 258 f;
#X obj 997 686 pack f f f, f 11;
#X msg 997 714 \$3 \, \$1 \$2;
#X obj 997 575 unpack f f;
#X obj 1034 653 f;
#X obj 997 606 t f b b;
#X obj 997 550 t a b;
#X msg 1103 606 0;
#X msg 1098 195 0;
#X obj 990 201 t f b b;
#X obj 990 385 change -1;
#X obj 998 767 change 0;
#X obj 1047 221 * 1;
#X obj 1064 606 * 1;
#X obj 998 793 s c-sampleplayer-rate-\$1;
#X obj 1071 653 v c-sampleplayer-rate-\$1;
#X obj 990 409 s c-sampleplayer-volume-\$1;
#X obj 990 124 r sampleplayer-\$1.volume.ramp;
#X obj 997 523 r sampleplayer-\$1.rate.ramp;
#X text 982 45 RAMPA, f 6;
#X obj 1055 274 v c-sampleplayer-volume-\$1;
#X obj 990 361 line 1 30;
#X obj 997 744 line 1 40;
#X obj 468 281 \$0;
#X obj 436 252 t b b;
#X obj 436 445 s sampleplayer-\$1.array.clear;
#X text 732 1251 PLAY;
#X obj 723 1277 r sampleplayer-\$1.play;
#X obj 1520 1290 r sampleplayer-\$1.stop;
#X text 1496 1258 STOP.;
#X obj 1520 1342 s \$0-sampleplayer-stop;
#X obj 1185 1357 \$0;
#X obj 1185 1327 t b;
#X text 1171 1258 PAUSE;
#X obj 1185 1299 r sampleplayer-\$1.pause;
#X msg 1186 1383 \; \$1-sampleplayer-playstatus 0 \;;
#X text 1553 1216 inicia el proceso de stop \, se atenua y apaga el
dsp, f 20;
#X obj 57 888 soundfiler;
#X text 169 990 tamaño en muestras;
#X obj 57 807 symbol;
#X obj 80 1093 /;
#X obj 80 1039 t f b;
#X obj 57 834 pack s \$0;
#X obj 57 744 t b a;
#X obj 117 778 symbol;
#X obj 124 919 list split 1;
#X obj 112 1069 v \$0-sampleplayer-samplerate;
#X obj 124 944 s \$0-sampleplayer-samplerate;
#X obj 57 576 r sampleplayer-\$1.openfile;
#X msg 57 709 \$1/\$2;
#X obj 223 829 s \$0-sampleplayer-filename;
#X obj 80 1125 s \$0-sampleplayer-length;
#X obj 103 1010 s \$0-sampleplayer-samplesnumber;
#X text 48 554 ABRIR ARCHIVO;
#X obj 57 679 pack s s;
#X obj 57 607 t a b;
#X msg 57 861 read -resize \$1 \$2-sampleplayer-array0, f 39;
#X obj 362 581 t b b;
#X obj 223 803 symbol;
#X msg 262 774 symbol \$1;
#X obj 57 951 t b f f;
#X obj 57 1219 s \$0-sampleplayer-unlock_play;
#X msg 57 1182 1;
#X obj 54 1340 r sampleplayer-\$1.playoneshot;
#X obj 86 1397 unpack f f f;
#X obj 54 1479 s sampleplayer-\$1.play;
#X msg 174 1436 \$1 0;
#X msg 446 1435 \$1 0;
#X obj 100 155 \$1;
#X obj 145 142 \$0;
#X msg 100 241 \; sampleplayer-\$1.volume.ramp 1 0 \; sampleplayer-\$1.rate.ramp
1 0 \; c-sampleplayer-floop-\$1 0 \;;
#X obj 54 1369 t b a;
#X obj 54 1435 pack f f;
#X msg 54 1404 0;
#X obj 242 1477 s sampleplayer-\$1.rate.ramp;
#X obj 446 1478 s sampleplayer-\$1.volume.ramp;
#X text 290 1369 STARTPOS \, RATE \, VOLUME;
#X obj 836 1330 v \$0-sampleplayer-playstatus;
#X obj 723 1352 t a b;
#X obj 723 1504 unpack f f;
#X obj 790 1603 s c-sampleplayer-floop-\$1;
#X msg 835 1461 1;
#X obj 835 1399 sel 0 1;
#X obj 881 1462 s \$0-sampleplayer-position-input;
#X obj 723 1568 s \$0-sampleplayer-position-input;
#X obj 57 1153 del 40;
#X text 63 1312 PLAY ONE SHOT;
#X text 1365 67 VOLUME;
#X obj 1362 133 t a b;
#X msg 1498 184 0, f 4;
#X obj 1362 107 r sampleplayer-\$1.volume.rampfromto;
#X text 1378 473 RATE;
#X obj 1362 158 unpack f f f;
#X obj 1010 980 unpack f f f;
#X obj 1050 1058 s sampleplayer-\$1.rate.ramp;
#X obj 1270 1055 s sampleplayer-\$1.volume.ramp;
#X obj 1042 1017 pack f f;
#X obj 1225 1016 pack f f;
#X text 1009 864 RAMPA RATE \, VOLUME;
#X obj 1007 902 r sampleplayer-\$1.values.ramp;
#X obj 1007 931 t a b;
#X msg 1122 952 0;
#X obj 30 58 r sampleplayer-\$1.reset;
#X obj 436 34 r sampleplayer-\$1.clear;
#X obj 362 609 s sampleplayer-\$1.clear;
#X obj 1394 331 s sampleplayer-\$1.volume.ramp;
#X obj 1394 282 pack f f;
#X obj 1498 273 pack f f;
#X obj 1362 234 f;
#X obj 1362 187 t b f;
#X obj 1377 549 t a b;
#X msg 1513 600 0, f 4;
#X obj 1377 574 unpack f f f;
#X obj 1409 698 pack f f;
#X obj 1513 689 pack f f;
#X obj 1377 650 f;
#X obj 1377 603 t b f;
#X obj 1409 747 s sampleplayer-\$1.rate.ramp;
#X obj 1377 523 r sampleplayer-\$1.rate.rampfromto;
#X obj 751 1897 f;
#X msg 719 1785 1;
#X text 793 1903 se almacena la pos de inicio de lectura;
#X obj 769 1860 r \$0-samplefile-startpos;
#X obj 719 1696 r sampleplayer-\$1.replay;
#X obj 719 1736 t b b;
#X obj 751 1945 s \$0-sampleplayer-position-input;
#X obj 719 1814 s \$0-sampleplayer-playstatus;
#X text 731 1668 REPLAY;
#X obj 1069 1529 r \$0-sampleplayer-unlock_play;
#X obj 1051 1683 s \$0-sampleplayer-playstatus;
#X obj 1051 1574 ==;
#X obj 881 1431 v \$0-samplefile-startpos;
#X obj 541 146 t b b;
#X obj 541 266 s \$0-sampleplayer-unlock_play;
#X msg 628 193 0;
#X msg 541 218 1;
#X text 40 16 RESET;
#X obj 553 100 s sampleplayer-\$1.stop;
#X obj 436 77 t b b b;
#X obj 214 126 s sampleplayer-\$1.stop;
#X msg 62 332 \; \$1-sampleplayer-array0 resize 0 \; \$1-sampleplayer-array0
const 0 \; \$1-sampleplayer-samplerate 0 \; \$1-sampleplayer-samplesnumber
0 \; \$1-sampleplayer-length 0 \; \$1-sampleplayer-filename symbol
\;;
#X obj 62 302 \$0;
#X obj 30 273 t b b;
#X obj 30 466 s sampleplayer-\$1.array.clear;
#X obj 30 230 del 30;
#X obj 30 92 t b b b b;
#X obj 1051 1602 t f b;
#X obj 1083 1641 s \$0-sampleplayer-dsp_on;
#X msg 145 177 \; \$1-sampleplayer-unlock_play 1 \; \$1-sampleplayer-ramptime
300 \;;
#X obj 436 209 del 30;
#X obj 541 190 delay 80;
#X obj 57 638 unpack s s f;
#X msg 468 311 \; \$1-sampleplayer-array0 resize 0 \; \$1-sampleplayer-array0
const 0 \; \$1-sampleplayer-samplerate 0 \; \$1-sampleplayer-samplesnumber
0 \; \$1-sampleplayer-length 0 \; \$1-sampleplayer-filename symbol
\;;
#X obj 276 621 sel 1;
#X obj 276 710 s \$0-sampleplayer-playstatus;
#X msg 276 678 1;
#X obj 276 647 del 85;
#X text 592 149 bloqueo mientras dura el dsp off + 5ms;
#X obj 57 774 del 80;
#X text 104 743 INICIA CARGA CUANDO EL DSP ESTE EN PROCESO DE APAGADO
;
#X connect 2 0 3 0;
#X connect 3 0 27 0;
#X connect 4 0 15 0;
#X connect 4 1 18 0;
#X connect 5 0 4 0;
#X connect 5 1 14 0;
#X connect 6 0 2 1;
#X connect 7 0 8 0;
#X connect 8 0 28 0;
#X connect 9 0 11 0;
#X connect 9 1 19 0;
#X connect 10 0 7 1;
#X connect 11 0 7 0;
#X connect 11 1 10 0;
#X connect 11 2 21 0;
#X connect 12 0 9 0;
#X connect 12 1 13 0;
#X connect 13 0 10 1;
#X connect 14 0 6 1;
#X connect 15 0 2 0;
#X connect 15 1 6 0;
#X connect 15 2 26 0;
#X connect 16 0 22 0;
#X connect 17 0 20 0;
#X connect 18 0 6 1;
#X connect 19 0 10 1;
#X connect 21 0 7 2;
#X connect 23 0 5 0;
#X connect 24 0 12 0;
#X connect 26 0 2 2;
#X connect 27 0 16 0;
#X connect 28 0 17 0;
#X connect 29 0 158 0;
#X connect 30 0 31 0;
#X connect 30 1 29 0;
#X connect 33 0 84 0;
#X connect 34 0 36 0;
#X connect 37 0 41 0;
#X connect 38 0 37 0;
#X connect 40 0 38 0;
#X connect 43 0 66 0;
#X connect 43 1 51 0;
#X connect 45 0 48 0;
#X connect 46 0 57 0;
#X connect 47 0 46 0;
#X connect 47 1 52 0;
#X connect 48 0 62 0;
#X connect 49 0 164 0;
#X connect 49 1 50 0;
#X connect 50 0 45 1;
#X connect 51 0 53 0;
#X connect 52 0 46 1;
#X connect 54 0 61 0;
#X connect 55 0 49 0;
#X connect 60 0 55 0;
#X connect 61 0 157 0;
#X connect 61 1 63 0;
#X connect 62 0 43 0;
#X connect 63 0 110 0;
#X connect 64 0 56 0;
#X connect 65 0 64 1;
#X connect 66 1 47 0;
#X connect 66 2 58 0;
#X connect 68 0 67 0;
#X connect 69 0 77 0;
#X connect 70 0 78 1;
#X connect 70 1 72 0;
#X connect 70 2 73 0;
#X connect 72 0 80 0;
#X connect 73 0 81 0;
#X connect 74 0 76 0;
#X connect 75 0 154 0;
#X connect 77 0 79 0;
#X connect 77 1 70 0;
#X connect 78 0 71 0;
#X connect 79 0 78 0;
#X connect 83 0 88 0;
#X connect 84 0 85 0;
#X connect 84 1 83 0;
#X connect 85 0 90 0;
#X connect 85 1 86 0;
#X connect 87 0 136 0;
#X connect 88 0 87 0;
#X connect 88 1 137 0;
#X connect 91 0 68 0;
#X connect 94 0 98 0;
#X connect 94 1 95 0;
#X connect 95 0 113 1;
#X connect 95 0 112 1;
#X connect 96 0 94 0;
#X connect 98 0 115 0;
#X connect 98 1 114 1;
#X connect 98 2 113 1;
#X connect 99 0 102 0;
#X connect 99 1 103 0;
#X connect 99 2 102 1;
#X connect 99 2 103 1;
#X connect 102 0 100 0;
#X connect 103 0 101 0;
#X connect 105 0 106 0;
#X connect 106 0 99 0;
#X connect 106 1 107 0;
#X connect 107 0 102 1;
#X connect 107 0 103 1;
#X connect 108 0 151 0;
#X connect 109 0 144 0;
#X connect 112 0 111 0;
#X connect 113 0 111 0;
#X connect 114 0 113 0;
#X connect 115 0 114 0;
#X connect 115 1 112 0;
#X connect 116 0 118 0;
#X connect 116 1 117 0;
#X connect 117 0 120 1;
#X connect 117 0 119 1;
#X connect 118 0 122 0;
#X connect 118 1 121 1;
#X connect 118 2 120 1;
#X connect 119 0 123 0;
#X connect 120 0 123 0;
#X connect 121 0 120 0;
#X connect 122 0 121 0;
#X connect 122 1 119 0;
#X connect 124 0 116 0;
#X connect 125 0 131 0;
#X connect 126 0 132 0;
#X connect 128 0 125 1;
#X connect 129 0 130 0;
#X connect 130 0 126 0;
#X connect 130 1 125 0;
#X connect 134 0 136 1;
#X connect 136 0 152 0;
#X connect 137 0 89 0;
#X connect 138 0 156 0;
#X connect 138 1 140 0;
#X connect 140 0 139 0;
#X connect 141 0 139 0;
#X connect 144 0 155 0;
#X connect 144 1 138 0;
#X connect 144 2 143 0;
#X connect 147 0 146 0;
#X connect 148 0 149 0;
#X connect 148 1 147 0;
#X connect 150 0 148 0;
#X connect 151 0 150 0;
#X connect 151 1 74 0;
#X connect 151 2 75 0;
#X connect 151 3 145 0;
#X connect 152 0 135 0;
#X connect 152 1 153 0;
#X connect 155 0 30 0;
#X connect 156 0 141 0;
#X connect 157 0 60 0;
#X connect 157 1 60 1;
#X connect 157 1 65 0;
#X connect 157 2 159 0;
#X connect 159 0 162 0;
#X connect 161 0 160 0;
#X connect 162 0 161 0;
#X connect 164 0 45 0;
#X connect 164 0 64 0;
#X restore 66 528 pd methods;
#X obj 1042 811 r \$0-sampleplayer-turn_dsp_off;
#X obj 642 543 r \$0-sampleplayer-stop;
#X text 79 775 AUDIO;
#N canvas -8 -8 1858 1037 draft 0;
#X obj 94 131 sel 1;
#X obj 94 187 \$0;
#X obj 94 103 v \$0-sampleplayer-playstatus;
#X msg 93 215 \; \$1-sampleplayer-playstatus 1 \;;
#X text 94 66 EN CASO SE ESTÉ EJECUTANDO \, RETOMA LA REPRODUCCIÓN
;
#X obj 94 160 del 150;
#X text 158 156 DEBE SUPERAR AL TIEMPO DE CARGA (100) Y PROCESO DE
APAGADO + DSPSWITCH OFF(140);
#X obj 719 204 sel 0;
#X obj 719 160 t f f;
#X obj 719 276 f;
#X obj 978 205 metro 250;
#X obj 978 232 random 200;
#X obj 978 259 - 100;
#X obj 978 287 / 100;
#X text 711 79 randomizer;
#X text 715 44 RANDOMIZADOR;
#X obj 719 127 r sampleplayer-\$1.rate.randomizer;
#X obj 719 313 s c-sampleplayer-rate-\$1;
#X obj 978 324 s c-sampleplayer-rate-\$1;
#X obj 719 245 v c-sampleplayer-rate-\$1;
#X obj 120 308 hsl 160 15 0 10000 0 0 \$0-sampleplayer-ramptime \$0-sampleplayer-ramptime
ramp_time_(0:10000)_sec 0 8 0 9 -228856 -128992 -33289 477 1;
#X floatatom 286 308 5 0 0 0 - #0-sampleplayer-ramptime -;
#X connect 0 0 5 0;
#X connect 1 0 3 0;
#X connect 2 0 0 0;
#X connect 5 0 1 0;
#X connect 7 0 19 0;
#X connect 8 0 7 0;
#X connect 8 1 10 0;
#X connect 9 0 17 0;
#X connect 10 0 11 0;
#X connect 11 0 12 0;
#X connect 12 0 13 0;
#X connect 13 0 18 0;
#X connect 16 0 8 0;
#X connect 19 0 9 0;
#X restore 61 575 pd draft;
#X obj 1040 359 t f b b;
#X obj 1552 892 s \$0-sampleplayer-position;
#X obj 1634 953 r \$0-sampleplayer-position;
#X obj 1634 979 s c-sampleplayer-position-\$1;
#X obj 1349 978 pack f 30;
#X floatatom 1189 114 5 0 0 0 - - -;
#X obj 1335 460 r \$0-sampleplayer-position;
#X obj 1552 827 metro 100;
#X obj 38 65 s sampleplayer-\$1.clear;
#X obj 1455 678 del 100;
#X obj 784 1022 s \$0-sampleplayer-position;
#X obj 784 987 f;
#X obj 802 951 r \$0-samplefile-startpos;
#X text 1532 462 recibe cambios de posicion del dial;
#X obj 992 800 t b b;
#X obj 1319 326 t b b b b;
#X obj 252 607 sel 0 1;
#X obj 275 648 s sampleplayer-\$1.play;
#X obj 252 680 s sampleplayer-\$1.pause;
#X obj 87 121 r \$0-sampleplayer-playstatus;
#X obj 252 557 r \$0-sampleplayer-play-input;
#X obj 1040 317 r \$0-sampleplayer-position-input;
#X msg 1080 773 clear;
#X obj 642 583 t b b;
#X obj 642 620 del 30;
#X text 1005 679 CUANDO HAY OTRO REQUEST DE PLAY \, DESACTIVAR DSP
OFF;
#X obj 1080 708 r \$0-sampleplayer-dsp_on;
#X obj 1080 734 t b b;
#X msg 1144 772 1;
#X obj 329 966 switch~;
#X obj 20 233 array define \$0-sampleplayer-array0;
#X obj 334 590 print asd;
#X obj 674 800 s \$0-sampleplayer-playstatus;
#X msg 674 760 0;
#X obj 1024 878 pipe 45;
#X obj 488 110 bng 15 250 50 0 sampleplayer-\$1.reset sampleplayer-\$1.reset
reset 18 7 0 10 -261234 -1 -1;
#X connect 0 0 18 0;
#X connect 0 0 25 0;
#X connect 1 0 2 1;
#X connect 2 0 21 0;
#X connect 4 0 13 0;
#X connect 7 0 113 0;
#X connect 8 0 119 0;
#X connect 11 0 72 0;
#X connect 12 0 72 0;
#X connect 13 0 0 0;
#X connect 17 0 101 0;
#X connect 17 0 18 1;
#X connect 18 0 2 0;
#X connect 18 0 7 0;
#X connect 19 0 89 0;
#X connect 19 0 146 0;
#X connect 20 0 17 0;
#X connect 21 0 95 0;
#X connect 22 0 23 1;
#X connect 23 0 96 0;
#X connect 24 0 17 1;
#X connect 25 0 24 0;
#X connect 26 0 17 0;
#X connect 27 0 42 0;
#X connect 27 1 26 0;
#X connect 30 0 87 0;
#X connect 32 0 17 0;
#X connect 33 0 47 0;
#X connect 34 0 33 0;
#X connect 35 0 34 0;
#X connect 35 1 33 1;
#X connect 36 0 4 0;
#X connect 37 0 4 0;
#X connect 38 0 4 0;
#X connect 39 0 38 0;
#X connect 39 1 8 0;
#X connect 40 0 39 0;
#X connect 40 1 106 0;
#X connect 40 1 127 0;
#X connect 41 0 0 1;
#X connect 42 0 99 0;
#X connect 42 1 25 1;
#X connect 46 0 26 0;
#X connect 46 1 36 1;
#X connect 46 2 40 0;
#X connect 47 0 37 0;
#X connect 47 1 4 1;
#X connect 48 0 77 0;
#X connect 48 0 78 0;
#X connect 49 0 75 0;
#X connect 50 0 72 0;
#X connect 51 0 76 0;
#X connect 52 0 12 0;
#X connect 53 0 50 0;
#X connect 54 0 11 0;
#X connect 55 0 57 0;
#X connect 56 0 58 0;
#X connect 57 0 69 0;
#X connect 58 0 69 0;
#X connect 64 0 46 0;
#X connect 65 0 67 0;
#X connect 66 0 68 0;
#X connect 67 0 66 0;
#X connect 67 1 68 1;
#X connect 68 0 81 0;
#X connect 69 0 70 0;
#X connect 69 1 92 0;
#X connect 70 0 93 0;
#X connect 71 0 98 0;
#X connect 72 0 71 0;
#X connect 72 1 85 0;
#X connect 73 0 48 1;
#X connect 74 0 73 0;
#X connect 75 0 72 0;
#X connect 76 0 72 0;
#X connect 79 0 28 0;
#X connect 79 0 141 0;
#X connect 80 0 35 0;
#X connect 82 0 66 0;
#X connect 83 0 1 0;
#X connect 84 0 10 0;
#X connect 85 0 71 1;
#X connect 86 0 74 0;
#X connect 88 0 27 0;
#X connect 88 0 36 0;
#X connect 88 0 37 1;
#X connect 88 0 65 0;
#X connect 91 0 116 0;
#X connect 92 0 70 1;
#X connect 94 0 20 0;
#X connect 95 0 23 0;
#X connect 97 0 48 0;
#X connect 100 0 120 0;
#X connect 101 1 126 0;
#X connect 105 0 117 0;
#X connect 105 0 64 0;
#X connect 106 0 17 0;
#X connect 108 0 19 0;
#X connect 109 0 135 0;
#X connect 112 0 41 0;
#X connect 112 1 26 0;
#X connect 112 2 119 0;
#X connect 114 0 115 0;
#X connect 116 0 22 0;
#X connect 118 0 41 1;
#X connect 119 0 7 0;
#X connect 121 0 119 0;
#X connect 123 0 122 0;
#X connect 124 0 123 1;
#X connect 126 0 123 0;
#X connect 126 1 19 0;
#X connect 127 0 121 0;
#X connect 127 1 37 0;
#X connect 127 2 41 0;
#X connect 127 3 30 0;
#X connect 128 0 130 0;
#X connect 128 1 129 0;
#X connect 131 0 5 0;
#X connect 132 0 128 0;
#X connect 132 0 143 0;
#X connect 133 0 112 0;
#X connect 134 0 146 0;
#X connect 135 0 136 0;
#X connect 135 1 145 0;
#X connect 136 0 32 0;
#X connect 138 0 139 0;
#X connect 139 0 134 0;
#X connect 139 1 140 0;
#X connect 140 0 90 0;
#X connect 145 0 144 0;
#X connect 146 0 90 0;
#X coords 0 -1 1 1 240 245 1 300 100;
