#N canvas -8 -8 1858 1037 12;
#X obj 239 128 hsl 160 15 -1 1 0 0 c-spatializer-panning-\$1 c-spatializer-panning-\$1
panning_(-1:1) 0 7 0 9 -204800 -128992 -33289 15900 1;
#X obj 311 143 bng 15 250 50 0 empty empty c 5 7 0 8 -262144 -1 -1
;
#X msg 311 186 0;
#X obj 236 143 bng 15 250 50 0 empty empty -1 4 8 0 8 -262144 -1 -1
;
#X obj 386 143 bng 15 250 50 0 empty empty 1 5 8 0 8 -262144 -1 -1
;
#X msg 236 186 -1;
#X msg 386 186 1;
#X floatatom 405 128 5 -1 1 0 - c-spatializer-panning-#1 -;
#X obj 417 173 tgl 15 0 spatializer-\$1.pan.randomizer spatializer-\$1.pan.randomizer
rand. 18 8 0 10 -262144 -1 -1 0 1;
#X obj 236 227 t f b;
#X obj 236 285 pack f f;
#X obj 569 169 intensitypanning-2;
#X obj 569 242 s~ s-spatializer-out0-\$1;
#X obj 696 306 throw~ s-spatializer-out0;
#X obj 898 306 throw~ s-spatializer-out1;
#X obj 691 214 s~ s-spatializer-out1-\$1;
#X obj 568 67 catch~ s-spatializer-in0-\$1;
#X obj 630 97 catch~ s-spatializer-in1-\$1;
#X obj 236 371 hsl 160 15 0 5000 0 0 \$0-spatializer-ramptime \$0-spatializer-ramptime
ramp_time_(0:5000)_msec 0 8 0 9 -228856 -128992 -33289 9540 1;
#X floatatom 402 371 5 0 0 0 - #0-sampleplayer-ramptime -;
#X obj 692 131 r c-spatializer-panning-\$1;
#X obj 236 319 s spatializer-\$1.panning.ramp;
#X floatatom 360 290 5 0 0 0 - - -;
#X obj 289 254 v \$0-spatializer-ramptime;
#X obj 57 382 loadbang;
#X obj 57 408 \$0 \$1;
#X msg 53 461 \; \$1-spatializer-ramptime 3000 \; c-spatializer-panning-\$2
0 \;;
#X text 716 341 canal comün;
#N canvas -8 -8 1858 1037 methods 0;
#X obj 85 269 pack f f f, f 11;
#X msg 85 301 \$3 \, \$1 \$2;
#X obj 85 150 unpack f f;
#X obj 85 117 t a b;
#X obj 108 232 f;
#X msg 238 190 0;
#X obj 85 196 t f b b;
#X obj 85 371 change -2;
#X obj 85 403 s c-spatializer-panning-\$1;
#X obj 159 237 v c-spatializer-panning-\$1;
#X obj 85 83 r spatializer-\$1.panning.ramp;
#X obj 152 191 * 1;
#X text 85 27 methods;
#X obj 89 503 r spatializer-\$1.reset;
#X obj 89 529 t b;
#X obj 85 335 line 0 30;
#X msg 89 568 0 0;
#X obj 89 605 s spatializer-\$1.panning.ramp;
#X text 92 50 RAMPA;
#X obj 431 129 t a b;
#X msg 567 180 0, f 4;
#X obj 431 154 unpack f f f;
#X obj 463 278 pack f f;
#X obj 567 269 pack f f;
#X obj 431 230 f;
#X obj 431 183 t b f;
#X obj 463 327 s spatializer-\$1.panning.ramp;
#X obj 431 103 r spatializer-\$1.panning.rampfromto;
#X connect 0 0 1 0;
#X connect 1 0 15 0;
#X connect 2 0 6 0;
#X connect 2 1 11 0;
#X connect 3 0 2 0;
#X connect 3 1 5 0;
#X connect 4 0 0 1;
#X connect 5 0 4 1;
#X connect 6 0 0 0;
#X connect 6 1 4 0;
#X connect 6 2 9 0;
#X connect 7 0 8 0;
#X connect 9 0 0 2;
#X connect 10 0 3 0;
#X connect 11 0 4 1;
#X connect 13 0 14 0;
#X connect 14 0 16 0;
#X connect 15 0 7 0;
#X connect 16 0 17 0;
#X connect 19 0 21 0;
#X connect 19 1 20 0;
#X connect 20 0 23 1;
#X connect 20 0 22 1;
#X connect 21 0 25 0;
#X connect 21 1 24 1;
#X connect 21 2 23 1;
#X connect 22 0 26 0;
#X connect 23 0 26 0;
#X connect 24 0 23 0;
#X connect 25 0 24 0;
#X connect 25 1 22 0;
#X connect 27 0 19 0;
#X restore 83 568 pd methods;
#N canvas -8 -8 1858 1037 draft 0;
#X obj 66 172 sel 0;
#X obj 72 128 t f f;
#X obj 63 238 f;
#X obj 305 246 random 200;
#X obj 305 269 - 100;
#X obj 305 292 / 100;
#X text 110 33 randomizer;
#X obj 76 84 r spatializer-\$1.pan.randomizer;
#X obj 307 400 s c-spatializer-panning-\$1;
#X obj 64 207 v c-spatializer-panning-\$1;
#X obj 66 264 s c-spatializer-panning-\$1;
#X obj 305 368 line;
#X obj 302 324 pack f 50;
#X obj 305 223 metro 500;
#X connect 0 0 9 0;
#X connect 1 0 0 0;
#X connect 1 1 13 0;
#X connect 2 0 10 0;
#X connect 3 0 4 0;
#X connect 4 0 5 0;
#X connect 5 0 12 0;
#X connect 7 0 1 0;
#X connect 9 0 2 0;
#X connect 11 0 8 0;
#X connect 12 0 11 0;
#X connect 13 0 3 0;
#X restore 83 601 pd draft;
#X connect 1 0 2 0;
#X connect 2 0 9 0;
#X connect 3 0 5 0;
#X connect 4 0 6 0;
#X connect 5 0 9 0;
#X connect 6 0 9 0;
#X connect 9 0 10 0;
#X connect 9 1 23 0;
#X connect 10 0 21 0;
#X connect 11 0 13 0;
#X connect 11 0 12 0;
#X connect 11 1 14 0;
#X connect 11 1 15 0;
#X connect 16 0 11 0;
#X connect 17 0 11 1;
#X connect 20 0 11 2;
#X connect 23 0 10 1;
#X connect 23 0 22 0;
#X connect 24 0 25 0;
#X connect 25 0 26 0;
#X coords 0 -1 1 1 240 70 1 220 100;
