#N canvas -8 -8 1858 1037 12;
#X obj 238 130 hsl 165 15 -1 1 0 0 c-spatializer-panning-\$1 c-spatializer-panning-\$1
panning(-1:1) 0 8 0 9 -159484 -128992 -33289 0 1;
#X obj 313 145 bng 15 250 50 0 empty empty c 5 7 0 8 -262144 -1 -1
;
#X msg 100 213 0;
#X obj 235 145 bng 15 250 50 0 empty empty -1 3 8 0 8 -262144 -1 -1
;
#X obj 390 145 bng 15 250 50 0 empty empty 1 5 8 0 8 -262144 -1 -1
;
#X msg 25 213 -1;
#X msg 175 213 1;
#X floatatom 408 130 5 -1 1 0 - c-spatializer-panning-#1 -;
#X obj 25 252 t f b;
#X obj 25 310 pack f f;
#X obj 598 510 s~ s-spatializer-out0-\$1;
#X obj 725 574 throw~ s-spatializer-out0;
#X obj 927 574 throw~ s-spatializer-out1;
#X obj 907 511 s~ s-spatializer-out1-\$1;
#X obj 568 67 catch~ s-spatializer-in0-\$1;
#X obj 801 55 catch~ s-spatializer-in1-\$1;
#X obj 22 396 hsl 160 15 0 5000 0 0 \$0-spatializer-ramptime \$0-spatializer-ramptime
ramp_time_(0:5000)_msec 0 8 0 9 -228856 -128992 -33289 32 1;
#X floatatom 188 396 5 0 0 0 - #0-sampleplayer-ramptime -;
#X obj 78 279 v \$0-spatializer-ramptime;
#X obj 12 10 loadbang;
#X obj 12 36 \$0 \$1;
#N canvas -8 -8 1858 1037 methods 0;
#X obj 85 269 pack f f f, f 11;
#X msg 85 301 \$3 \, \$1 \$2;
#X obj 85 150 unpack f f;
#X obj 85 117 t a b;
#X obj 108 232 f;
#X msg 238 190 0;
#X obj 85 196 t f b b;
#X obj 85 371 change -2;
#X obj 152 191 * 1;
#X text 85 27 methods;
#X obj 777 42 r spatializer-\$1.reset;
#X text 92 50 RAMPA;
#X obj 406 107 t a b;
#X msg 542 158 0, f 4;
#X obj 406 132 unpack f f f;
#X obj 438 256 pack f f;
#X obj 542 247 pack f f;
#X obj 406 208 f;
#X obj 406 161 t b f;
#X obj 87 638 pack f f f, f 11;
#X msg 87 670 \$3 \, \$1 \$2;
#X obj 87 519 unpack f f;
#X obj 87 486 t a b;
#X obj 110 601 f;
#X msg 240 559 0;
#X obj 87 565 t f b b;
#X obj 87 740 change -2;
#X obj 154 560 * 1;
#X obj 408 476 t a b;
#X msg 544 527 0, f 4;
#X obj 408 501 unpack f f f;
#X obj 440 625 pack f f;
#X obj 544 616 pack f f;
#X obj 408 577 f;
#X obj 408 530 t b f;
#X obj 777 99 \$1;
#X obj 85 335 line 0 50;
#X obj 87 704 line 0 50;
#X obj 865 351 unpack f f f;
#X obj 865 391 pack f f;
#X obj 1048 390 pack f f;
#X obj 862 302 t a b;
#X msg 977 323 0;
#X obj 85 452 r spatializer-\$1.width.ramp;
#X obj 440 674 s spatializer-\$1.width.ramp;
#X obj 87 773 s c-spatializer-width-\$1;
#X obj 161 606 v c-spatializer-width-\$1;
#X obj 408 450 r spatializer-\$1.width.rampfromto;
#X obj 862 273 r spatializer-\$1.values.ramp;
#X obj 85 83 r spatializer-\$1.panning.ramp;
#X obj 406 81 r spatializer-\$1.panning.rampfromto;
#X obj 865 431 s spatializer-\$1.panning.ramp;
#X obj 1085 429 s spatializer-\$1.width.ramp;
#X obj 85 403 s c-spatializer-panning-\$1;
#X obj 438 305 s spatializer-\$1.panning.ramp;
#X obj 159 237 v c-spatializer-panning-\$1;
#X text 864 235 PANNING (ROTACION) \, WIDTH;
#X msg 777 135 \; spatializer-\$1.panning.ramp 0 0 \; spatializer-\$1.width.ramp
0 0 \;;
#X obj 777 66 t b;
#X connect 0 0 1 0;
#X connect 1 0 36 0;
#X connect 2 0 6 0;
#X connect 2 1 8 0;
#X connect 3 0 2 0;
#X connect 3 1 5 0;
#X connect 4 0 0 1;
#X connect 5 0 4 1;
#X connect 6 0 0 0;
#X connect 6 1 4 0;
#X connect 6 2 55 0;
#X connect 7 0 53 0;
#X connect 8 0 4 1;
#X connect 10 0 58 0;
#X connect 12 0 14 0;
#X connect 12 1 13 0;
#X connect 13 0 16 1;
#X connect 13 0 15 1;
#X connect 14 0 18 0;
#X connect 14 1 17 1;
#X connect 14 2 16 1;
#X connect 15 0 54 0;
#X connect 16 0 54 0;
#X connect 17 0 16 0;
#X connect 18 0 17 0;
#X connect 18 1 15 0;
#X connect 19 0 20 0;
#X connect 20 0 37 0;
#X connect 21 0 25 0;
#X connect 21 1 27 0;
#X connect 22 0 21 0;
#X connect 22 1 24 0;
#X connect 23 0 19 1;
#X connect 24 0 23 1;
#X connect 25 0 19 0;
#X connect 25 1 23 0;
#X connect 25 2 46 0;
#X connect 26 0 45 0;
#X connect 27 0 23 1;
#X connect 28 0 30 0;
#X connect 28 1 29 0;
#X connect 29 0 32 1;
#X connect 29 0 31 1;
#X connect 30 0 34 0;
#X connect 30 1 33 1;
#X connect 30 2 32 1;
#X connect 31 0 44 0;
#X connect 32 0 44 0;
#X connect 33 0 32 0;
#X connect 34 0 33 0;
#X connect 34 1 31 0;
#X connect 35 0 57 0;
#X connect 36 0 7 0;
#X connect 37 0 26 0;
#X connect 38 0 39 0;
#X connect 38 1 40 0;
#X connect 38 2 39 1;
#X connect 38 2 40 1;
#X connect 39 0 51 0;
#X connect 40 0 52 0;
#X connect 41 0 38 0;
#X connect 41 1 42 0;
#X connect 42 0 39 1;
#X connect 42 0 40 1;
#X connect 43 0 22 0;
#X connect 46 0 19 2;
#X connect 47 0 28 0;
#X connect 48 0 41 0;
#X connect 49 0 3 0;
#X connect 50 0 12 0;
#X connect 55 0 0 2;
#X connect 58 0 35 0;
#X restore 419 44 pd methods;
#N canvas -8 -8 1858 1037 draft 0;
#X obj 66 172 sel 0;
#X obj 72 128 t f f;
#X obj 63 238 f;
#X obj 305 246 random 200;
#X obj 305 269 - 100;
#X obj 305 292 / 100;
#X text 110 33 randomizer;
#X obj 76 84 r spatializer-\$1.pan.randomizer;
#X obj 307 400 s c-spatializer-panning-\$1;
#X obj 64 207 v c-spatializer-panning-\$1;
#X obj 66 264 s c-spatializer-panning-\$1;
#X obj 305 368 line;
#X obj 302 324 pack f 50;
#X obj 305 223 metro 500;
#X connect 0 0 9 0;
#X connect 1 0 0 0;
#X connect 1 1 13 0;
#X connect 2 0 10 0;
#X connect 3 0 4 0;
#X connect 4 0 5 0;
#X connect 5 0 12 0;
#X connect 7 0 1 0;
#X connect 9 0 2 0;
#X connect 11 0 8 0;
#X connect 12 0 11 0;
#X connect 13 0 3 0;
#X restore 340 46 pd draft;
#X obj 404 110 bng 15 250 50 0 spatializer-\$1.reset spatializer-\$1.reset
reset 18 7 0 10 -261234 -1 -1;
#X msg 11 59 \; \$1-spatializer-ramptime 10 \; spatializer-\$2.reset
bang \;;
#X obj 238 164 hsl 165 15 -1 1 0 0 c-spatializer-width-\$1 c-spatializer-width-\$1
witdh(-1:1) 0 8 0 9 -204786 -128992 -33289 8200 1;
#X floatatom 408 164 5 -1 1 0 - c-spatializer-width-#1 -;
#X obj 745 377 intensitypanning-stereo-2;
#X obj 755 267 width-stereo-2;
#X obj 869 139 r c-spatializer-width-\$1;
#X obj 313 179 bng 15 250 50 0 empty empty mono 18 8 0 8 -262144 -1
-1;
#X obj 390 179 bng 15 250 50 0 empty empty 1 5 8 0 8 -262144 -1 -1
;
#X msg 333 248 0;
#X msg 404 249 1;
#X obj 330 290 t f b;
#X obj 330 348 pack f f;
#X obj 383 317 v \$0-spatializer-ramptime;
#X obj 330 381 s spatializer-\$1.width.ramp;
#X obj 235 179 bng 15 250 50 0 empty empty -1 4 8 0 8 -262144 -1 -1
;
#X msg 283 238 -1;
#X text 794 314 no afecta el orden entre ambas transformaciones de
la imagen estéreo;
#X obj 1151 118 r c-spatializer-panning-\$1;
#X obj 25 347 s spatializer-\$1.panning.ramp;
#X text 203 18 Jorge Quispe (2020) https://github.com/jlquispec;
#X connect 1 0 2 0;
#X connect 2 0 8 0;
#X connect 3 0 5 0;
#X connect 4 0 6 0;
#X connect 5 0 8 0;
#X connect 6 0 8 0;
#X connect 8 0 9 0;
#X connect 8 1 18 0;
#X connect 9 0 42 0;
#X connect 14 0 28 0;
#X connect 15 0 28 1;
#X connect 18 0 9 1;
#X connect 19 0 20 0;
#X connect 20 0 24 0;
#X connect 27 0 11 0;
#X connect 27 0 10 0;
#X connect 27 1 12 0;
#X connect 27 1 13 0;
#X connect 28 0 27 0;
#X connect 28 1 27 1;
#X connect 29 0 28 2;
#X connect 30 0 32 0;
#X connect 31 0 33 0;
#X connect 32 0 34 0;
#X connect 33 0 34 0;
#X connect 34 0 35 0;
#X connect 34 1 36 0;
#X connect 35 0 37 0;
#X connect 36 0 35 1;
#X connect 38 0 39 0;
#X connect 39 0 34 0;
#X connect 41 0 27 2;
#X coords 0 -1 1 1 240 100 1 220 100;
