#N canvas -8 -8 1858 1037 12;
#X obj 366 70 inlet;
#X obj 48 126 inlet~;
#X obj 95 410 *~;
#X obj 406 510 outlet~;
#X obj 81 515 outlet~;
#X obj 230 139 inlet~;
#X obj 121 353 cos~;
#X obj 340 206 line~;
#X obj 84 444 +~;
#X obj 189 417 *~;
#X obj 473 386 *~;
#X obj 230 353 cos~;
#X obj 326 427 *~;
#X obj 359 118 * -1;
#X obj 359 142 / 8;
#X obj 255 302 -~ 0.25;
#X obj 255 326 abs~;
#X obj 516 340 cos~;
#X obj 351 364 cos~;
#X obj 349 311 -~ 0.25;
#X obj 349 335 abs~;
#X obj 425 456 +~;
#X obj 366 94 - 1;
#X obj 351 388 *~ -1;
#X obj 487 284 *~ -1;
#X obj 358 264 *~ -1;
#X obj 359 166 pack f 50;
#X text 514 44 Jorge Quispe (2020) https://github.com/jlquispec;
#X text 481 105 ANCHO (Transformación de la imagen stéreo) Se implementó
la ecuación de ancho (Música y Espacio de Pablo DiLiscia) la cual
es una derivación de la ecuación de rotacion stereo con angulo negativo
para el lado de derecho;
#X text 25 27 inlet~(1): L \, inlet~(2): R \, inlet: width (-1 \, 1)
;
#X connect 0 0 22 0;
#X connect 1 0 2 0;
#X connect 1 0 12 0;
#X connect 2 0 8 0;
#X connect 5 0 9 0;
#X connect 5 0 10 0;
#X connect 6 0 2 1;
#X connect 7 0 6 0;
#X connect 7 0 15 0;
#X connect 7 0 24 0;
#X connect 7 0 25 0;
#X connect 8 0 4 0;
#X connect 9 0 8 1;
#X connect 10 0 21 1;
#X connect 11 0 9 1;
#X connect 12 0 21 0;
#X connect 13 0 14 0;
#X connect 14 0 26 0;
#X connect 15 0 16 0;
#X connect 16 0 11 0;
#X connect 17 0 10 1;
#X connect 18 0 23 0;
#X connect 19 0 20 0;
#X connect 20 0 18 0;
#X connect 21 0 3 0;
#X connect 22 0 13 0;
#X connect 23 0 12 1;
#X connect 24 0 17 0;
#X connect 25 0 19 0;
#X connect 26 0 7 0;
